<mxfile host="app.diagrams.net" modified="2024-04-17T09:07:59.600Z" agent="Mozilla/5.0 (Windows NT 10.0; Win64; x64) AppleWebKit/537.36 (KHTML, like Gecko) Chrome/123.0.0.0 Safari/537.36" etag="U15RUd8uuXWWZllx7AL1" version="24.2.5" type="github" pages="3">
  <diagram name="FindAvailableRoom" id="GECmr9wY6oCdK8dZKXtr">
    <mxGraphModel dx="1434" dy="738" grid="1" gridSize="10" guides="1" tooltips="1" connect="1" arrows="1" fold="1" page="1" pageScale="1" pageWidth="827" pageHeight="1169" math="0" shadow="0">
      <root>
        <mxCell id="0" />
        <mxCell id="1" parent="0" />
        <mxCell id="ibUaoA9ocualU6aEqmoa-1" value="&lt;div&gt;public int FindAvailableRoom(DateTime startDate, DateTime endDate)&lt;/div&gt;&lt;div&gt;{&lt;/div&gt;&lt;div&gt;&amp;nbsp; &amp;nbsp; if (startDate &amp;lt;= DateTime.Today || startDate &amp;gt; endDate)&lt;/div&gt;&lt;div&gt;&amp;nbsp; &amp;nbsp; {&lt;/div&gt;&lt;div&gt;&amp;nbsp; &amp;nbsp; &amp;nbsp; &amp;nbsp; throw new ArgumentException(&quot;The start date cannot be in the past or later than the end date.&quot;);&lt;/div&gt;&lt;div&gt;&amp;nbsp; &amp;nbsp; }&lt;/div&gt;&lt;div&gt;&amp;nbsp; &amp;nbsp; &amp;nbsp; &amp;nbsp;&amp;nbsp;&lt;/div&gt;&lt;div&gt;&amp;nbsp; &amp;nbsp; var activeBookings = bookingRepository.GetAll().Where(b =&amp;gt; b.IsActive);&lt;/div&gt;&lt;div&gt;&amp;nbsp; &amp;nbsp; foreach (var room in roomRepository.GetAll())&amp;nbsp;&lt;/div&gt;&lt;div&gt;&amp;nbsp; &amp;nbsp; {&lt;/div&gt;&lt;div&gt;&amp;nbsp; &amp;nbsp; &amp;nbsp; &amp;nbsp; var activeBookingsForCurrentRoom = activeBookings.Where(b =&amp;gt; b.RoomId == room.Id);&lt;/div&gt;&lt;div&gt;&amp;nbsp; &amp;nbsp; &amp;nbsp; &amp;nbsp; if (activeBookingsForCurrentRoom.All(b =&amp;gt; startDate &amp;lt; b.StartDate &amp;amp;&amp;amp;&lt;/div&gt;&lt;div&gt;&amp;nbsp; &amp;nbsp; &amp;nbsp; &amp;nbsp; &amp;nbsp; &amp;nbsp; endDate &amp;lt; b.StartDate || startDate &amp;gt; b.EndDate &amp;amp;&amp;amp; endDate &amp;gt; b.EndDate))&lt;/div&gt;&lt;div&gt;&amp;nbsp; &amp;nbsp; &amp;nbsp; &amp;nbsp; {&lt;/div&gt;&lt;div&gt;&amp;nbsp; &amp;nbsp; &amp;nbsp; &amp;nbsp; &amp;nbsp; &amp;nbsp; return room.Id;&lt;/div&gt;&lt;div&gt;&amp;nbsp; &amp;nbsp; &amp;nbsp; &amp;nbsp; }&lt;/div&gt;&lt;div&gt;&amp;nbsp; &amp;nbsp; }&lt;/div&gt;&lt;div&gt;&amp;nbsp; &amp;nbsp; return -1;&lt;/div&gt;&lt;div&gt;}&lt;/div&gt;" style="text;html=1;align=left;verticalAlign=middle;resizable=0;points=[];autosize=1;strokeColor=none;fillColor=none;labelBackgroundColor=none;fontColor=#46495D;" parent="1" vertex="1">
          <mxGeometry x="45" y="10" width="560" height="290" as="geometry" />
        </mxCell>
        <mxCell id="ibUaoA9ocualU6aEqmoa-2" value="&lt;div&gt;&lt;span style=&quot;background-color: initial;&quot;&gt;1.&lt;/span&gt;&lt;br&gt;&lt;/div&gt;&lt;div&gt;&lt;br&gt;&lt;/div&gt;&lt;div&gt;2.&lt;/div&gt;&lt;div&gt;3.&lt;/div&gt;&lt;div&gt;&lt;br&gt;&lt;/div&gt;&lt;div&gt;4.&lt;/div&gt;&lt;div&gt;5.&lt;/div&gt;&lt;div&gt;&lt;br&gt;&lt;/div&gt;&lt;div&gt;6.&lt;/div&gt;&lt;div style=&quot;&quot;&gt;7.&lt;/div&gt;&lt;div style=&quot;&quot;&gt;&lt;br&gt;&lt;/div&gt;&lt;div style=&quot;&quot;&gt;&lt;br&gt;&lt;/div&gt;&lt;div style=&quot;&quot;&gt;8.&lt;/div&gt;&lt;div style=&quot;&quot;&gt;9.&lt;/div&gt;&lt;div style=&quot;&quot;&gt;10.&lt;/div&gt;&lt;div style=&quot;&quot;&gt;11.&lt;/div&gt;" style="text;html=1;align=left;verticalAlign=middle;resizable=0;points=[];autosize=1;strokeColor=none;fillColor=none;labelBackgroundColor=none;fontColor=#46495D;" parent="1" vertex="1">
          <mxGeometry x="21" y="44" width="40" height="240" as="geometry" />
        </mxCell>
        <mxCell id="ibUaoA9ocualU6aEqmoa-3" value="&lt;b&gt;Control Flow Graph / Program Graph&lt;/b&gt;" style="text;html=1;align=center;verticalAlign=middle;resizable=0;points=[];autosize=1;strokeColor=none;fillColor=none;labelBackgroundColor=none;fontColor=#46495D;" parent="1" vertex="1">
          <mxGeometry y="310" width="230" height="30" as="geometry" />
        </mxCell>
        <mxCell id="ibUaoA9ocualU6aEqmoa-4" value="&lt;b&gt;DD graph (Decision-to-decision path)&lt;/b&gt;" style="text;html=1;align=center;verticalAlign=middle;resizable=0;points=[];autosize=1;strokeColor=none;fillColor=none;labelBackgroundColor=none;fontColor=#46495D;" parent="1" vertex="1">
          <mxGeometry x="490" y="310" width="240" height="30" as="geometry" />
        </mxCell>
        <mxCell id="ibUaoA9ocualU6aEqmoa-5" value="1" style="ellipse;whiteSpace=wrap;html=1;aspect=fixed;labelBackgroundColor=none;fillColor=#B2C9AB;strokeColor=#788AA3;fontColor=#46495D;" parent="1" vertex="1">
          <mxGeometry x="80" y="360" width="40" height="40" as="geometry" />
        </mxCell>
        <mxCell id="ibUaoA9ocualU6aEqmoa-6" value="Source node" style="text;html=1;align=center;verticalAlign=middle;resizable=0;points=[];autosize=1;strokeColor=none;fillColor=none;labelBackgroundColor=none;fontColor=#46495D;" parent="1" vertex="1">
          <mxGeometry x="110" y="350" width="90" height="30" as="geometry" />
        </mxCell>
        <mxCell id="ibUaoA9ocualU6aEqmoa-7" value="2" style="ellipse;whiteSpace=wrap;html=1;aspect=fixed;labelBackgroundColor=none;fillColor=#B2C9AB;strokeColor=#788AA3;fontColor=#46495D;" parent="1" vertex="1">
          <mxGeometry x="10" y="360" width="40" height="40" as="geometry" />
        </mxCell>
        <mxCell id="ibUaoA9ocualU6aEqmoa-8" value="3" style="ellipse;whiteSpace=wrap;html=1;aspect=fixed;labelBackgroundColor=none;fillColor=#B2C9AB;strokeColor=#788AA3;fontColor=#46495D;" parent="1" vertex="1">
          <mxGeometry x="80" y="420" width="40" height="40" as="geometry" />
        </mxCell>
        <mxCell id="ibUaoA9ocualU6aEqmoa-9" value="4" style="ellipse;whiteSpace=wrap;html=1;aspect=fixed;labelBackgroundColor=none;fillColor=#B2C9AB;strokeColor=#788AA3;fontColor=#46495D;" parent="1" vertex="1">
          <mxGeometry x="80" y="480" width="40" height="40" as="geometry" />
        </mxCell>
        <mxCell id="ibUaoA9ocualU6aEqmoa-10" value="5" style="ellipse;whiteSpace=wrap;html=1;aspect=fixed;labelBackgroundColor=none;fillColor=#B2C9AB;strokeColor=#788AA3;fontColor=#46495D;" parent="1" vertex="1">
          <mxGeometry x="80" y="540" width="40" height="40" as="geometry" />
        </mxCell>
        <mxCell id="ibUaoA9ocualU6aEqmoa-11" value="6" style="ellipse;whiteSpace=wrap;html=1;aspect=fixed;labelBackgroundColor=none;fillColor=#B2C9AB;strokeColor=#788AA3;fontColor=#46495D;" parent="1" vertex="1">
          <mxGeometry x="80" y="600" width="40" height="40" as="geometry" />
        </mxCell>
        <mxCell id="ibUaoA9ocualU6aEqmoa-12" value="7" style="ellipse;whiteSpace=wrap;html=1;aspect=fixed;labelBackgroundColor=none;fillColor=#B2C9AB;strokeColor=#788AA3;fontColor=#46495D;" parent="1" vertex="1">
          <mxGeometry x="80" y="660" width="40" height="40" as="geometry" />
        </mxCell>
        <mxCell id="ibUaoA9ocualU6aEqmoa-13" value="8" style="ellipse;whiteSpace=wrap;html=1;aspect=fixed;labelBackgroundColor=none;fillColor=#B2C9AB;strokeColor=#788AA3;fontColor=#46495D;" parent="1" vertex="1">
          <mxGeometry x="80" y="720" width="40" height="40" as="geometry" />
        </mxCell>
        <mxCell id="ibUaoA9ocualU6aEqmoa-14" value="10" style="ellipse;whiteSpace=wrap;html=1;aspect=fixed;labelBackgroundColor=none;fillColor=#B2C9AB;strokeColor=#788AA3;fontColor=#46495D;" parent="1" vertex="1">
          <mxGeometry x="80" y="780" width="40" height="40" as="geometry" />
        </mxCell>
        <mxCell id="ibUaoA9ocualU6aEqmoa-15" value="11" style="ellipse;whiteSpace=wrap;html=1;aspect=fixed;labelBackgroundColor=none;fillColor=#B2C9AB;strokeColor=#788AA3;fontColor=#46495D;" parent="1" vertex="1">
          <mxGeometry x="80" y="840" width="40" height="40" as="geometry" />
        </mxCell>
        <mxCell id="ibUaoA9ocualU6aEqmoa-16" value="9" style="ellipse;whiteSpace=wrap;html=1;aspect=fixed;labelBackgroundColor=none;fillColor=#B2C9AB;strokeColor=#788AA3;fontColor=#46495D;" parent="1" vertex="1">
          <mxGeometry x="150" y="660" width="40" height="40" as="geometry" />
        </mxCell>
        <mxCell id="ibUaoA9ocualU6aEqmoa-17" value="" style="edgeStyle=none;orthogonalLoop=1;jettySize=auto;html=1;rounded=0;entryX=1;entryY=0.5;entryDx=0;entryDy=0;exitX=0;exitY=0.5;exitDx=0;exitDy=0;labelBackgroundColor=none;strokeColor=#788AA3;fontColor=default;" parent="1" source="ibUaoA9ocualU6aEqmoa-5" target="ibUaoA9ocualU6aEqmoa-7" edge="1">
          <mxGeometry width="100" relative="1" as="geometry">
            <mxPoint x="180" y="450" as="sourcePoint" />
            <mxPoint x="280" y="450" as="targetPoint" />
            <Array as="points" />
          </mxGeometry>
        </mxCell>
        <mxCell id="ibUaoA9ocualU6aEqmoa-18" value="" style="edgeStyle=none;orthogonalLoop=1;jettySize=auto;html=1;rounded=0;entryX=0.5;entryY=0;entryDx=0;entryDy=0;exitX=0.5;exitY=1;exitDx=0;exitDy=0;labelBackgroundColor=none;strokeColor=#788AA3;fontColor=default;" parent="1" source="ibUaoA9ocualU6aEqmoa-5" target="ibUaoA9ocualU6aEqmoa-8" edge="1">
          <mxGeometry width="100" relative="1" as="geometry">
            <mxPoint x="120" y="420" as="sourcePoint" />
            <mxPoint x="220" y="420" as="targetPoint" />
            <Array as="points" />
          </mxGeometry>
        </mxCell>
        <mxCell id="ibUaoA9ocualU6aEqmoa-20" value="" style="edgeStyle=none;orthogonalLoop=1;jettySize=auto;html=1;rounded=0;entryX=0.5;entryY=0;entryDx=0;entryDy=0;exitX=0.5;exitY=1;exitDx=0;exitDy=0;labelBackgroundColor=none;strokeColor=#788AA3;fontColor=default;" parent="1" source="ibUaoA9ocualU6aEqmoa-8" target="ibUaoA9ocualU6aEqmoa-9" edge="1">
          <mxGeometry width="100" relative="1" as="geometry">
            <mxPoint x="110" y="470" as="sourcePoint" />
            <mxPoint x="210" y="470" as="targetPoint" />
            <Array as="points" />
          </mxGeometry>
        </mxCell>
        <mxCell id="ibUaoA9ocualU6aEqmoa-21" value="" style="edgeStyle=none;orthogonalLoop=1;jettySize=auto;html=1;rounded=0;exitX=0.5;exitY=1;exitDx=0;exitDy=0;entryX=0.5;entryY=0;entryDx=0;entryDy=0;labelBackgroundColor=none;strokeColor=#788AA3;fontColor=default;" parent="1" source="ibUaoA9ocualU6aEqmoa-9" target="ibUaoA9ocualU6aEqmoa-10" edge="1">
          <mxGeometry width="100" relative="1" as="geometry">
            <mxPoint x="110" y="510" as="sourcePoint" />
            <mxPoint x="210" y="510" as="targetPoint" />
            <Array as="points" />
          </mxGeometry>
        </mxCell>
        <mxCell id="ibUaoA9ocualU6aEqmoa-22" value="" style="edgeStyle=none;orthogonalLoop=1;jettySize=auto;html=1;rounded=0;exitX=0.5;exitY=1;exitDx=0;exitDy=0;entryX=0.5;entryY=0;entryDx=0;entryDy=0;labelBackgroundColor=none;strokeColor=#788AA3;fontColor=default;" parent="1" source="ibUaoA9ocualU6aEqmoa-10" target="ibUaoA9ocualU6aEqmoa-11" edge="1">
          <mxGeometry width="100" relative="1" as="geometry">
            <mxPoint x="200" y="580" as="sourcePoint" />
            <mxPoint x="300" y="580" as="targetPoint" />
            <Array as="points" />
          </mxGeometry>
        </mxCell>
        <mxCell id="ibUaoA9ocualU6aEqmoa-23" value="" style="edgeStyle=none;orthogonalLoop=1;jettySize=auto;html=1;rounded=0;exitX=0.5;exitY=1;exitDx=0;exitDy=0;entryX=0.5;entryY=0;entryDx=0;entryDy=0;labelBackgroundColor=none;strokeColor=#788AA3;fontColor=default;" parent="1" source="ibUaoA9ocualU6aEqmoa-11" target="ibUaoA9ocualU6aEqmoa-12" edge="1">
          <mxGeometry width="100" relative="1" as="geometry">
            <mxPoint x="230" y="620" as="sourcePoint" />
            <mxPoint x="330" y="620" as="targetPoint" />
            <Array as="points" />
          </mxGeometry>
        </mxCell>
        <mxCell id="ibUaoA9ocualU6aEqmoa-25" value="" style="edgeStyle=none;orthogonalLoop=1;jettySize=auto;html=1;rounded=0;exitX=0.5;exitY=1;exitDx=0;exitDy=0;entryX=0.5;entryY=0;entryDx=0;entryDy=0;labelBackgroundColor=none;strokeColor=#788AA3;fontColor=default;" parent="1" source="ibUaoA9ocualU6aEqmoa-12" target="ibUaoA9ocualU6aEqmoa-13" edge="1">
          <mxGeometry width="100" relative="1" as="geometry">
            <mxPoint x="270" y="700" as="sourcePoint" />
            <mxPoint x="370" y="700" as="targetPoint" />
            <Array as="points" />
          </mxGeometry>
        </mxCell>
        <mxCell id="ibUaoA9ocualU6aEqmoa-26" value="" style="edgeStyle=none;orthogonalLoop=1;jettySize=auto;html=1;rounded=0;exitX=0.5;exitY=1;exitDx=0;exitDy=0;entryX=0.5;entryY=0;entryDx=0;entryDy=0;labelBackgroundColor=none;strokeColor=#788AA3;fontColor=default;" parent="1" source="ibUaoA9ocualU6aEqmoa-13" target="ibUaoA9ocualU6aEqmoa-14" edge="1">
          <mxGeometry width="100" relative="1" as="geometry">
            <mxPoint x="240" y="760" as="sourcePoint" />
            <mxPoint x="340" y="760" as="targetPoint" />
            <Array as="points" />
          </mxGeometry>
        </mxCell>
        <mxCell id="ibUaoA9ocualU6aEqmoa-27" value="" style="edgeStyle=none;orthogonalLoop=1;jettySize=auto;html=1;rounded=0;exitX=0.5;exitY=1;exitDx=0;exitDy=0;entryX=0.5;entryY=0;entryDx=0;entryDy=0;labelBackgroundColor=none;strokeColor=#788AA3;fontColor=default;" parent="1" source="ibUaoA9ocualU6aEqmoa-14" target="ibUaoA9ocualU6aEqmoa-15" edge="1">
          <mxGeometry width="100" relative="1" as="geometry">
            <mxPoint x="180" y="820" as="sourcePoint" />
            <mxPoint x="280" y="820" as="targetPoint" />
            <Array as="points" />
          </mxGeometry>
        </mxCell>
        <mxCell id="ibUaoA9ocualU6aEqmoa-28" value="" style="edgeStyle=none;orthogonalLoop=1;jettySize=auto;html=1;rounded=0;exitX=0.5;exitY=1;exitDx=0;exitDy=0;entryX=0;entryY=0.5;entryDx=0;entryDy=0;labelBackgroundColor=none;strokeColor=#788AA3;fontColor=default;" parent="1" source="ibUaoA9ocualU6aEqmoa-7" target="ibUaoA9ocualU6aEqmoa-14" edge="1">
          <mxGeometry width="100" relative="1" as="geometry">
            <mxPoint x="240" y="760" as="sourcePoint" />
            <mxPoint x="340" y="760" as="targetPoint" />
            <Array as="points">
              <mxPoint x="30" y="800" />
            </Array>
          </mxGeometry>
        </mxCell>
        <mxCell id="ibUaoA9ocualU6aEqmoa-29" value="" style="edgeStyle=none;orthogonalLoop=1;jettySize=auto;html=1;rounded=0;exitX=1;exitY=0.5;exitDx=0;exitDy=0;entryX=0;entryY=0.5;entryDx=0;entryDy=0;labelBackgroundColor=none;strokeColor=#788AA3;fontColor=default;" parent="1" source="ibUaoA9ocualU6aEqmoa-12" target="ibUaoA9ocualU6aEqmoa-16" edge="1">
          <mxGeometry width="100" relative="1" as="geometry">
            <mxPoint x="270" y="650" as="sourcePoint" />
            <mxPoint x="370" y="650" as="targetPoint" />
            <Array as="points" />
          </mxGeometry>
        </mxCell>
        <mxCell id="ibUaoA9ocualU6aEqmoa-30" value="" style="edgeStyle=none;orthogonalLoop=1;jettySize=auto;html=1;rounded=0;exitX=0.5;exitY=0;exitDx=0;exitDy=0;entryX=1;entryY=0.5;entryDx=0;entryDy=0;labelBackgroundColor=none;strokeColor=#788AA3;fontColor=default;" parent="1" source="ibUaoA9ocualU6aEqmoa-16" target="ibUaoA9ocualU6aEqmoa-10" edge="1">
          <mxGeometry width="100" relative="1" as="geometry">
            <mxPoint x="200" y="630" as="sourcePoint" />
            <mxPoint x="300" y="630" as="targetPoint" />
            <Array as="points">
              <mxPoint x="170" y="560" />
            </Array>
          </mxGeometry>
        </mxCell>
        <mxCell id="ibUaoA9ocualU6aEqmoa-31" value="" style="edgeStyle=none;orthogonalLoop=1;jettySize=auto;html=1;rounded=0;exitX=0.5;exitY=1;exitDx=0;exitDy=0;entryX=1;entryY=0.5;entryDx=0;entryDy=0;labelBackgroundColor=none;strokeColor=#788AA3;fontColor=default;" parent="1" source="ibUaoA9ocualU6aEqmoa-16" target="ibUaoA9ocualU6aEqmoa-14" edge="1">
          <mxGeometry width="100" relative="1" as="geometry">
            <mxPoint x="260" y="680" as="sourcePoint" />
            <mxPoint x="360" y="680" as="targetPoint" />
            <Array as="points">
              <mxPoint x="170" y="800" />
            </Array>
          </mxGeometry>
        </mxCell>
        <mxCell id="ibUaoA9ocualU6aEqmoa-32" value="Sink node" style="text;html=1;align=center;verticalAlign=middle;resizable=0;points=[];autosize=1;strokeColor=none;fillColor=none;labelBackgroundColor=none;fontColor=#46495D;" parent="1" vertex="1">
          <mxGeometry x="110" y="830" width="80" height="30" as="geometry" />
        </mxCell>
        <mxCell id="ibUaoA9ocualU6aEqmoa-33" value="Begins with an outway of a decision statement and begins with an inway of a decision statement" style="text;html=1;align=center;verticalAlign=middle;resizable=0;points=[];autosize=1;strokeColor=none;fillColor=none;labelBackgroundColor=none;fontColor=#46495D;" parent="1" vertex="1">
          <mxGeometry x="360" y="330" width="530" height="30" as="geometry" />
        </mxCell>
        <mxCell id="ibUaoA9ocualU6aEqmoa-35" value="1" style="ellipse;whiteSpace=wrap;html=1;aspect=fixed;labelBackgroundColor=none;fillColor=#B2C9AB;strokeColor=#788AA3;fontColor=#46495D;" parent="1" vertex="1">
          <mxGeometry x="560" y="360" width="40" height="40" as="geometry" />
        </mxCell>
        <mxCell id="ibUaoA9ocualU6aEqmoa-36" value="Source node" style="text;html=1;align=center;verticalAlign=middle;resizable=0;points=[];autosize=1;strokeColor=none;fillColor=none;labelBackgroundColor=none;fontColor=#46495D;" parent="1" vertex="1">
          <mxGeometry x="590" y="350" width="90" height="30" as="geometry" />
        </mxCell>
        <mxCell id="ibUaoA9ocualU6aEqmoa-37" value="2" style="ellipse;whiteSpace=wrap;html=1;aspect=fixed;labelBackgroundColor=none;fillColor=#B2C9AB;strokeColor=#788AA3;fontColor=#46495D;" parent="1" vertex="1">
          <mxGeometry x="490" y="360" width="40" height="40" as="geometry" />
        </mxCell>
        <mxCell id="ibUaoA9ocualU6aEqmoa-38" value="3,4" style="ellipse;whiteSpace=wrap;html=1;aspect=fixed;labelBackgroundColor=none;fillColor=#ffe6cc;strokeColor=#d79b00;" parent="1" vertex="1">
          <mxGeometry x="560" y="420" width="40" height="40" as="geometry" />
        </mxCell>
        <mxCell id="ibUaoA9ocualU6aEqmoa-39" value="" style="edgeStyle=none;orthogonalLoop=1;jettySize=auto;html=1;rounded=0;entryX=1;entryY=0.5;entryDx=0;entryDy=0;exitX=0;exitY=0.5;exitDx=0;exitDy=0;labelBackgroundColor=none;strokeColor=#788AA3;fontColor=default;" parent="1" source="ibUaoA9ocualU6aEqmoa-35" target="ibUaoA9ocualU6aEqmoa-37" edge="1">
          <mxGeometry width="100" relative="1" as="geometry">
            <mxPoint x="660" y="450" as="sourcePoint" />
            <mxPoint x="760" y="450" as="targetPoint" />
            <Array as="points" />
          </mxGeometry>
        </mxCell>
        <mxCell id="ibUaoA9ocualU6aEqmoa-40" value="" style="edgeStyle=none;orthogonalLoop=1;jettySize=auto;html=1;rounded=0;entryX=0.5;entryY=0;entryDx=0;entryDy=0;exitX=0.5;exitY=1;exitDx=0;exitDy=0;labelBackgroundColor=none;strokeColor=#788AA3;fontColor=default;" parent="1" source="ibUaoA9ocualU6aEqmoa-35" target="ibUaoA9ocualU6aEqmoa-38" edge="1">
          <mxGeometry width="100" relative="1" as="geometry">
            <mxPoint x="600" y="420" as="sourcePoint" />
            <mxPoint x="700" y="420" as="targetPoint" />
            <Array as="points" />
          </mxGeometry>
        </mxCell>
        <mxCell id="ibUaoA9ocualU6aEqmoa-41" value="5" style="ellipse;whiteSpace=wrap;html=1;aspect=fixed;labelBackgroundColor=none;fillColor=#B2C9AB;strokeColor=#788AA3;fontColor=#46495D;" parent="1" vertex="1">
          <mxGeometry x="560" y="480" width="40" height="40" as="geometry" />
        </mxCell>
        <mxCell id="ibUaoA9ocualU6aEqmoa-43" value="6,7" style="ellipse;whiteSpace=wrap;html=1;aspect=fixed;labelBackgroundColor=none;fillColor=#ffe6cc;strokeColor=#d79b00;" parent="1" vertex="1">
          <mxGeometry x="560" y="540" width="40" height="40" as="geometry" />
        </mxCell>
        <mxCell id="ibUaoA9ocualU6aEqmoa-44" value="8" style="ellipse;whiteSpace=wrap;html=1;aspect=fixed;labelBackgroundColor=none;fillColor=#B2C9AB;strokeColor=#788AA3;fontColor=#46495D;" parent="1" vertex="1">
          <mxGeometry x="560" y="600" width="40" height="40" as="geometry" />
        </mxCell>
        <mxCell id="ibUaoA9ocualU6aEqmoa-45" value="9" style="ellipse;whiteSpace=wrap;html=1;aspect=fixed;labelBackgroundColor=none;fillColor=#B2C9AB;strokeColor=#788AA3;fontColor=#46495D;" parent="1" vertex="1">
          <mxGeometry x="630" y="540" width="40" height="40" as="geometry" />
        </mxCell>
        <mxCell id="ibUaoA9ocualU6aEqmoa-47" value="" style="edgeStyle=none;orthogonalLoop=1;jettySize=auto;html=1;rounded=0;exitX=0.5;exitY=1;exitDx=0;exitDy=0;entryX=0.5;entryY=0;entryDx=0;entryDy=0;labelBackgroundColor=none;strokeColor=#788AA3;fontColor=default;" parent="1" target="ibUaoA9ocualU6aEqmoa-43" edge="1">
          <mxGeometry width="100" relative="1" as="geometry">
            <mxPoint x="580" y="520" as="sourcePoint" />
            <mxPoint x="810" y="500" as="targetPoint" />
            <Array as="points" />
          </mxGeometry>
        </mxCell>
        <mxCell id="ibUaoA9ocualU6aEqmoa-48" value="" style="edgeStyle=none;orthogonalLoop=1;jettySize=auto;html=1;rounded=0;exitX=0.5;exitY=1;exitDx=0;exitDy=0;entryX=0.5;entryY=0;entryDx=0;entryDy=0;labelBackgroundColor=none;strokeColor=#788AA3;fontColor=default;" parent="1" source="ibUaoA9ocualU6aEqmoa-43" target="ibUaoA9ocualU6aEqmoa-44" edge="1">
          <mxGeometry width="100" relative="1" as="geometry">
            <mxPoint x="750" y="580" as="sourcePoint" />
            <mxPoint x="850" y="580" as="targetPoint" />
            <Array as="points" />
          </mxGeometry>
        </mxCell>
        <mxCell id="ibUaoA9ocualU6aEqmoa-49" value="" style="edgeStyle=none;orthogonalLoop=1;jettySize=auto;html=1;rounded=0;exitX=0.5;exitY=1;exitDx=0;exitDy=0;entryX=0.5;entryY=0;entryDx=0;entryDy=0;labelBackgroundColor=none;strokeColor=#788AA3;fontColor=default;" parent="1" source="ibUaoA9ocualU6aEqmoa-44" edge="1">
          <mxGeometry width="100" relative="1" as="geometry">
            <mxPoint x="720" y="640" as="sourcePoint" />
            <mxPoint x="580" y="660" as="targetPoint" />
            <Array as="points" />
          </mxGeometry>
        </mxCell>
        <mxCell id="ibUaoA9ocualU6aEqmoa-50" value="" style="edgeStyle=none;orthogonalLoop=1;jettySize=auto;html=1;rounded=0;exitX=1;exitY=0.5;exitDx=0;exitDy=0;entryX=0;entryY=0.5;entryDx=0;entryDy=0;labelBackgroundColor=none;strokeColor=#788AA3;fontColor=default;" parent="1" source="ibUaoA9ocualU6aEqmoa-43" target="ibUaoA9ocualU6aEqmoa-45" edge="1">
          <mxGeometry width="100" relative="1" as="geometry">
            <mxPoint x="750" y="530" as="sourcePoint" />
            <mxPoint x="850" y="530" as="targetPoint" />
            <Array as="points" />
          </mxGeometry>
        </mxCell>
        <mxCell id="ibUaoA9ocualU6aEqmoa-51" value="" style="edgeStyle=none;orthogonalLoop=1;jettySize=auto;html=1;rounded=0;exitX=0.5;exitY=0;exitDx=0;exitDy=0;entryX=1;entryY=0.5;entryDx=0;entryDy=0;labelBackgroundColor=none;strokeColor=#788AA3;fontColor=default;" parent="1" source="ibUaoA9ocualU6aEqmoa-45" target="ibUaoA9ocualU6aEqmoa-41" edge="1">
          <mxGeometry width="100" relative="1" as="geometry">
            <mxPoint x="680" y="570" as="sourcePoint" />
            <mxPoint x="780" y="570" as="targetPoint" />
            <Array as="points">
              <mxPoint x="650" y="500" />
            </Array>
          </mxGeometry>
        </mxCell>
        <mxCell id="ibUaoA9ocualU6aEqmoa-52" value="" style="edgeStyle=none;orthogonalLoop=1;jettySize=auto;html=1;rounded=0;exitX=0.5;exitY=1;exitDx=0;exitDy=0;entryX=0.5;entryY=0;entryDx=0;entryDy=0;labelBackgroundColor=none;strokeColor=#788AA3;fontColor=default;" parent="1" source="ibUaoA9ocualU6aEqmoa-38" target="ibUaoA9ocualU6aEqmoa-41" edge="1">
          <mxGeometry width="100" relative="1" as="geometry">
            <mxPoint x="640" y="460" as="sourcePoint" />
            <mxPoint x="740" y="460" as="targetPoint" />
            <Array as="points" />
          </mxGeometry>
        </mxCell>
        <mxCell id="ibUaoA9ocualU6aEqmoa-53" value="er 6,7 ok? Nok ikke, men har ingen praktisk betydnin vil jeg mene" style="text;html=1;align=center;verticalAlign=middle;resizable=0;points=[];autosize=1;strokeColor=none;fillColor=none;labelBackgroundColor=none;fontColor=#46495D;" parent="1" vertex="1">
          <mxGeometry x="690" y="545" width="370" height="30" as="geometry" />
        </mxCell>
        <mxCell id="ibUaoA9ocualU6aEqmoa-57" value="10,11" style="ellipse;whiteSpace=wrap;html=1;aspect=fixed;labelBackgroundColor=none;fillColor=#ffe6cc;strokeColor=#d79b00;" parent="1" vertex="1">
          <mxGeometry x="560" y="660" width="40" height="40" as="geometry" />
        </mxCell>
        <mxCell id="ibUaoA9ocualU6aEqmoa-60" value="Sink node" style="text;html=1;align=center;verticalAlign=middle;resizable=0;points=[];autosize=1;strokeColor=none;fillColor=none;labelBackgroundColor=none;fontColor=#46495D;" parent="1" vertex="1">
          <mxGeometry x="580" y="690" width="80" height="30" as="geometry" />
        </mxCell>
        <mxCell id="ibUaoA9ocualU6aEqmoa-61" value="" style="edgeStyle=none;orthogonalLoop=1;jettySize=auto;html=1;rounded=0;exitX=0.5;exitY=1;exitDx=0;exitDy=0;entryX=0;entryY=0.5;entryDx=0;entryDy=0;labelBackgroundColor=none;strokeColor=#788AA3;fontColor=default;" parent="1" source="ibUaoA9ocualU6aEqmoa-37" target="ibUaoA9ocualU6aEqmoa-57" edge="1">
          <mxGeometry width="100" relative="1" as="geometry">
            <mxPoint x="450" y="450" as="sourcePoint" />
            <mxPoint x="550" y="450" as="targetPoint" />
            <Array as="points">
              <mxPoint x="510" y="680" />
            </Array>
          </mxGeometry>
        </mxCell>
        <mxCell id="ibUaoA9ocualU6aEqmoa-62" value="" style="edgeStyle=none;orthogonalLoop=1;jettySize=auto;html=1;rounded=0;exitX=0.5;exitY=1;exitDx=0;exitDy=0;entryX=1;entryY=0.5;entryDx=0;entryDy=0;labelBackgroundColor=none;strokeColor=#788AA3;fontColor=default;" parent="1" source="ibUaoA9ocualU6aEqmoa-45" target="ibUaoA9ocualU6aEqmoa-57" edge="1">
          <mxGeometry width="100" relative="1" as="geometry">
            <mxPoint x="750" y="640" as="sourcePoint" />
            <mxPoint x="850" y="640" as="targetPoint" />
            <Array as="points">
              <mxPoint x="650" y="680" />
            </Array>
          </mxGeometry>
        </mxCell>
        <mxCell id="ruIU0ZXeeeHY5WvfAB_7-1" value="&lt;b&gt;DD-path is one of the following:&lt;/b&gt;&lt;div&gt;1. A single node with indegree = 0 (Source node)&lt;/div&gt;&lt;div&gt;2. A single node with outdegree=0 (Sink node)&lt;/div&gt;&lt;div&gt;3. A single node with indegree &amp;gt;= 2 or outdegree &amp;gt;= 2 (e.g. if)&lt;/div&gt;&lt;div&gt;4. A single node with indegree = 1and outdegree = 1&lt;/div&gt;&lt;div&gt;5. A maximal chain of length &amp;gt;= 1 (a single-entry, single-exit sequence of nodes)&lt;/div&gt;&lt;div&gt;&lt;br&gt;&lt;/div&gt;&lt;div&gt;A DD-path is a sequence of statements that&amp;nbsp;&lt;/div&gt;&lt;div&gt;- begins with the outway of a decision statement&amp;nbsp;&lt;span style=&quot;background-color: initial;&quot;&gt;and&lt;/span&gt;&lt;/div&gt;&lt;div&gt;&lt;span style=&quot;background-color: initial;&quot;&gt;- ends with an inway of the next decision statement&lt;/span&gt;&lt;/div&gt;" style="text;html=1;align=left;verticalAlign=middle;resizable=0;points=[];autosize=1;strokeColor=none;fillColor=none;fontColor=#46495D;" parent="1" vertex="1">
          <mxGeometry x="480" y="750" width="450" height="160" as="geometry" />
        </mxCell>
        <mxCell id="ruIU0ZXeeeHY5WvfAB_7-2" value="&lt;b&gt;DD alternative ?&amp;nbsp;&lt;/b&gt;" style="text;html=1;align=center;verticalAlign=middle;resizable=0;points=[];autosize=1;strokeColor=none;fillColor=none;labelBackgroundColor=none;fontColor=#46495D;" parent="1" vertex="1">
          <mxGeometry x="1144" y="320" width="120" height="30" as="geometry" />
        </mxCell>
        <mxCell id="ruIU0ZXeeeHY5WvfAB_7-4" value="1" style="ellipse;whiteSpace=wrap;html=1;aspect=fixed;labelBackgroundColor=none;fillColor=#B2C9AB;strokeColor=#788AA3;fontColor=#46495D;" parent="1" vertex="1">
          <mxGeometry x="1154" y="370" width="40" height="40" as="geometry" />
        </mxCell>
        <mxCell id="ruIU0ZXeeeHY5WvfAB_7-5" value="Source node" style="text;html=1;align=center;verticalAlign=middle;resizable=0;points=[];autosize=1;strokeColor=none;fillColor=none;labelBackgroundColor=none;fontColor=#46495D;" parent="1" vertex="1">
          <mxGeometry x="1184" y="360" width="90" height="30" as="geometry" />
        </mxCell>
        <mxCell id="ruIU0ZXeeeHY5WvfAB_7-6" value="2" style="ellipse;whiteSpace=wrap;html=1;aspect=fixed;labelBackgroundColor=none;fillColor=#B2C9AB;strokeColor=#788AA3;fontColor=#46495D;" parent="1" vertex="1">
          <mxGeometry x="1084" y="370" width="40" height="40" as="geometry" />
        </mxCell>
        <mxCell id="ruIU0ZXeeeHY5WvfAB_7-7" value="3,4,5" style="ellipse;whiteSpace=wrap;html=1;aspect=fixed;labelBackgroundColor=none;fillColor=#ffe6cc;strokeColor=#d79b00;" parent="1" vertex="1">
          <mxGeometry x="1154" y="430" width="40" height="40" as="geometry" />
        </mxCell>
        <mxCell id="ruIU0ZXeeeHY5WvfAB_7-8" value="" style="edgeStyle=none;orthogonalLoop=1;jettySize=auto;html=1;rounded=0;entryX=1;entryY=0.5;entryDx=0;entryDy=0;exitX=0;exitY=0.5;exitDx=0;exitDy=0;labelBackgroundColor=none;strokeColor=#788AA3;fontColor=default;" parent="1" source="ruIU0ZXeeeHY5WvfAB_7-4" target="ruIU0ZXeeeHY5WvfAB_7-6" edge="1">
          <mxGeometry width="100" relative="1" as="geometry">
            <mxPoint x="1254" y="460" as="sourcePoint" />
            <mxPoint x="1354" y="460" as="targetPoint" />
            <Array as="points" />
          </mxGeometry>
        </mxCell>
        <mxCell id="ruIU0ZXeeeHY5WvfAB_7-9" value="" style="edgeStyle=none;orthogonalLoop=1;jettySize=auto;html=1;rounded=0;entryX=0.5;entryY=0;entryDx=0;entryDy=0;exitX=0.5;exitY=1;exitDx=0;exitDy=0;labelBackgroundColor=none;strokeColor=#788AA3;fontColor=default;" parent="1" source="ruIU0ZXeeeHY5WvfAB_7-4" target="ruIU0ZXeeeHY5WvfAB_7-7" edge="1">
          <mxGeometry width="100" relative="1" as="geometry">
            <mxPoint x="1194" y="430" as="sourcePoint" />
            <mxPoint x="1294" y="430" as="targetPoint" />
            <Array as="points" />
          </mxGeometry>
        </mxCell>
        <mxCell id="ruIU0ZXeeeHY5WvfAB_7-11" value="6,7" style="ellipse;whiteSpace=wrap;html=1;aspect=fixed;labelBackgroundColor=none;fillColor=#ffe6cc;strokeColor=#d79b00;" parent="1" vertex="1">
          <mxGeometry x="1154" y="490" width="40" height="40" as="geometry" />
        </mxCell>
        <mxCell id="ruIU0ZXeeeHY5WvfAB_7-12" value="8" style="ellipse;whiteSpace=wrap;html=1;aspect=fixed;labelBackgroundColor=none;fillColor=#B2C9AB;strokeColor=#788AA3;fontColor=#46495D;" parent="1" vertex="1">
          <mxGeometry x="1154" y="550" width="40" height="40" as="geometry" />
        </mxCell>
        <mxCell id="ruIU0ZXeeeHY5WvfAB_7-13" value="9" style="ellipse;whiteSpace=wrap;html=1;aspect=fixed;labelBackgroundColor=none;fillColor=#B2C9AB;strokeColor=#788AA3;fontColor=#46495D;" parent="1" vertex="1">
          <mxGeometry x="1224" y="490" width="40" height="40" as="geometry" />
        </mxCell>
        <mxCell id="ruIU0ZXeeeHY5WvfAB_7-14" value="" style="edgeStyle=none;orthogonalLoop=1;jettySize=auto;html=1;rounded=0;exitX=0.5;exitY=1;exitDx=0;exitDy=0;entryX=0.5;entryY=0;entryDx=0;entryDy=0;labelBackgroundColor=none;strokeColor=#788AA3;fontColor=default;" parent="1" target="ruIU0ZXeeeHY5WvfAB_7-11" edge="1">
          <mxGeometry width="100" relative="1" as="geometry">
            <mxPoint x="1174" y="470" as="sourcePoint" />
            <mxPoint x="1404" y="450" as="targetPoint" />
            <Array as="points" />
          </mxGeometry>
        </mxCell>
        <mxCell id="ruIU0ZXeeeHY5WvfAB_7-15" value="" style="edgeStyle=none;orthogonalLoop=1;jettySize=auto;html=1;rounded=0;exitX=0.5;exitY=1;exitDx=0;exitDy=0;entryX=0.5;entryY=0;entryDx=0;entryDy=0;labelBackgroundColor=none;strokeColor=#788AA3;fontColor=default;" parent="1" source="ruIU0ZXeeeHY5WvfAB_7-11" target="ruIU0ZXeeeHY5WvfAB_7-12" edge="1">
          <mxGeometry width="100" relative="1" as="geometry">
            <mxPoint x="1344" y="530" as="sourcePoint" />
            <mxPoint x="1444" y="530" as="targetPoint" />
            <Array as="points" />
          </mxGeometry>
        </mxCell>
        <mxCell id="ruIU0ZXeeeHY5WvfAB_7-16" value="" style="edgeStyle=none;orthogonalLoop=1;jettySize=auto;html=1;rounded=0;exitX=0.5;exitY=1;exitDx=0;exitDy=0;entryX=0.5;entryY=0;entryDx=0;entryDy=0;labelBackgroundColor=none;strokeColor=#788AA3;fontColor=default;" parent="1" source="ruIU0ZXeeeHY5WvfAB_7-12" edge="1">
          <mxGeometry width="100" relative="1" as="geometry">
            <mxPoint x="1314" y="590" as="sourcePoint" />
            <mxPoint x="1174" y="610" as="targetPoint" />
            <Array as="points" />
          </mxGeometry>
        </mxCell>
        <mxCell id="ruIU0ZXeeeHY5WvfAB_7-17" value="" style="edgeStyle=none;orthogonalLoop=1;jettySize=auto;html=1;rounded=0;exitX=1;exitY=0.5;exitDx=0;exitDy=0;entryX=0;entryY=0.5;entryDx=0;entryDy=0;labelBackgroundColor=none;strokeColor=#788AA3;fontColor=default;" parent="1" source="ruIU0ZXeeeHY5WvfAB_7-11" target="ruIU0ZXeeeHY5WvfAB_7-13" edge="1">
          <mxGeometry width="100" relative="1" as="geometry">
            <mxPoint x="1344" y="480" as="sourcePoint" />
            <mxPoint x="1444" y="480" as="targetPoint" />
            <Array as="points" />
          </mxGeometry>
        </mxCell>
        <mxCell id="ruIU0ZXeeeHY5WvfAB_7-18" value="" style="edgeStyle=none;orthogonalLoop=1;jettySize=auto;html=1;rounded=0;exitX=0.5;exitY=0;exitDx=0;exitDy=0;entryX=1;entryY=0.5;entryDx=0;entryDy=0;labelBackgroundColor=none;strokeColor=#788AA3;fontColor=default;" parent="1" source="ruIU0ZXeeeHY5WvfAB_7-13" edge="1">
          <mxGeometry width="100" relative="1" as="geometry">
            <mxPoint x="1274" y="520" as="sourcePoint" />
            <mxPoint x="1194" y="450" as="targetPoint" />
            <Array as="points">
              <mxPoint x="1244" y="450" />
            </Array>
          </mxGeometry>
        </mxCell>
        <mxCell id="ruIU0ZXeeeHY5WvfAB_7-19" value="" style="edgeStyle=none;orthogonalLoop=1;jettySize=auto;html=1;rounded=0;exitX=0.5;exitY=1;exitDx=0;exitDy=0;entryX=0.5;entryY=0;entryDx=0;entryDy=0;labelBackgroundColor=none;strokeColor=#788AA3;fontColor=default;" parent="1" source="ruIU0ZXeeeHY5WvfAB_7-7" edge="1">
          <mxGeometry width="100" relative="1" as="geometry">
            <mxPoint x="1234" y="470" as="sourcePoint" />
            <mxPoint x="1174" y="490" as="targetPoint" />
            <Array as="points" />
          </mxGeometry>
        </mxCell>
        <mxCell id="ruIU0ZXeeeHY5WvfAB_7-21" value="10,11" style="ellipse;whiteSpace=wrap;html=1;aspect=fixed;labelBackgroundColor=none;fillColor=#ffe6cc;strokeColor=#d79b00;" parent="1" vertex="1">
          <mxGeometry x="1154" y="610" width="40" height="40" as="geometry" />
        </mxCell>
        <mxCell id="ruIU0ZXeeeHY5WvfAB_7-22" value="Sink node" style="text;html=1;align=center;verticalAlign=middle;resizable=0;points=[];autosize=1;strokeColor=none;fillColor=none;labelBackgroundColor=none;fontColor=#46495D;" parent="1" vertex="1">
          <mxGeometry x="1174" y="640" width="80" height="30" as="geometry" />
        </mxCell>
        <mxCell id="ruIU0ZXeeeHY5WvfAB_7-23" value="" style="edgeStyle=none;orthogonalLoop=1;jettySize=auto;html=1;rounded=0;exitX=0.5;exitY=1;exitDx=0;exitDy=0;entryX=0;entryY=0.5;entryDx=0;entryDy=0;labelBackgroundColor=none;strokeColor=#788AA3;fontColor=default;" parent="1" source="ruIU0ZXeeeHY5WvfAB_7-6" target="ruIU0ZXeeeHY5WvfAB_7-21" edge="1">
          <mxGeometry width="100" relative="1" as="geometry">
            <mxPoint x="1044" y="460" as="sourcePoint" />
            <mxPoint x="1144" y="460" as="targetPoint" />
            <Array as="points">
              <mxPoint x="1104" y="630" />
            </Array>
          </mxGeometry>
        </mxCell>
        <mxCell id="ruIU0ZXeeeHY5WvfAB_7-24" value="" style="edgeStyle=none;orthogonalLoop=1;jettySize=auto;html=1;rounded=0;exitX=0.5;exitY=1;exitDx=0;exitDy=0;entryX=1;entryY=0.5;entryDx=0;entryDy=0;labelBackgroundColor=none;strokeColor=#788AA3;fontColor=default;" parent="1" source="ruIU0ZXeeeHY5WvfAB_7-13" target="ruIU0ZXeeeHY5WvfAB_7-21" edge="1">
          <mxGeometry width="100" relative="1" as="geometry">
            <mxPoint x="1344" y="590" as="sourcePoint" />
            <mxPoint x="1444" y="590" as="targetPoint" />
            <Array as="points">
              <mxPoint x="1244" y="630" />
            </Array>
          </mxGeometry>
        </mxCell>
        <mxCell id="FJUgpSEDnQntrF_k1wW3-1" value="&lt;div style=&quot;text-align: left;&quot;&gt;&lt;b style=&quot;background-color: initial;&quot;&gt;Cyclomatic complexity (CC)&lt;/b&gt;&lt;/div&gt;&lt;div&gt;&lt;div style=&quot;text-align: left;&quot;&gt;&lt;span style=&quot;background-color: initial;&quot;&gt;CC =&amp;nbsp; #times yoiu would need to cycle through from the source to the sink node until the structure of the code has been completely covered&lt;/span&gt;&lt;/div&gt;&lt;div style=&quot;text-align: left;&quot;&gt;CC should be &amp;lt;= 10 (implying: easier to&amp;nbsp;&lt;span style=&quot;background-color: initial;&quot;&gt;understand, maintain,&amp;nbsp;&lt;/span&gt;&lt;span style=&quot;background-color: initial;&quot;&gt;test, and reduces required test cases)&lt;/span&gt;&lt;/div&gt;&lt;/div&gt;&lt;div style=&quot;text-align: left;&quot;&gt;&lt;span style=&quot;background-color: initial;&quot;&gt;&lt;br&gt;&lt;/span&gt;&lt;/div&gt;&lt;div style=&quot;text-align: left;&quot;&gt;&lt;span style=&quot;background-color: initial;&quot;&gt;&lt;b&gt;CC formula&lt;/b&gt;&lt;/span&gt;&lt;/div&gt;&lt;div style=&quot;text-align: left;&quot;&gt;1) CC = 1 + #enclosed regions in the DD-path graph&lt;/div&gt;&lt;div style=&quot;text-align: left;&quot;&gt;2) CC = #edges - #nodes + 2&lt;/div&gt;&lt;div style=&quot;text-align: left;&quot;&gt;3) CC = 1 + sum_i=1_to_n(outDegree_node_i - 1) = #branching and looping constructs + 1&lt;/div&gt;&lt;div style=&quot;text-align: left;&quot;&gt;&lt;span style=&quot;background-color: initial;&quot;&gt;&lt;br&gt;&lt;/span&gt;&lt;/div&gt;" style="text;html=1;align=center;verticalAlign=middle;resizable=0;points=[];autosize=1;strokeColor=none;fillColor=none;" parent="1" vertex="1">
          <mxGeometry x="940" y="754" width="760" height="140" as="geometry" />
        </mxCell>
        <mxCell id="FJUgpSEDnQntrF_k1wW3-2" value="&lt;b&gt;Cyclomatic complexity = 4&lt;/b&gt;&lt;div&gt;&lt;br&gt;&lt;/div&gt;" style="text;html=1;align=center;verticalAlign=middle;resizable=0;points=[];autosize=1;strokeColor=none;fillColor=none;" parent="1" vertex="1">
          <mxGeometry x="495" y="295" width="170" height="40" as="geometry" />
        </mxCell>
        <mxCell id="FJUgpSEDnQntrF_k1wW3-3" value="&lt;b&gt;Cyclomatic complexity = 4&lt;/b&gt;&lt;div&gt;&lt;br&gt;&lt;/div&gt;" style="text;html=1;align=center;verticalAlign=middle;resizable=0;points=[];autosize=1;strokeColor=none;fillColor=none;" parent="1" vertex="1">
          <mxGeometry x="1147" y="300" width="170" height="40" as="geometry" />
        </mxCell>
        <mxCell id="bg0yVp8UXrcKYgIzdM6Z-2" value="Node coverage (lowest level of coverage)&lt;div&gt;&lt;span style=&quot;font-weight: normal;&quot;&gt;Every node in the DD-path graph is traversed&amp;nbsp;&lt;/span&gt;&lt;/div&gt;&lt;div&gt;&lt;span style=&quot;font-weight: normal;&quot;&gt;Minimum requirement for unit testing&lt;/span&gt;&lt;/div&gt;&lt;div&gt;&lt;span style=&quot;font-weight: normal;&quot;&gt;Node coverage = nodes traversed / total #nodes&lt;/span&gt;&lt;/div&gt;" style="shape=table;startSize=60;container=1;collapsible=0;childLayout=tableLayout;fillColor=#d5e8d4;strokeColor=#82b366;fontStyle=1;swimlaneFillColor=#FFFFFF;fontColor=#000000;whiteSpace=wrap;html=1;" parent="1" vertex="1">
          <mxGeometry x="680" y="74" width="380" height="196" as="geometry" />
        </mxCell>
        <mxCell id="bg0yVp8UXrcKYgIzdM6Z-3" value="" style="shape=tableRow;horizontal=0;startSize=0;swimlaneHead=0;swimlaneBody=0;strokeColor=inherit;top=0;left=0;bottom=0;right=0;collapsible=0;dropTarget=0;fillColor=inherit;points=[[0,0.5],[1,0.5]];portConstraint=eastwest;fontSize=16;fontColor=#000000;" parent="bg0yVp8UXrcKYgIzdM6Z-2" vertex="1">
          <mxGeometry y="60" width="380" height="30" as="geometry" />
        </mxCell>
        <mxCell id="bg0yVp8UXrcKYgIzdM6Z-4" value="Nr" style="html=1;whiteSpace=wrap;connectable=0;strokeColor=inherit;overflow=hidden;fillColor=none;pointerEvents=1;fontColor=#000000;fontStyle=1" parent="bg0yVp8UXrcKYgIzdM6Z-3" vertex="1">
          <mxGeometry width="40" height="30" as="geometry">
            <mxRectangle width="40" height="30" as="alternateBounds" />
          </mxGeometry>
        </mxCell>
        <mxCell id="bg0yVp8UXrcKYgIzdM6Z-5" value="Test case" style="html=1;whiteSpace=wrap;connectable=0;strokeColor=inherit;overflow=hidden;fillColor=none;pointerEvents=1;fontColor=#000000;fontStyle=1" parent="bg0yVp8UXrcKYgIzdM6Z-3" vertex="1">
          <mxGeometry x="40" width="340" height="30" as="geometry">
            <mxRectangle width="340" height="30" as="alternateBounds" />
          </mxGeometry>
        </mxCell>
        <mxCell id="bg0yVp8UXrcKYgIzdM6Z-6" value="" style="shape=tableRow;horizontal=0;startSize=0;swimlaneHead=0;swimlaneBody=0;strokeColor=inherit;top=0;left=0;bottom=0;right=0;collapsible=0;dropTarget=0;fillColor=none;points=[[0,0.5],[1,0.5]];portConstraint=eastwest;fontSize=16;fontColor=#000000;" parent="bg0yVp8UXrcKYgIzdM6Z-2" vertex="1">
          <mxGeometry y="90" width="380" height="30" as="geometry" />
        </mxCell>
        <mxCell id="bg0yVp8UXrcKYgIzdM6Z-7" value="1" style="html=1;whiteSpace=wrap;connectable=0;strokeColor=inherit;overflow=hidden;fillColor=none;pointerEvents=1;fontColor=#000000;fontStyle=1" parent="bg0yVp8UXrcKYgIzdM6Z-6" vertex="1">
          <mxGeometry width="40" height="30" as="geometry">
            <mxRectangle width="40" height="30" as="alternateBounds" />
          </mxGeometry>
        </mxCell>
        <mxCell id="bg0yVp8UXrcKYgIzdM6Z-8" value="startDate = endDate = Today&amp;nbsp;" style="html=1;whiteSpace=wrap;connectable=0;strokeColor=inherit;overflow=hidden;fillColor=none;pointerEvents=1;fontColor=#000000;fontStyle=1" parent="bg0yVp8UXrcKYgIzdM6Z-6" vertex="1">
          <mxGeometry x="40" width="340" height="30" as="geometry">
            <mxRectangle width="340" height="30" as="alternateBounds" />
          </mxGeometry>
        </mxCell>
        <mxCell id="bg0yVp8UXrcKYgIzdM6Z-10" value="" style="shape=tableRow;horizontal=0;startSize=0;swimlaneHead=0;swimlaneBody=0;strokeColor=inherit;top=0;left=0;bottom=0;right=0;collapsible=0;dropTarget=0;fillColor=none;points=[[0,0.5],[1,0.5]];portConstraint=eastwest;fontSize=16;fontColor=#000000;" parent="bg0yVp8UXrcKYgIzdM6Z-2" vertex="1">
          <mxGeometry y="120" width="380" height="26" as="geometry" />
        </mxCell>
        <mxCell id="bg0yVp8UXrcKYgIzdM6Z-11" value="2" style="html=1;whiteSpace=wrap;connectable=0;strokeColor=inherit;overflow=hidden;fillColor=none;pointerEvents=1;fontColor=#000000;fontStyle=1" parent="bg0yVp8UXrcKYgIzdM6Z-10" vertex="1">
          <mxGeometry width="40" height="26" as="geometry">
            <mxRectangle width="40" height="26" as="alternateBounds" />
          </mxGeometry>
        </mxCell>
        <mxCell id="bg0yVp8UXrcKYgIzdM6Z-12" value="startDate = endDate =&amp;nbsp; Today + 1" style="html=1;whiteSpace=wrap;connectable=0;strokeColor=inherit;overflow=hidden;fillColor=none;pointerEvents=1;fontColor=#000000;fontStyle=1" parent="bg0yVp8UXrcKYgIzdM6Z-10" vertex="1">
          <mxGeometry x="40" width="340" height="26" as="geometry">
            <mxRectangle width="340" height="26" as="alternateBounds" />
          </mxGeometry>
        </mxCell>
        <mxCell id="bg0yVp8UXrcKYgIzdM6Z-17" value="" style="shape=tableRow;horizontal=0;startSize=0;swimlaneHead=0;swimlaneBody=0;strokeColor=inherit;top=0;left=0;bottom=0;right=0;collapsible=0;dropTarget=0;fillColor=none;points=[[0,0.5],[1,0.5]];portConstraint=eastwest;fontSize=16;fontColor=#000000;" parent="bg0yVp8UXrcKYgIzdM6Z-2" vertex="1">
          <mxGeometry y="146" width="380" height="26" as="geometry" />
        </mxCell>
        <mxCell id="bg0yVp8UXrcKYgIzdM6Z-18" value="3" style="html=1;whiteSpace=wrap;connectable=0;strokeColor=inherit;overflow=hidden;fillColor=none;pointerEvents=1;fontColor=#000000;fontStyle=1" parent="bg0yVp8UXrcKYgIzdM6Z-17" vertex="1">
          <mxGeometry width="40" height="26" as="geometry">
            <mxRectangle width="40" height="26" as="alternateBounds" />
          </mxGeometry>
        </mxCell>
        <mxCell id="bg0yVp8UXrcKYgIzdM6Z-19" value="startDate = endDate =&amp;nbsp; Today + 2" style="html=1;whiteSpace=wrap;connectable=0;strokeColor=inherit;overflow=hidden;fillColor=none;pointerEvents=1;fontColor=#000000;fontStyle=1" parent="bg0yVp8UXrcKYgIzdM6Z-17" vertex="1">
          <mxGeometry x="40" width="340" height="26" as="geometry">
            <mxRectangle width="340" height="26" as="alternateBounds" />
          </mxGeometry>
        </mxCell>
        <mxCell id="8yLsO5vO9ow1sGpMOGjO-1" value="" style="shape=tableRow;horizontal=0;startSize=0;swimlaneHead=0;swimlaneBody=0;strokeColor=inherit;top=0;left=0;bottom=0;right=0;collapsible=0;dropTarget=0;fillColor=none;points=[[0,0.5],[1,0.5]];portConstraint=eastwest;fontSize=16;fontColor=#000000;" parent="bg0yVp8UXrcKYgIzdM6Z-2" vertex="1">
          <mxGeometry y="172" width="380" height="24" as="geometry" />
        </mxCell>
        <mxCell id="8yLsO5vO9ow1sGpMOGjO-2" value="4" style="html=1;whiteSpace=wrap;connectable=0;strokeColor=inherit;overflow=hidden;fillColor=none;pointerEvents=1;fontColor=#000000;fontStyle=1" parent="8yLsO5vO9ow1sGpMOGjO-1" vertex="1">
          <mxGeometry width="40" height="24" as="geometry">
            <mxRectangle width="40" height="24" as="alternateBounds" />
          </mxGeometry>
        </mxCell>
        <mxCell id="8yLsO5vO9ow1sGpMOGjO-3" value="startDate = endDate = Today + 1 and&lt;span style=&quot;background-color: initial;&quot;&gt;&amp;nbsp;&lt;/span&gt;&lt;span style=&quot;background-color: initial;&quot;&gt;No active bookings&lt;/span&gt;" style="html=1;whiteSpace=wrap;connectable=0;strokeColor=inherit;overflow=hidden;fillColor=none;pointerEvents=1;fontColor=#000000;fontStyle=1" parent="8yLsO5vO9ow1sGpMOGjO-1" vertex="1">
          <mxGeometry x="40" width="340" height="24" as="geometry">
            <mxRectangle width="340" height="24" as="alternateBounds" />
          </mxGeometry>
        </mxCell>
        <mxCell id="bg0yVp8UXrcKYgIzdM6Z-9" value="Notes:&lt;div&gt;Multiple conditino ocverage: Example: (a&amp;gt;b) &amp;amp;&amp;amp; (b&amp;lt;c)&lt;div&gt;MCDC: alternative method for handling multiple condition coverage&lt;/div&gt;&lt;/div&gt;" style="text;html=1;align=center;verticalAlign=middle;resizable=0;points=[];autosize=1;strokeColor=none;fillColor=none;" parent="1" vertex="1">
          <mxGeometry x="410" y="993" width="380" height="60" as="geometry" />
        </mxCell>
        <mxCell id="bg0yVp8UXrcKYgIzdM6Z-16" value="&lt;b&gt;Node Coverage Setup&lt;/b&gt;: Assume we have a mock room and booking repository with&lt;div&gt;&lt;ul&gt;&lt;li&gt;1 room&lt;/li&gt;&lt;li&gt;&lt;span style=&quot;background-color: initial;&quot;&gt;1 active reservation on date Today + 2&lt;/span&gt;&lt;br&gt;&lt;/li&gt;&lt;/ul&gt;&lt;/div&gt;" style="text;html=1;align=left;verticalAlign=middle;resizable=0;points=[];autosize=1;strokeColor=none;fillColor=none;" parent="1" vertex="1">
          <mxGeometry x="677" y="10" width="470" height="80" as="geometry" />
        </mxCell>
        <mxCell id="sZXK7WLYeBxjVT4XiuNe-1" value="ONLY DO&lt;div&gt;basic path testing&amp;nbsp;&lt;/div&gt;&lt;div&gt;MCDC testing&lt;/div&gt;" style="text;html=1;align=center;verticalAlign=middle;resizable=0;points=[];autosize=1;strokeColor=none;fillColor=none;fontColor=#46495D;" parent="1" vertex="1">
          <mxGeometry x="1130" y="43" width="120" height="60" as="geometry" />
        </mxCell>
      </root>
    </mxGraphModel>
  </diagram>
  <diagram name="FindAvailableRoom_v2" id="O9XRfseYMxeUqQ86lQii">
    <mxGraphModel dx="3088" dy="1907" grid="1" gridSize="10" guides="1" tooltips="1" connect="1" arrows="1" fold="1" page="1" pageScale="1" pageWidth="827" pageHeight="1169" math="0" shadow="0">
      <root>
        <mxCell id="hvJsiPCnHU50Am5WqRKu-0" />
        <mxCell id="hvJsiPCnHU50Am5WqRKu-1" parent="hvJsiPCnHU50Am5WqRKu-0" />
        <mxCell id="hvJsiPCnHU50Am5WqRKu-2" value="&lt;div&gt;public int FindAvailableRoom(DateTime startDate, DateTime endDate)&lt;/div&gt;&lt;div&gt;{&lt;/div&gt;&lt;div&gt;&amp;nbsp; &amp;nbsp; if (startDate &amp;lt;= DateTime.Today || startDate &amp;gt; endDate)&lt;/div&gt;&lt;div&gt;&amp;nbsp; &amp;nbsp; {&lt;/div&gt;&lt;div&gt;&amp;nbsp; &amp;nbsp; &amp;nbsp; &amp;nbsp; throw new ArgumentException(&quot;The start date cannot be in the past or later than the end date.&quot;);&lt;/div&gt;&lt;div&gt;&amp;nbsp; &amp;nbsp; }&lt;/div&gt;&lt;div&gt;&amp;nbsp; &amp;nbsp; &amp;nbsp; &amp;nbsp;&amp;nbsp;&lt;/div&gt;&lt;div&gt;&amp;nbsp; &amp;nbsp; var activeBookings = bookingRepository.GetAll().Where(b =&amp;gt; b.IsActive);&lt;/div&gt;&lt;div&gt;&amp;nbsp; &amp;nbsp; foreach (var room in roomRepository.GetAll())&amp;nbsp;&lt;/div&gt;&lt;div&gt;&amp;nbsp; &amp;nbsp; {&lt;/div&gt;&lt;div&gt;&amp;nbsp; &amp;nbsp; &amp;nbsp; &amp;nbsp; var activeBookingsForCurrentRoom = activeBookings.Where(b =&amp;gt; b.RoomId == room.Id);&lt;/div&gt;&lt;div&gt;&amp;nbsp; &amp;nbsp; &amp;nbsp; &amp;nbsp; if (activeBookingsForCurrentRoom.All(b =&amp;gt; startDate &amp;lt; b.StartDate &amp;amp;&amp;amp;&lt;/div&gt;&lt;div&gt;&amp;nbsp; &amp;nbsp; &amp;nbsp; &amp;nbsp; &amp;nbsp; &amp;nbsp; endDate &amp;lt; b.StartDate || startDate &amp;gt; b.EndDate &amp;amp;&amp;amp; endDate &amp;gt; b.EndDate))&lt;/div&gt;&lt;div&gt;&amp;nbsp; &amp;nbsp; &amp;nbsp; &amp;nbsp; {&lt;/div&gt;&lt;div&gt;&amp;nbsp; &amp;nbsp; &amp;nbsp; &amp;nbsp; &amp;nbsp; &amp;nbsp; return room.Id;&lt;/div&gt;&lt;div&gt;&amp;nbsp; &amp;nbsp; &amp;nbsp; &amp;nbsp; }&lt;/div&gt;&lt;div&gt;&amp;nbsp; &amp;nbsp; }&lt;/div&gt;&lt;div&gt;&amp;nbsp; &amp;nbsp; return -1;&lt;/div&gt;&lt;div&gt;}&lt;/div&gt;" style="text;html=1;align=left;verticalAlign=middle;resizable=0;points=[];autosize=1;strokeColor=none;fillColor=none;labelBackgroundColor=none;fontColor=#46495D;" parent="hvJsiPCnHU50Am5WqRKu-1" vertex="1">
          <mxGeometry x="45" y="10" width="560" height="290" as="geometry" />
        </mxCell>
        <mxCell id="hvJsiPCnHU50Am5WqRKu-3" value="&lt;div&gt;&lt;span style=&quot;background-color: initial;&quot;&gt;1.&lt;/span&gt;&lt;br&gt;&lt;/div&gt;&lt;div&gt;&lt;br&gt;&lt;/div&gt;&lt;div&gt;2.&lt;/div&gt;&lt;div&gt;3.&lt;/div&gt;&lt;div&gt;&lt;br&gt;&lt;/div&gt;&lt;div&gt;4.&lt;/div&gt;&lt;div&gt;5.&lt;/div&gt;&lt;div&gt;&lt;br&gt;&lt;/div&gt;&lt;div&gt;6.&lt;/div&gt;&lt;div style=&quot;&quot;&gt;7.&lt;/div&gt;&lt;div style=&quot;&quot;&gt;&lt;br&gt;&lt;/div&gt;&lt;div style=&quot;&quot;&gt;&lt;br&gt;&lt;/div&gt;&lt;div style=&quot;&quot;&gt;8.&lt;/div&gt;&lt;div style=&quot;&quot;&gt;9.&lt;/div&gt;&lt;div style=&quot;&quot;&gt;10.&lt;/div&gt;&lt;div style=&quot;&quot;&gt;11.&lt;/div&gt;" style="text;html=1;align=left;verticalAlign=middle;resizable=0;points=[];autosize=1;strokeColor=none;fillColor=none;labelBackgroundColor=none;fontColor=#46495D;" parent="hvJsiPCnHU50Am5WqRKu-1" vertex="1">
          <mxGeometry x="21" y="44" width="40" height="240" as="geometry" />
        </mxCell>
        <mxCell id="hvJsiPCnHU50Am5WqRKu-4" value="&lt;b&gt;Control Flow Graph / Program Graph&lt;/b&gt;" style="text;html=1;align=center;verticalAlign=middle;resizable=0;points=[];autosize=1;strokeColor=none;fillColor=none;labelBackgroundColor=none;fontColor=#46495D;" parent="hvJsiPCnHU50Am5WqRKu-1" vertex="1">
          <mxGeometry x="140" y="305" width="230" height="30" as="geometry" />
        </mxCell>
        <mxCell id="hvJsiPCnHU50Am5WqRKu-5" value="&lt;b&gt;DD graph (Decision-to-decision path)&lt;/b&gt;" style="text;html=1;align=center;verticalAlign=middle;resizable=0;points=[];autosize=1;strokeColor=none;fillColor=none;labelBackgroundColor=none;fontColor=#46495D;" parent="hvJsiPCnHU50Am5WqRKu-1" vertex="1">
          <mxGeometry x="490" y="315" width="240" height="30" as="geometry" />
        </mxCell>
        <mxCell id="hvJsiPCnHU50Am5WqRKu-49" value="er 6,7 ok? Nok ikke, men har ingen praktisk betydnin vil jeg mene" style="text;html=1;align=center;verticalAlign=middle;resizable=0;points=[];autosize=1;strokeColor=#B20000;fillColor=#e51400;labelBackgroundColor=none;fontColor=#ffffff;" parent="hvJsiPCnHU50Am5WqRKu-1" vertex="1">
          <mxGeometry x="460" y="650" width="370" height="30" as="geometry" />
        </mxCell>
        <mxCell id="hvJsiPCnHU50Am5WqRKu-54" value="&lt;b&gt;DD-path is one of the following:&lt;/b&gt;&lt;div&gt;1. A single node with indegree = 0 (Source node)&lt;/div&gt;&lt;div&gt;2. A single node with outdegree=0 (Sink node)&lt;/div&gt;&lt;div&gt;3. A single node with indegree &amp;gt;= 2 or outdegree &amp;gt;= 2 (e.g. if)&lt;/div&gt;&lt;div&gt;4. A single node with indegree = 1and outdegree = 1&lt;/div&gt;&lt;div&gt;5. A maximal chain of length &amp;gt;= 1 (a single-entry, single-exit sequence of nodes)&lt;/div&gt;&lt;div&gt;&lt;br&gt;&lt;/div&gt;&lt;div&gt;A DD-path is a sequence of statements that&amp;nbsp;&lt;/div&gt;&lt;div&gt;- begins with the outway of a decision statement&amp;nbsp;&lt;span style=&quot;background-color: initial;&quot;&gt;and&lt;/span&gt;&lt;/div&gt;&lt;div&gt;&lt;span style=&quot;background-color: initial;&quot;&gt;- ends with an inway of the next decision statement&lt;/span&gt;&lt;/div&gt;" style="text;html=1;align=left;verticalAlign=middle;resizable=0;points=[];autosize=1;strokeColor=none;fillColor=none;fontColor=#46495D;" parent="hvJsiPCnHU50Am5WqRKu-1" vertex="1">
          <mxGeometry x="520" y="680" width="450" height="160" as="geometry" />
        </mxCell>
        <mxCell id="hvJsiPCnHU50Am5WqRKu-55" value="&lt;b&gt;DD alternative ?&amp;nbsp;&lt;/b&gt;" style="text;html=1;align=center;verticalAlign=middle;resizable=0;points=[];autosize=1;strokeColor=#B20000;fillColor=#e51400;labelBackgroundColor=none;fontColor=#ffffff;" parent="hvJsiPCnHU50Am5WqRKu-1" vertex="1">
          <mxGeometry x="880" y="320" width="120" height="30" as="geometry" />
        </mxCell>
        <mxCell id="hvJsiPCnHU50Am5WqRKu-75" value="&lt;div style=&quot;text-align: left;&quot;&gt;&lt;b style=&quot;background-color: initial;&quot;&gt;Cyclomatic complexity (CC)&lt;/b&gt;&lt;/div&gt;&lt;div&gt;&lt;div style=&quot;text-align: left;&quot;&gt;&lt;span style=&quot;background-color: initial;&quot;&gt;CC =&amp;nbsp; #times yoiu would need to cycle through from the source to the sink node until the structure of the code has been completely covered&lt;/span&gt;&lt;/div&gt;&lt;div style=&quot;text-align: left;&quot;&gt;CC should be &amp;lt;= 10 (implying: easier to&amp;nbsp;&lt;span style=&quot;background-color: initial;&quot;&gt;understand, maintain,&amp;nbsp;&lt;/span&gt;&lt;span style=&quot;background-color: initial;&quot;&gt;test, and reduces required test cases)&lt;/span&gt;&lt;/div&gt;&lt;/div&gt;&lt;div style=&quot;text-align: left;&quot;&gt;&lt;span style=&quot;background-color: initial;&quot;&gt;&lt;br&gt;&lt;/span&gt;&lt;/div&gt;&lt;div style=&quot;text-align: left;&quot;&gt;&lt;span style=&quot;background-color: initial;&quot;&gt;&lt;b&gt;CC formula&lt;/b&gt;&lt;/span&gt;&lt;/div&gt;&lt;div style=&quot;text-align: left;&quot;&gt;1) CC = 1 + #enclosed regions in the DD-path graph&lt;/div&gt;&lt;div style=&quot;text-align: left;&quot;&gt;2) CC = #edges - #nodes + 2&lt;/div&gt;&lt;div style=&quot;text-align: left;&quot;&gt;3) CC = 1 + sum_i=1_to_n(outDegree_node_i - 1) = #branching and looping constructs + 1&lt;/div&gt;&lt;div style=&quot;text-align: left;&quot;&gt;&lt;span style=&quot;background-color: initial;&quot;&gt;&lt;br&gt;&lt;/span&gt;&lt;/div&gt;" style="text;html=1;align=center;verticalAlign=middle;resizable=0;points=[];autosize=1;strokeColor=none;fillColor=none;" parent="hvJsiPCnHU50Am5WqRKu-1" vertex="1">
          <mxGeometry x="980" y="684" width="760" height="140" as="geometry" />
        </mxCell>
        <mxCell id="hvJsiPCnHU50Am5WqRKu-76" value="&lt;b&gt;Cyclomatic complexity = 4&lt;/b&gt;&lt;div&gt;&lt;br&gt;&lt;/div&gt;" style="text;html=1;align=center;verticalAlign=middle;resizable=0;points=[];autosize=1;strokeColor=none;fillColor=none;" parent="hvJsiPCnHU50Am5WqRKu-1" vertex="1">
          <mxGeometry x="515" y="295" width="170" height="40" as="geometry" />
        </mxCell>
        <mxCell id="hvJsiPCnHU50Am5WqRKu-77" value="&lt;b&gt;Cyclomatic complexity = 4&lt;/b&gt;&lt;div&gt;&lt;br&gt;&lt;/div&gt;" style="text;html=1;align=center;verticalAlign=middle;resizable=0;points=[];autosize=1;strokeColor=none;fillColor=none;" parent="hvJsiPCnHU50Am5WqRKu-1" vertex="1">
          <mxGeometry x="871" y="295" width="170" height="40" as="geometry" />
        </mxCell>
        <mxCell id="hvJsiPCnHU50Am5WqRKu-94" value="&lt;b&gt;Notes&lt;/b&gt;&lt;div&gt;Multiple condition coverage: Example: (a&amp;gt;b) &amp;amp;&amp;amp; (b&amp;lt;c)&lt;div&gt;MCDC: alternative method for handling multiple condition coverage&lt;/div&gt;&lt;/div&gt;" style="text;html=1;align=left;verticalAlign=middle;resizable=0;points=[];autosize=1;strokeColor=none;fillColor=none;" parent="hvJsiPCnHU50Am5WqRKu-1" vertex="1">
          <mxGeometry x="520" y="860" width="380" height="60" as="geometry" />
        </mxCell>
        <mxCell id="hvJsiPCnHU50Am5WqRKu-97" value="1" style="ellipse;whiteSpace=wrap;html=1;aspect=fixed;labelBackgroundColor=none;fillColor=#B2C9AB;strokeColor=#788AA3;fontColor=#46495D;" parent="hvJsiPCnHU50Am5WqRKu-1" vertex="1">
          <mxGeometry x="200" y="358" width="40" height="40" as="geometry" />
        </mxCell>
        <mxCell id="hvJsiPCnHU50Am5WqRKu-98" value="Source node" style="text;html=1;align=center;verticalAlign=middle;resizable=0;points=[];autosize=1;strokeColor=none;fillColor=none;labelBackgroundColor=none;fontColor=#46495D;" parent="hvJsiPCnHU50Am5WqRKu-1" vertex="1">
          <mxGeometry x="230" y="345" width="90" height="30" as="geometry" />
        </mxCell>
        <mxCell id="hvJsiPCnHU50Am5WqRKu-99" value="2" style="ellipse;whiteSpace=wrap;html=1;aspect=fixed;labelBackgroundColor=none;fillColor=#B2C9AB;strokeColor=#788AA3;fontColor=#46495D;" parent="hvJsiPCnHU50Am5WqRKu-1" vertex="1">
          <mxGeometry x="160" y="398" width="40" height="40" as="geometry" />
        </mxCell>
        <mxCell id="hvJsiPCnHU50Am5WqRKu-100" value="3" style="ellipse;whiteSpace=wrap;html=1;aspect=fixed;labelBackgroundColor=none;fillColor=#B2C9AB;strokeColor=#788AA3;fontColor=#46495D;" parent="hvJsiPCnHU50Am5WqRKu-1" vertex="1">
          <mxGeometry x="240" y="398" width="40" height="40" as="geometry" />
        </mxCell>
        <mxCell id="hvJsiPCnHU50Am5WqRKu-101" value="4" style="ellipse;whiteSpace=wrap;html=1;aspect=fixed;labelBackgroundColor=none;fillColor=#B2C9AB;strokeColor=#788AA3;fontColor=#46495D;" parent="hvJsiPCnHU50Am5WqRKu-1" vertex="1">
          <mxGeometry x="240" y="459" width="40" height="40" as="geometry" />
        </mxCell>
        <mxCell id="hvJsiPCnHU50Am5WqRKu-102" value="5" style="ellipse;whiteSpace=wrap;html=1;aspect=fixed;labelBackgroundColor=none;fillColor=#B2C9AB;strokeColor=#788AA3;fontColor=#46495D;" parent="hvJsiPCnHU50Am5WqRKu-1" vertex="1">
          <mxGeometry x="240" y="515" width="40" height="40" as="geometry" />
        </mxCell>
        <mxCell id="hvJsiPCnHU50Am5WqRKu-103" value="6" style="ellipse;whiteSpace=wrap;html=1;aspect=fixed;labelBackgroundColor=none;fillColor=#B2C9AB;strokeColor=#788AA3;fontColor=#46495D;" parent="hvJsiPCnHU50Am5WqRKu-1" vertex="1">
          <mxGeometry x="240" y="570" width="40" height="40" as="geometry" />
        </mxCell>
        <mxCell id="hvJsiPCnHU50Am5WqRKu-104" value="7" style="ellipse;whiteSpace=wrap;html=1;aspect=fixed;labelBackgroundColor=none;fillColor=#B2C9AB;strokeColor=#788AA3;fontColor=#46495D;" parent="hvJsiPCnHU50Am5WqRKu-1" vertex="1">
          <mxGeometry x="240" y="625" width="40" height="40" as="geometry" />
        </mxCell>
        <mxCell id="hvJsiPCnHU50Am5WqRKu-105" value="8" style="ellipse;whiteSpace=wrap;html=1;aspect=fixed;labelBackgroundColor=none;fillColor=#B2C9AB;strokeColor=#788AA3;fontColor=#46495D;" parent="hvJsiPCnHU50Am5WqRKu-1" vertex="1">
          <mxGeometry x="200" y="665" width="40" height="40" as="geometry" />
        </mxCell>
        <mxCell id="hvJsiPCnHU50Am5WqRKu-106" value="10" style="ellipse;whiteSpace=wrap;html=1;aspect=fixed;labelBackgroundColor=none;fillColor=#B2C9AB;strokeColor=#788AA3;fontColor=#46495D;" parent="hvJsiPCnHU50Am5WqRKu-1" vertex="1">
          <mxGeometry x="240" y="715" width="40" height="40" as="geometry" />
        </mxCell>
        <mxCell id="hvJsiPCnHU50Am5WqRKu-107" value="11" style="ellipse;whiteSpace=wrap;html=1;aspect=fixed;labelBackgroundColor=none;fillColor=#B2C9AB;strokeColor=#788AA3;fontColor=#46495D;" parent="hvJsiPCnHU50Am5WqRKu-1" vertex="1">
          <mxGeometry x="240" y="770" width="40" height="40" as="geometry" />
        </mxCell>
        <mxCell id="hvJsiPCnHU50Am5WqRKu-108" value="9" style="ellipse;whiteSpace=wrap;html=1;aspect=fixed;labelBackgroundColor=none;fillColor=#B2C9AB;strokeColor=#788AA3;fontColor=#46495D;" parent="hvJsiPCnHU50Am5WqRKu-1" vertex="1">
          <mxGeometry x="280" y="665" width="40" height="40" as="geometry" />
        </mxCell>
        <mxCell id="hvJsiPCnHU50Am5WqRKu-109" value="" style="edgeStyle=none;orthogonalLoop=1;jettySize=auto;html=1;rounded=0;entryX=0.5;entryY=0;entryDx=0;entryDy=0;exitX=0;exitY=0.5;exitDx=0;exitDy=0;labelBackgroundColor=none;strokeColor=#788AA3;fontColor=default;" parent="hvJsiPCnHU50Am5WqRKu-1" source="hvJsiPCnHU50Am5WqRKu-97" target="hvJsiPCnHU50Am5WqRKu-99" edge="1">
          <mxGeometry width="100" relative="1" as="geometry">
            <mxPoint x="320" y="445" as="sourcePoint" />
            <mxPoint x="420" y="445" as="targetPoint" />
            <Array as="points" />
          </mxGeometry>
        </mxCell>
        <mxCell id="hvJsiPCnHU50Am5WqRKu-110" value="" style="edgeStyle=none;orthogonalLoop=1;jettySize=auto;html=1;rounded=0;entryX=0.5;entryY=0;entryDx=0;entryDy=0;exitX=1;exitY=0.5;exitDx=0;exitDy=0;labelBackgroundColor=none;strokeColor=#788AA3;fontColor=default;" parent="hvJsiPCnHU50Am5WqRKu-1" source="hvJsiPCnHU50Am5WqRKu-97" target="hvJsiPCnHU50Am5WqRKu-100" edge="1">
          <mxGeometry width="100" relative="1" as="geometry">
            <mxPoint x="260" y="415" as="sourcePoint" />
            <mxPoint x="360" y="415" as="targetPoint" />
            <Array as="points" />
          </mxGeometry>
        </mxCell>
        <mxCell id="hvJsiPCnHU50Am5WqRKu-111" value="" style="edgeStyle=none;orthogonalLoop=1;jettySize=auto;html=1;rounded=0;entryX=0.5;entryY=0;entryDx=0;entryDy=0;exitX=0.5;exitY=1;exitDx=0;exitDy=0;labelBackgroundColor=none;strokeColor=#788AA3;fontColor=default;" parent="hvJsiPCnHU50Am5WqRKu-1" source="hvJsiPCnHU50Am5WqRKu-100" target="hvJsiPCnHU50Am5WqRKu-101" edge="1">
          <mxGeometry width="100" relative="1" as="geometry">
            <mxPoint x="250" y="465" as="sourcePoint" />
            <mxPoint x="350" y="465" as="targetPoint" />
            <Array as="points" />
          </mxGeometry>
        </mxCell>
        <mxCell id="hvJsiPCnHU50Am5WqRKu-112" value="" style="edgeStyle=none;orthogonalLoop=1;jettySize=auto;html=1;rounded=0;exitX=0.5;exitY=1;exitDx=0;exitDy=0;entryX=0.5;entryY=0;entryDx=0;entryDy=0;labelBackgroundColor=none;strokeColor=#788AA3;fontColor=default;" parent="hvJsiPCnHU50Am5WqRKu-1" source="hvJsiPCnHU50Am5WqRKu-101" target="hvJsiPCnHU50Am5WqRKu-102" edge="1">
          <mxGeometry width="100" relative="1" as="geometry">
            <mxPoint x="250" y="505" as="sourcePoint" />
            <mxPoint x="350" y="505" as="targetPoint" />
            <Array as="points" />
          </mxGeometry>
        </mxCell>
        <mxCell id="hvJsiPCnHU50Am5WqRKu-113" value="" style="edgeStyle=none;orthogonalLoop=1;jettySize=auto;html=1;rounded=0;exitX=0.5;exitY=1;exitDx=0;exitDy=0;entryX=0.5;entryY=0;entryDx=0;entryDy=0;labelBackgroundColor=none;strokeColor=#788AA3;fontColor=default;" parent="hvJsiPCnHU50Am5WqRKu-1" source="hvJsiPCnHU50Am5WqRKu-102" target="hvJsiPCnHU50Am5WqRKu-103" edge="1">
          <mxGeometry width="100" relative="1" as="geometry">
            <mxPoint x="340" y="575" as="sourcePoint" />
            <mxPoint x="440" y="575" as="targetPoint" />
            <Array as="points" />
          </mxGeometry>
        </mxCell>
        <mxCell id="hvJsiPCnHU50Am5WqRKu-114" value="" style="edgeStyle=none;orthogonalLoop=1;jettySize=auto;html=1;rounded=0;exitX=0.5;exitY=1;exitDx=0;exitDy=0;entryX=0.5;entryY=0;entryDx=0;entryDy=0;labelBackgroundColor=none;strokeColor=#788AA3;fontColor=default;" parent="hvJsiPCnHU50Am5WqRKu-1" source="hvJsiPCnHU50Am5WqRKu-103" target="hvJsiPCnHU50Am5WqRKu-104" edge="1">
          <mxGeometry width="100" relative="1" as="geometry">
            <mxPoint x="370" y="615" as="sourcePoint" />
            <mxPoint x="470" y="615" as="targetPoint" />
            <Array as="points" />
          </mxGeometry>
        </mxCell>
        <mxCell id="hvJsiPCnHU50Am5WqRKu-115" value="" style="edgeStyle=none;orthogonalLoop=1;jettySize=auto;html=1;rounded=0;exitX=0;exitY=0.5;exitDx=0;exitDy=0;entryX=0.5;entryY=0;entryDx=0;entryDy=0;labelBackgroundColor=none;strokeColor=#788AA3;fontColor=default;" parent="hvJsiPCnHU50Am5WqRKu-1" source="hvJsiPCnHU50Am5WqRKu-104" target="hvJsiPCnHU50Am5WqRKu-105" edge="1">
          <mxGeometry width="100" relative="1" as="geometry">
            <mxPoint x="410" y="695" as="sourcePoint" />
            <mxPoint x="510" y="695" as="targetPoint" />
            <Array as="points" />
          </mxGeometry>
        </mxCell>
        <mxCell id="hvJsiPCnHU50Am5WqRKu-116" value="" style="edgeStyle=none;orthogonalLoop=1;jettySize=auto;html=1;rounded=0;exitX=0.5;exitY=1;exitDx=0;exitDy=0;entryX=0;entryY=0;entryDx=0;entryDy=0;labelBackgroundColor=none;strokeColor=#788AA3;fontColor=default;" parent="hvJsiPCnHU50Am5WqRKu-1" source="hvJsiPCnHU50Am5WqRKu-105" target="hvJsiPCnHU50Am5WqRKu-106" edge="1">
          <mxGeometry width="100" relative="1" as="geometry">
            <mxPoint x="380" y="755" as="sourcePoint" />
            <mxPoint x="480" y="755" as="targetPoint" />
            <Array as="points" />
          </mxGeometry>
        </mxCell>
        <mxCell id="hvJsiPCnHU50Am5WqRKu-117" value="" style="edgeStyle=none;orthogonalLoop=1;jettySize=auto;html=1;rounded=0;exitX=0.5;exitY=1;exitDx=0;exitDy=0;entryX=0.5;entryY=0;entryDx=0;entryDy=0;labelBackgroundColor=none;strokeColor=#788AA3;fontColor=default;" parent="hvJsiPCnHU50Am5WqRKu-1" source="hvJsiPCnHU50Am5WqRKu-106" target="hvJsiPCnHU50Am5WqRKu-107" edge="1">
          <mxGeometry width="100" relative="1" as="geometry">
            <mxPoint x="320" y="815" as="sourcePoint" />
            <mxPoint x="420" y="815" as="targetPoint" />
            <Array as="points" />
          </mxGeometry>
        </mxCell>
        <mxCell id="hvJsiPCnHU50Am5WqRKu-118" value="" style="edgeStyle=none;orthogonalLoop=1;jettySize=auto;html=1;rounded=0;exitX=0.5;exitY=1;exitDx=0;exitDy=0;entryX=0;entryY=0.5;entryDx=0;entryDy=0;labelBackgroundColor=none;strokeColor=#788AA3;fontColor=default;" parent="hvJsiPCnHU50Am5WqRKu-1" source="hvJsiPCnHU50Am5WqRKu-99" target="hvJsiPCnHU50Am5WqRKu-107" edge="1">
          <mxGeometry width="100" relative="1" as="geometry">
            <mxPoint x="380" y="755" as="sourcePoint" />
            <mxPoint x="480" y="755" as="targetPoint" />
            <Array as="points">
              <mxPoint x="180" y="790" />
            </Array>
          </mxGeometry>
        </mxCell>
        <mxCell id="hvJsiPCnHU50Am5WqRKu-119" value="" style="edgeStyle=none;orthogonalLoop=1;jettySize=auto;html=1;rounded=0;exitX=1;exitY=0.5;exitDx=0;exitDy=0;entryX=0.5;entryY=0;entryDx=0;entryDy=0;labelBackgroundColor=none;strokeColor=#788AA3;fontColor=default;" parent="hvJsiPCnHU50Am5WqRKu-1" source="hvJsiPCnHU50Am5WqRKu-104" target="hvJsiPCnHU50Am5WqRKu-108" edge="1">
          <mxGeometry width="100" relative="1" as="geometry">
            <mxPoint x="410" y="645" as="sourcePoint" />
            <mxPoint x="510" y="645" as="targetPoint" />
            <Array as="points" />
          </mxGeometry>
        </mxCell>
        <mxCell id="hvJsiPCnHU50Am5WqRKu-120" value="" style="edgeStyle=none;orthogonalLoop=1;jettySize=auto;html=1;rounded=0;exitX=1;exitY=0.5;exitDx=0;exitDy=0;entryX=1;entryY=0.5;entryDx=0;entryDy=0;labelBackgroundColor=none;strokeColor=#788AA3;fontColor=default;" parent="hvJsiPCnHU50Am5WqRKu-1" source="hvJsiPCnHU50Am5WqRKu-108" target="hvJsiPCnHU50Am5WqRKu-102" edge="1">
          <mxGeometry width="100" relative="1" as="geometry">
            <mxPoint x="340" y="625" as="sourcePoint" />
            <mxPoint x="440" y="625" as="targetPoint" />
            <Array as="points">
              <mxPoint x="340" y="685" />
              <mxPoint x="340" y="535" />
            </Array>
          </mxGeometry>
        </mxCell>
        <mxCell id="hvJsiPCnHU50Am5WqRKu-121" value="" style="edgeStyle=none;orthogonalLoop=1;jettySize=auto;html=1;rounded=0;exitX=0.5;exitY=1;exitDx=0;exitDy=0;entryX=1;entryY=0;entryDx=0;entryDy=0;labelBackgroundColor=none;strokeColor=#788AA3;fontColor=default;" parent="hvJsiPCnHU50Am5WqRKu-1" source="hvJsiPCnHU50Am5WqRKu-108" target="hvJsiPCnHU50Am5WqRKu-106" edge="1">
          <mxGeometry width="100" relative="1" as="geometry">
            <mxPoint x="400" y="675" as="sourcePoint" />
            <mxPoint x="500" y="675" as="targetPoint" />
            <Array as="points" />
          </mxGeometry>
        </mxCell>
        <mxCell id="hvJsiPCnHU50Am5WqRKu-122" value="Sink node" style="text;html=1;align=center;verticalAlign=middle;resizable=0;points=[];autosize=1;strokeColor=none;fillColor=none;labelBackgroundColor=none;fontColor=#46495D;" parent="hvJsiPCnHU50Am5WqRKu-1" vertex="1">
          <mxGeometry x="270" y="795" width="80" height="30" as="geometry" />
        </mxCell>
        <mxCell id="DP21aYhB_NAmr29F-RRF-0" value="1" style="ellipse;whiteSpace=wrap;html=1;aspect=fixed;labelBackgroundColor=none;fillColor=#B2C9AB;strokeColor=#788AA3;fontColor=#46495D;" parent="hvJsiPCnHU50Am5WqRKu-1" vertex="1">
          <mxGeometry x="560" y="360" width="40" height="40" as="geometry" />
        </mxCell>
        <mxCell id="DP21aYhB_NAmr29F-RRF-1" value="Source node" style="text;html=1;align=center;verticalAlign=middle;resizable=0;points=[];autosize=1;strokeColor=none;fillColor=none;labelBackgroundColor=none;fontColor=#46495D;" parent="hvJsiPCnHU50Am5WqRKu-1" vertex="1">
          <mxGeometry x="590" y="347" width="90" height="30" as="geometry" />
        </mxCell>
        <mxCell id="DP21aYhB_NAmr29F-RRF-2" value="2" style="ellipse;whiteSpace=wrap;html=1;aspect=fixed;labelBackgroundColor=none;fillColor=#B2C9AB;strokeColor=#788AA3;fontColor=#46495D;" parent="hvJsiPCnHU50Am5WqRKu-1" vertex="1">
          <mxGeometry x="520" y="400" width="40" height="40" as="geometry" />
        </mxCell>
        <mxCell id="DP21aYhB_NAmr29F-RRF-3" value="3,4" style="ellipse;whiteSpace=wrap;html=1;aspect=fixed;labelBackgroundColor=none;fillColor=#ffe6cc;strokeColor=#d79b00;" parent="hvJsiPCnHU50Am5WqRKu-1" vertex="1">
          <mxGeometry x="600" y="400" width="40" height="40" as="geometry" />
        </mxCell>
        <mxCell id="DP21aYhB_NAmr29F-RRF-5" value="5" style="ellipse;whiteSpace=wrap;html=1;aspect=fixed;labelBackgroundColor=none;fillColor=#B2C9AB;strokeColor=#788AA3;fontColor=#46495D;" parent="hvJsiPCnHU50Am5WqRKu-1" vertex="1">
          <mxGeometry x="600" y="457" width="40" height="40" as="geometry" />
        </mxCell>
        <mxCell id="DP21aYhB_NAmr29F-RRF-7" value="6,7" style="ellipse;whiteSpace=wrap;html=1;aspect=fixed;labelBackgroundColor=none;fillColor=#ffe6cc;strokeColor=#d79b00;" parent="hvJsiPCnHU50Am5WqRKu-1" vertex="1">
          <mxGeometry x="600" y="512" width="40" height="40" as="geometry" />
        </mxCell>
        <mxCell id="DP21aYhB_NAmr29F-RRF-8" value="8" style="ellipse;whiteSpace=wrap;html=1;aspect=fixed;labelBackgroundColor=none;fillColor=#B2C9AB;strokeColor=#788AA3;fontColor=#46495D;" parent="hvJsiPCnHU50Am5WqRKu-1" vertex="1">
          <mxGeometry x="560" y="552" width="40" height="40" as="geometry" />
        </mxCell>
        <mxCell id="DP21aYhB_NAmr29F-RRF-9" value="10,11" style="ellipse;whiteSpace=wrap;html=1;aspect=fixed;labelBackgroundColor=none;fillColor=#ffe6cc;strokeColor=#d79b00;" parent="hvJsiPCnHU50Am5WqRKu-1" vertex="1">
          <mxGeometry x="600" y="602" width="40" height="40" as="geometry" />
        </mxCell>
        <mxCell id="DP21aYhB_NAmr29F-RRF-11" value="9" style="ellipse;whiteSpace=wrap;html=1;aspect=fixed;labelBackgroundColor=none;fillColor=#B2C9AB;strokeColor=#788AA3;fontColor=#46495D;" parent="hvJsiPCnHU50Am5WqRKu-1" vertex="1">
          <mxGeometry x="640" y="552" width="40" height="40" as="geometry" />
        </mxCell>
        <mxCell id="DP21aYhB_NAmr29F-RRF-12" value="" style="edgeStyle=none;orthogonalLoop=1;jettySize=auto;html=1;rounded=0;entryX=0.5;entryY=0;entryDx=0;entryDy=0;exitX=0;exitY=0.5;exitDx=0;exitDy=0;labelBackgroundColor=none;strokeColor=#788AA3;fontColor=default;" parent="hvJsiPCnHU50Am5WqRKu-1" source="DP21aYhB_NAmr29F-RRF-0" target="DP21aYhB_NAmr29F-RRF-2" edge="1">
          <mxGeometry width="100" relative="1" as="geometry">
            <mxPoint x="680" y="447" as="sourcePoint" />
            <mxPoint x="780" y="447" as="targetPoint" />
            <Array as="points" />
          </mxGeometry>
        </mxCell>
        <mxCell id="DP21aYhB_NAmr29F-RRF-13" value="" style="edgeStyle=none;orthogonalLoop=1;jettySize=auto;html=1;rounded=0;entryX=0.5;entryY=0;entryDx=0;entryDy=0;exitX=1;exitY=0.5;exitDx=0;exitDy=0;labelBackgroundColor=none;strokeColor=#788AA3;fontColor=default;" parent="hvJsiPCnHU50Am5WqRKu-1" source="DP21aYhB_NAmr29F-RRF-0" target="DP21aYhB_NAmr29F-RRF-3" edge="1">
          <mxGeometry width="100" relative="1" as="geometry">
            <mxPoint x="620" y="417" as="sourcePoint" />
            <mxPoint x="720" y="417" as="targetPoint" />
            <Array as="points" />
          </mxGeometry>
        </mxCell>
        <mxCell id="DP21aYhB_NAmr29F-RRF-15" value="" style="edgeStyle=none;orthogonalLoop=1;jettySize=auto;html=1;rounded=0;exitX=0.5;exitY=1;exitDx=0;exitDy=0;entryX=0.5;entryY=0;entryDx=0;entryDy=0;labelBackgroundColor=none;strokeColor=#788AA3;fontColor=default;" parent="hvJsiPCnHU50Am5WqRKu-1" target="DP21aYhB_NAmr29F-RRF-5" edge="1">
          <mxGeometry width="100" relative="1" as="geometry">
            <mxPoint x="620" y="441" as="sourcePoint" />
            <mxPoint x="710" y="447" as="targetPoint" />
            <Array as="points" />
          </mxGeometry>
        </mxCell>
        <mxCell id="DP21aYhB_NAmr29F-RRF-17" value="" style="edgeStyle=none;orthogonalLoop=1;jettySize=auto;html=1;rounded=0;exitX=0.5;exitY=1;exitDx=0;exitDy=0;entryX=0.5;entryY=0;entryDx=0;entryDy=0;labelBackgroundColor=none;strokeColor=#788AA3;fontColor=default;" parent="hvJsiPCnHU50Am5WqRKu-1" target="DP21aYhB_NAmr29F-RRF-7" edge="1">
          <mxGeometry width="100" relative="1" as="geometry">
            <mxPoint x="620" y="497" as="sourcePoint" />
            <mxPoint x="830" y="502" as="targetPoint" />
            <Array as="points" />
          </mxGeometry>
        </mxCell>
        <mxCell id="DP21aYhB_NAmr29F-RRF-18" value="" style="edgeStyle=none;orthogonalLoop=1;jettySize=auto;html=1;rounded=0;exitX=0;exitY=0.5;exitDx=0;exitDy=0;entryX=0.5;entryY=0;entryDx=0;entryDy=0;labelBackgroundColor=none;strokeColor=#788AA3;fontColor=default;" parent="hvJsiPCnHU50Am5WqRKu-1" source="DP21aYhB_NAmr29F-RRF-7" target="DP21aYhB_NAmr29F-RRF-8" edge="1">
          <mxGeometry width="100" relative="1" as="geometry">
            <mxPoint x="770" y="582" as="sourcePoint" />
            <mxPoint x="870" y="582" as="targetPoint" />
            <Array as="points" />
          </mxGeometry>
        </mxCell>
        <mxCell id="DP21aYhB_NAmr29F-RRF-19" value="" style="edgeStyle=none;orthogonalLoop=1;jettySize=auto;html=1;rounded=0;exitX=0.5;exitY=1;exitDx=0;exitDy=0;entryX=0;entryY=0;entryDx=0;entryDy=0;labelBackgroundColor=none;strokeColor=#788AA3;fontColor=default;" parent="hvJsiPCnHU50Am5WqRKu-1" source="DP21aYhB_NAmr29F-RRF-8" target="DP21aYhB_NAmr29F-RRF-9" edge="1">
          <mxGeometry width="100" relative="1" as="geometry">
            <mxPoint x="740" y="642" as="sourcePoint" />
            <mxPoint x="840" y="642" as="targetPoint" />
            <Array as="points" />
          </mxGeometry>
        </mxCell>
        <mxCell id="DP21aYhB_NAmr29F-RRF-21" value="" style="edgeStyle=none;orthogonalLoop=1;jettySize=auto;html=1;rounded=0;exitX=0.5;exitY=1;exitDx=0;exitDy=0;entryX=0;entryY=0.5;entryDx=0;entryDy=0;labelBackgroundColor=none;strokeColor=#788AA3;fontColor=default;" parent="hvJsiPCnHU50Am5WqRKu-1" source="DP21aYhB_NAmr29F-RRF-2" target="DP21aYhB_NAmr29F-RRF-9" edge="1">
          <mxGeometry width="100" relative="1" as="geometry">
            <mxPoint x="740" y="757" as="sourcePoint" />
            <mxPoint x="600" y="677" as="targetPoint" />
            <Array as="points">
              <mxPoint x="540" y="622" />
            </Array>
          </mxGeometry>
        </mxCell>
        <mxCell id="DP21aYhB_NAmr29F-RRF-22" value="" style="edgeStyle=none;orthogonalLoop=1;jettySize=auto;html=1;rounded=0;exitX=1;exitY=0.5;exitDx=0;exitDy=0;entryX=0.5;entryY=0;entryDx=0;entryDy=0;labelBackgroundColor=none;strokeColor=#788AA3;fontColor=default;" parent="hvJsiPCnHU50Am5WqRKu-1" source="DP21aYhB_NAmr29F-RRF-7" target="DP21aYhB_NAmr29F-RRF-11" edge="1">
          <mxGeometry width="100" relative="1" as="geometry">
            <mxPoint x="770" y="532" as="sourcePoint" />
            <mxPoint x="870" y="532" as="targetPoint" />
            <Array as="points" />
          </mxGeometry>
        </mxCell>
        <mxCell id="DP21aYhB_NAmr29F-RRF-23" value="" style="edgeStyle=none;orthogonalLoop=1;jettySize=auto;html=1;rounded=0;exitX=1;exitY=0.5;exitDx=0;exitDy=0;entryX=1;entryY=0.5;entryDx=0;entryDy=0;labelBackgroundColor=none;strokeColor=#788AA3;fontColor=default;" parent="hvJsiPCnHU50Am5WqRKu-1" source="DP21aYhB_NAmr29F-RRF-11" target="DP21aYhB_NAmr29F-RRF-5" edge="1">
          <mxGeometry width="100" relative="1" as="geometry">
            <mxPoint x="700" y="567" as="sourcePoint" />
            <mxPoint x="800" y="567" as="targetPoint" />
            <Array as="points">
              <mxPoint x="700" y="572" />
              <mxPoint x="700" y="477" />
            </Array>
          </mxGeometry>
        </mxCell>
        <mxCell id="DP21aYhB_NAmr29F-RRF-24" value="" style="edgeStyle=none;orthogonalLoop=1;jettySize=auto;html=1;rounded=0;exitX=0.5;exitY=1;exitDx=0;exitDy=0;entryX=1;entryY=0;entryDx=0;entryDy=0;labelBackgroundColor=none;strokeColor=#788AA3;fontColor=default;" parent="hvJsiPCnHU50Am5WqRKu-1" source="DP21aYhB_NAmr29F-RRF-11" target="DP21aYhB_NAmr29F-RRF-9" edge="1">
          <mxGeometry width="100" relative="1" as="geometry">
            <mxPoint x="760" y="562" as="sourcePoint" />
            <mxPoint x="860" y="562" as="targetPoint" />
            <Array as="points" />
          </mxGeometry>
        </mxCell>
        <mxCell id="DP21aYhB_NAmr29F-RRF-25" value="Sink node" style="text;html=1;align=center;verticalAlign=middle;resizable=0;points=[];autosize=1;strokeColor=none;fillColor=none;labelBackgroundColor=none;fontColor=#46495D;" parent="hvJsiPCnHU50Am5WqRKu-1" vertex="1">
          <mxGeometry x="630" y="627" width="80" height="30" as="geometry" />
        </mxCell>
        <mxCell id="DP21aYhB_NAmr29F-RRF-26" value="1" style="ellipse;whiteSpace=wrap;html=1;aspect=fixed;labelBackgroundColor=none;fillColor=#B2C9AB;strokeColor=#788AA3;fontColor=#46495D;" parent="hvJsiPCnHU50Am5WqRKu-1" vertex="1">
          <mxGeometry x="936" y="360" width="40" height="40" as="geometry" />
        </mxCell>
        <mxCell id="DP21aYhB_NAmr29F-RRF-27" value="Source node" style="text;html=1;align=center;verticalAlign=middle;resizable=0;points=[];autosize=1;strokeColor=none;fillColor=none;labelBackgroundColor=none;fontColor=#46495D;" parent="hvJsiPCnHU50Am5WqRKu-1" vertex="1">
          <mxGeometry x="966" y="344" width="90" height="30" as="geometry" />
        </mxCell>
        <mxCell id="DP21aYhB_NAmr29F-RRF-28" value="2" style="ellipse;whiteSpace=wrap;html=1;aspect=fixed;labelBackgroundColor=none;fillColor=#B2C9AB;strokeColor=#788AA3;fontColor=#46495D;" parent="hvJsiPCnHU50Am5WqRKu-1" vertex="1">
          <mxGeometry x="896" y="400" width="40" height="40" as="geometry" />
        </mxCell>
        <mxCell id="DP21aYhB_NAmr29F-RRF-29" value="3-5" style="ellipse;whiteSpace=wrap;html=1;aspect=fixed;labelBackgroundColor=none;fillColor=#ffe6cc;strokeColor=#d79b00;" parent="hvJsiPCnHU50Am5WqRKu-1" vertex="1">
          <mxGeometry x="976" y="400" width="40" height="40" as="geometry" />
        </mxCell>
        <mxCell id="DP21aYhB_NAmr29F-RRF-31" value="6,7" style="ellipse;whiteSpace=wrap;html=1;aspect=fixed;labelBackgroundColor=none;fillColor=#ffe6cc;strokeColor=#d79b00;" parent="hvJsiPCnHU50Am5WqRKu-1" vertex="1">
          <mxGeometry x="976" y="455" width="40" height="40" as="geometry" />
        </mxCell>
        <mxCell id="DP21aYhB_NAmr29F-RRF-32" value="8" style="ellipse;whiteSpace=wrap;html=1;aspect=fixed;labelBackgroundColor=none;fillColor=#B2C9AB;strokeColor=#788AA3;fontColor=#46495D;" parent="hvJsiPCnHU50Am5WqRKu-1" vertex="1">
          <mxGeometry x="936" y="495" width="40" height="40" as="geometry" />
        </mxCell>
        <mxCell id="DP21aYhB_NAmr29F-RRF-33" value="10,11" style="ellipse;whiteSpace=wrap;html=1;aspect=fixed;labelBackgroundColor=none;fillColor=#ffe6cc;strokeColor=#d79b00;" parent="hvJsiPCnHU50Am5WqRKu-1" vertex="1">
          <mxGeometry x="976" y="545" width="40" height="40" as="geometry" />
        </mxCell>
        <mxCell id="DP21aYhB_NAmr29F-RRF-34" value="9" style="ellipse;whiteSpace=wrap;html=1;aspect=fixed;labelBackgroundColor=none;fillColor=#B2C9AB;strokeColor=#788AA3;fontColor=#46495D;" parent="hvJsiPCnHU50Am5WqRKu-1" vertex="1">
          <mxGeometry x="1016" y="495" width="40" height="40" as="geometry" />
        </mxCell>
        <mxCell id="DP21aYhB_NAmr29F-RRF-35" value="" style="edgeStyle=none;orthogonalLoop=1;jettySize=auto;html=1;rounded=0;entryX=0.5;entryY=0;entryDx=0;entryDy=0;exitX=0;exitY=0.5;exitDx=0;exitDy=0;labelBackgroundColor=none;strokeColor=#788AA3;fontColor=default;" parent="hvJsiPCnHU50Am5WqRKu-1" source="DP21aYhB_NAmr29F-RRF-26" target="DP21aYhB_NAmr29F-RRF-28" edge="1">
          <mxGeometry width="100" relative="1" as="geometry">
            <mxPoint x="1056" y="447" as="sourcePoint" />
            <mxPoint x="1156" y="447" as="targetPoint" />
            <Array as="points" />
          </mxGeometry>
        </mxCell>
        <mxCell id="DP21aYhB_NAmr29F-RRF-36" value="" style="edgeStyle=none;orthogonalLoop=1;jettySize=auto;html=1;rounded=0;entryX=0.5;entryY=0;entryDx=0;entryDy=0;exitX=1;exitY=0.5;exitDx=0;exitDy=0;labelBackgroundColor=none;strokeColor=#788AA3;fontColor=default;" parent="hvJsiPCnHU50Am5WqRKu-1" source="DP21aYhB_NAmr29F-RRF-26" target="DP21aYhB_NAmr29F-RRF-29" edge="1">
          <mxGeometry width="100" relative="1" as="geometry">
            <mxPoint x="996" y="417" as="sourcePoint" />
            <mxPoint x="1096" y="417" as="targetPoint" />
            <Array as="points" />
          </mxGeometry>
        </mxCell>
        <mxCell id="DP21aYhB_NAmr29F-RRF-38" value="" style="edgeStyle=none;orthogonalLoop=1;jettySize=auto;html=1;rounded=0;exitX=0.5;exitY=1;exitDx=0;exitDy=0;entryX=0.5;entryY=0;entryDx=0;entryDy=0;labelBackgroundColor=none;strokeColor=#788AA3;fontColor=default;" parent="hvJsiPCnHU50Am5WqRKu-1" target="DP21aYhB_NAmr29F-RRF-31" edge="1">
          <mxGeometry width="100" relative="1" as="geometry">
            <mxPoint x="996" y="440" as="sourcePoint" />
            <mxPoint x="1206" y="445" as="targetPoint" />
            <Array as="points" />
          </mxGeometry>
        </mxCell>
        <mxCell id="DP21aYhB_NAmr29F-RRF-39" value="" style="edgeStyle=none;orthogonalLoop=1;jettySize=auto;html=1;rounded=0;exitX=0;exitY=0.5;exitDx=0;exitDy=0;entryX=0.5;entryY=0;entryDx=0;entryDy=0;labelBackgroundColor=none;strokeColor=#788AA3;fontColor=default;" parent="hvJsiPCnHU50Am5WqRKu-1" source="DP21aYhB_NAmr29F-RRF-31" target="DP21aYhB_NAmr29F-RRF-32" edge="1">
          <mxGeometry width="100" relative="1" as="geometry">
            <mxPoint x="1146" y="525" as="sourcePoint" />
            <mxPoint x="1246" y="525" as="targetPoint" />
            <Array as="points" />
          </mxGeometry>
        </mxCell>
        <mxCell id="DP21aYhB_NAmr29F-RRF-40" value="" style="edgeStyle=none;orthogonalLoop=1;jettySize=auto;html=1;rounded=0;exitX=0.5;exitY=1;exitDx=0;exitDy=0;entryX=0;entryY=0;entryDx=0;entryDy=0;labelBackgroundColor=none;strokeColor=#788AA3;fontColor=default;" parent="hvJsiPCnHU50Am5WqRKu-1" source="DP21aYhB_NAmr29F-RRF-32" target="DP21aYhB_NAmr29F-RRF-33" edge="1">
          <mxGeometry width="100" relative="1" as="geometry">
            <mxPoint x="1116" y="585" as="sourcePoint" />
            <mxPoint x="1216" y="585" as="targetPoint" />
            <Array as="points" />
          </mxGeometry>
        </mxCell>
        <mxCell id="DP21aYhB_NAmr29F-RRF-41" value="" style="edgeStyle=none;orthogonalLoop=1;jettySize=auto;html=1;rounded=0;exitX=0.5;exitY=1;exitDx=0;exitDy=0;entryX=0;entryY=0.5;entryDx=0;entryDy=0;labelBackgroundColor=none;strokeColor=#788AA3;fontColor=default;" parent="hvJsiPCnHU50Am5WqRKu-1" source="DP21aYhB_NAmr29F-RRF-28" target="DP21aYhB_NAmr29F-RRF-33" edge="1">
          <mxGeometry width="100" relative="1" as="geometry">
            <mxPoint x="1116" y="757" as="sourcePoint" />
            <mxPoint x="976" y="677" as="targetPoint" />
            <Array as="points">
              <mxPoint x="916" y="565" />
            </Array>
          </mxGeometry>
        </mxCell>
        <mxCell id="DP21aYhB_NAmr29F-RRF-42" value="" style="edgeStyle=none;orthogonalLoop=1;jettySize=auto;html=1;rounded=0;exitX=1;exitY=0.5;exitDx=0;exitDy=0;entryX=0.5;entryY=0;entryDx=0;entryDy=0;labelBackgroundColor=none;strokeColor=#788AA3;fontColor=default;" parent="hvJsiPCnHU50Am5WqRKu-1" source="DP21aYhB_NAmr29F-RRF-31" target="DP21aYhB_NAmr29F-RRF-34" edge="1">
          <mxGeometry width="100" relative="1" as="geometry">
            <mxPoint x="1146" y="475" as="sourcePoint" />
            <mxPoint x="1246" y="475" as="targetPoint" />
            <Array as="points" />
          </mxGeometry>
        </mxCell>
        <mxCell id="DP21aYhB_NAmr29F-RRF-43" value="" style="edgeStyle=none;orthogonalLoop=1;jettySize=auto;html=1;rounded=0;exitX=1;exitY=0.5;exitDx=0;exitDy=0;entryX=1;entryY=0.5;entryDx=0;entryDy=0;labelBackgroundColor=none;strokeColor=#788AA3;fontColor=default;" parent="hvJsiPCnHU50Am5WqRKu-1" source="DP21aYhB_NAmr29F-RRF-34" edge="1">
          <mxGeometry width="100" relative="1" as="geometry">
            <mxPoint x="1076" y="510" as="sourcePoint" />
            <mxPoint x="1016" y="420" as="targetPoint" />
            <Array as="points">
              <mxPoint x="1076" y="515" />
              <mxPoint x="1076" y="420" />
            </Array>
          </mxGeometry>
        </mxCell>
        <mxCell id="DP21aYhB_NAmr29F-RRF-44" value="" style="edgeStyle=none;orthogonalLoop=1;jettySize=auto;html=1;rounded=0;exitX=0.5;exitY=1;exitDx=0;exitDy=0;entryX=1;entryY=0;entryDx=0;entryDy=0;labelBackgroundColor=none;strokeColor=#788AA3;fontColor=default;" parent="hvJsiPCnHU50Am5WqRKu-1" source="DP21aYhB_NAmr29F-RRF-34" target="DP21aYhB_NAmr29F-RRF-33" edge="1">
          <mxGeometry width="100" relative="1" as="geometry">
            <mxPoint x="1136" y="505" as="sourcePoint" />
            <mxPoint x="1236" y="505" as="targetPoint" />
            <Array as="points" />
          </mxGeometry>
        </mxCell>
        <mxCell id="DP21aYhB_NAmr29F-RRF-45" value="Sink node" style="text;html=1;align=center;verticalAlign=middle;resizable=0;points=[];autosize=1;strokeColor=none;fillColor=none;labelBackgroundColor=none;fontColor=#46495D;" parent="hvJsiPCnHU50Am5WqRKu-1" vertex="1">
          <mxGeometry x="1006" y="570" width="80" height="30" as="geometry" />
        </mxCell>
        <mxCell id="DTv07IdPpkikq8_U2gNK-69" value="MCDC relevant test cases (c.f. excel file)" style="shape=table;startSize=30;container=1;collapsible=0;childLayout=tableLayout;fillColor=#d5e8d4;strokeColor=#82b366;fontStyle=1;swimlaneFillColor=#FFFFFF;fontColor=#000000;whiteSpace=wrap;html=1;" parent="hvJsiPCnHU50Am5WqRKu-1" vertex="1">
          <mxGeometry x="640" width="360" height="270" as="geometry" />
        </mxCell>
        <mxCell id="DTv07IdPpkikq8_U2gNK-70" value="" style="shape=tableRow;horizontal=0;startSize=0;swimlaneHead=0;swimlaneBody=0;strokeColor=inherit;top=0;left=0;bottom=0;right=0;collapsible=0;dropTarget=0;fillColor=inherit;points=[[0,0.5],[1,0.5]];portConstraint=eastwest;fontSize=16;fontColor=#000000;" parent="DTv07IdPpkikq8_U2gNK-69" vertex="1">
          <mxGeometry y="30" width="360" height="30" as="geometry" />
        </mxCell>
        <mxCell id="DTv07IdPpkikq8_U2gNK-71" value="startDate" style="html=1;whiteSpace=wrap;connectable=0;strokeColor=inherit;overflow=hidden;fillColor=none;pointerEvents=1;fontColor=#000000;fontStyle=1" parent="DTv07IdPpkikq8_U2gNK-70" vertex="1">
          <mxGeometry width="173" height="30" as="geometry">
            <mxRectangle width="173" height="30" as="alternateBounds" />
          </mxGeometry>
        </mxCell>
        <mxCell id="DTv07IdPpkikq8_U2gNK-72" value="endDate" style="html=1;whiteSpace=wrap;connectable=0;strokeColor=inherit;overflow=hidden;fillColor=none;pointerEvents=1;fontColor=#000000;fontStyle=1" parent="DTv07IdPpkikq8_U2gNK-70" vertex="1">
          <mxGeometry x="173" width="187" height="30" as="geometry">
            <mxRectangle width="187" height="30" as="alternateBounds" />
          </mxGeometry>
        </mxCell>
        <mxCell id="DTv07IdPpkikq8_U2gNK-73" value="" style="shape=tableRow;horizontal=0;startSize=0;swimlaneHead=0;swimlaneBody=0;strokeColor=inherit;top=0;left=0;bottom=0;right=0;collapsible=0;dropTarget=0;fillColor=none;points=[[0,0.5],[1,0.5]];portConstraint=eastwest;fontSize=16;fontColor=#000000;" parent="DTv07IdPpkikq8_U2gNK-69" vertex="1">
          <mxGeometry y="60" width="360" height="30" as="geometry" />
        </mxCell>
        <mxCell id="DTv07IdPpkikq8_U2gNK-74" value="Today + 1" style="html=1;whiteSpace=wrap;connectable=0;strokeColor=inherit;overflow=hidden;fillColor=none;pointerEvents=1;fontColor=#000000;fontStyle=1" parent="DTv07IdPpkikq8_U2gNK-73" vertex="1">
          <mxGeometry width="173" height="30" as="geometry">
            <mxRectangle width="173" height="30" as="alternateBounds" />
          </mxGeometry>
        </mxCell>
        <mxCell id="DTv07IdPpkikq8_U2gNK-75" value="Today" style="html=1;whiteSpace=wrap;connectable=0;strokeColor=inherit;overflow=hidden;fillColor=none;pointerEvents=1;fontColor=#000000;fontStyle=1" parent="DTv07IdPpkikq8_U2gNK-73" vertex="1">
          <mxGeometry x="173" width="187" height="30" as="geometry">
            <mxRectangle width="187" height="30" as="alternateBounds" />
          </mxGeometry>
        </mxCell>
        <mxCell id="DTv07IdPpkikq8_U2gNK-76" value="" style="shape=tableRow;horizontal=0;startSize=0;swimlaneHead=0;swimlaneBody=0;strokeColor=inherit;top=0;left=0;bottom=0;right=0;collapsible=0;dropTarget=0;fillColor=none;points=[[0,0.5],[1,0.5]];portConstraint=eastwest;fontSize=16;fontColor=#000000;" parent="DTv07IdPpkikq8_U2gNK-69" vertex="1">
          <mxGeometry y="90" width="360" height="30" as="geometry" />
        </mxCell>
        <mxCell id="DTv07IdPpkikq8_U2gNK-77" value="Today" style="html=1;whiteSpace=wrap;connectable=0;strokeColor=inherit;overflow=hidden;fillColor=none;pointerEvents=1;fontColor=#000000;fontStyle=1" parent="DTv07IdPpkikq8_U2gNK-76" vertex="1">
          <mxGeometry width="173" height="30" as="geometry">
            <mxRectangle width="173" height="30" as="alternateBounds" />
          </mxGeometry>
        </mxCell>
        <mxCell id="DTv07IdPpkikq8_U2gNK-78" value="any valid input of endDate due to short circuit evaluation" style="html=1;whiteSpace=wrap;connectable=0;strokeColor=inherit;overflow=hidden;fillColor=none;pointerEvents=1;fontColor=#000000;fontStyle=1" parent="DTv07IdPpkikq8_U2gNK-76" vertex="1">
          <mxGeometry x="173" width="187" height="30" as="geometry">
            <mxRectangle width="187" height="30" as="alternateBounds" />
          </mxGeometry>
        </mxCell>
        <mxCell id="DTv07IdPpkikq8_U2gNK-79" value="" style="shape=tableRow;horizontal=0;startSize=0;swimlaneHead=0;swimlaneBody=0;strokeColor=inherit;top=0;left=0;bottom=0;right=0;collapsible=0;dropTarget=0;fillColor=none;points=[[0,0.5],[1,0.5]];portConstraint=eastwest;fontSize=16;fontColor=#000000;" parent="DTv07IdPpkikq8_U2gNK-69" vertex="1">
          <mxGeometry y="120" width="360" height="30" as="geometry" />
        </mxCell>
        <mxCell id="DTv07IdPpkikq8_U2gNK-80" value="b.EndDate" style="html=1;whiteSpace=wrap;connectable=0;strokeColor=inherit;overflow=hidden;fillColor=none;pointerEvents=1;fontColor=#000000;fontStyle=1" parent="DTv07IdPpkikq8_U2gNK-79" vertex="1">
          <mxGeometry width="173" height="30" as="geometry">
            <mxRectangle width="173" height="30" as="alternateBounds" />
          </mxGeometry>
        </mxCell>
        <mxCell id="DTv07IdPpkikq8_U2gNK-81" value="any valid endDate due to short circuit evaluation&amp;nbsp;" style="html=1;whiteSpace=wrap;connectable=0;strokeColor=inherit;overflow=hidden;fillColor=none;pointerEvents=1;fontColor=#000000;fontStyle=1" parent="DTv07IdPpkikq8_U2gNK-79" vertex="1">
          <mxGeometry x="173" width="187" height="30" as="geometry">
            <mxRectangle width="187" height="30" as="alternateBounds" />
          </mxGeometry>
        </mxCell>
        <mxCell id="DTv07IdPpkikq8_U2gNK-82" value="" style="shape=tableRow;horizontal=0;startSize=0;swimlaneHead=0;swimlaneBody=0;strokeColor=inherit;top=0;left=0;bottom=0;right=0;collapsible=0;dropTarget=0;fillColor=none;points=[[0,0.5],[1,0.5]];portConstraint=eastwest;fontSize=16;fontColor=#000000;" parent="DTv07IdPpkikq8_U2gNK-69" vertex="1">
          <mxGeometry y="150" width="360" height="30" as="geometry" />
        </mxCell>
        <mxCell id="DTv07IdPpkikq8_U2gNK-83" value="b.EndDate + 1" style="html=1;whiteSpace=wrap;connectable=0;strokeColor=inherit;overflow=hidden;fillColor=none;pointerEvents=1;fontColor=#000000;fontStyle=1" parent="DTv07IdPpkikq8_U2gNK-82" vertex="1">
          <mxGeometry width="173" height="30" as="geometry">
            <mxRectangle width="173" height="30" as="alternateBounds" />
          </mxGeometry>
        </mxCell>
        <mxCell id="DTv07IdPpkikq8_U2gNK-84" value="b.EndDate" style="html=1;whiteSpace=wrap;connectable=0;strokeColor=inherit;overflow=hidden;fillColor=none;pointerEvents=1;fontColor=#000000;fontStyle=1" parent="DTv07IdPpkikq8_U2gNK-82" vertex="1">
          <mxGeometry x="173" width="187" height="30" as="geometry">
            <mxRectangle width="187" height="30" as="alternateBounds" />
          </mxGeometry>
        </mxCell>
        <mxCell id="DTv07IdPpkikq8_U2gNK-85" value="" style="shape=tableRow;horizontal=0;startSize=0;swimlaneHead=0;swimlaneBody=0;strokeColor=inherit;top=0;left=0;bottom=0;right=0;collapsible=0;dropTarget=0;fillColor=none;points=[[0,0.5],[1,0.5]];portConstraint=eastwest;fontSize=16;fontColor=#000000;" parent="DTv07IdPpkikq8_U2gNK-69" vertex="1">
          <mxGeometry y="180" width="360" height="30" as="geometry" />
        </mxCell>
        <mxCell id="DTv07IdPpkikq8_U2gNK-86" value="b.EndDate + 1" style="html=1;whiteSpace=wrap;connectable=0;strokeColor=inherit;overflow=hidden;fillColor=none;pointerEvents=1;fontColor=#000000;fontStyle=1" parent="DTv07IdPpkikq8_U2gNK-85" vertex="1">
          <mxGeometry width="173" height="30" as="geometry">
            <mxRectangle width="173" height="30" as="alternateBounds" />
          </mxGeometry>
        </mxCell>
        <mxCell id="DTv07IdPpkikq8_U2gNK-87" value="b.EndDate + 1" style="html=1;whiteSpace=wrap;connectable=0;strokeColor=inherit;overflow=hidden;fillColor=none;pointerEvents=1;fontColor=#000000;fontStyle=1" parent="DTv07IdPpkikq8_U2gNK-85" vertex="1">
          <mxGeometry x="173" width="187" height="30" as="geometry">
            <mxRectangle width="187" height="30" as="alternateBounds" />
          </mxGeometry>
        </mxCell>
        <mxCell id="DTv07IdPpkikq8_U2gNK-107" value="" style="shape=tableRow;horizontal=0;startSize=0;swimlaneHead=0;swimlaneBody=0;strokeColor=inherit;top=0;left=0;bottom=0;right=0;collapsible=0;dropTarget=0;fillColor=none;points=[[0,0.5],[1,0.5]];portConstraint=eastwest;fontSize=16;fontColor=#000000;" parent="DTv07IdPpkikq8_U2gNK-69" vertex="1">
          <mxGeometry y="210" width="360" height="30" as="geometry" />
        </mxCell>
        <mxCell id="DTv07IdPpkikq8_U2gNK-108" value="b.StartDate - 1" style="html=1;whiteSpace=wrap;connectable=0;strokeColor=inherit;overflow=hidden;fillColor=none;pointerEvents=1;fontColor=#000000;fontStyle=1" parent="DTv07IdPpkikq8_U2gNK-107" vertex="1">
          <mxGeometry width="173" height="30" as="geometry">
            <mxRectangle width="173" height="30" as="alternateBounds" />
          </mxGeometry>
        </mxCell>
        <mxCell id="DTv07IdPpkikq8_U2gNK-109" value="b.StartDate" style="html=1;whiteSpace=wrap;connectable=0;strokeColor=inherit;overflow=hidden;fillColor=none;pointerEvents=1;fontColor=#000000;fontStyle=1" parent="DTv07IdPpkikq8_U2gNK-107" vertex="1">
          <mxGeometry x="173" width="187" height="30" as="geometry">
            <mxRectangle width="187" height="30" as="alternateBounds" />
          </mxGeometry>
        </mxCell>
        <mxCell id="DTv07IdPpkikq8_U2gNK-110" value="" style="shape=tableRow;horizontal=0;startSize=0;swimlaneHead=0;swimlaneBody=0;strokeColor=inherit;top=0;left=0;bottom=0;right=0;collapsible=0;dropTarget=0;fillColor=none;points=[[0,0.5],[1,0.5]];portConstraint=eastwest;fontSize=16;fontColor=#000000;" parent="DTv07IdPpkikq8_U2gNK-69" vertex="1">
          <mxGeometry y="240" width="360" height="30" as="geometry" />
        </mxCell>
        <mxCell id="DTv07IdPpkikq8_U2gNK-111" value="b.StartDate - 1" style="html=1;whiteSpace=wrap;connectable=0;strokeColor=inherit;overflow=hidden;fillColor=none;pointerEvents=1;fontColor=#000000;fontStyle=1" parent="DTv07IdPpkikq8_U2gNK-110" vertex="1">
          <mxGeometry width="173" height="30" as="geometry">
            <mxRectangle width="173" height="30" as="alternateBounds" />
          </mxGeometry>
        </mxCell>
        <mxCell id="DTv07IdPpkikq8_U2gNK-112" value="b.StartDate - 1" style="html=1;whiteSpace=wrap;connectable=0;strokeColor=inherit;overflow=hidden;fillColor=none;pointerEvents=1;fontColor=#000000;fontStyle=1" parent="DTv07IdPpkikq8_U2gNK-110" vertex="1">
          <mxGeometry x="173" width="187" height="30" as="geometry">
            <mxRectangle width="187" height="30" as="alternateBounds" />
          </mxGeometry>
        </mxCell>
        <mxCell id="DTv07IdPpkikq8_U2gNK-120" value="1" style="ellipse;whiteSpace=wrap;html=1;aspect=fixed;labelBackgroundColor=none;fillColor=#B2C9AB;strokeColor=#788AA3;fontColor=#46495D;" parent="hvJsiPCnHU50Am5WqRKu-1" vertex="1">
          <mxGeometry x="480" y="-297" width="40" height="40" as="geometry" />
        </mxCell>
        <mxCell id="DTv07IdPpkikq8_U2gNK-122" value="2" style="ellipse;whiteSpace=wrap;html=1;aspect=fixed;labelBackgroundColor=none;fillColor=#B2C9AB;strokeColor=#788AA3;fontColor=#46495D;" parent="hvJsiPCnHU50Am5WqRKu-1" vertex="1">
          <mxGeometry x="440" y="-257" width="40" height="40" as="geometry" />
        </mxCell>
        <mxCell id="DTv07IdPpkikq8_U2gNK-123" value="3,4" style="ellipse;whiteSpace=wrap;html=1;aspect=fixed;labelBackgroundColor=none;fillColor=#ffe6cc;strokeColor=#d79b00;" parent="hvJsiPCnHU50Am5WqRKu-1" vertex="1">
          <mxGeometry x="520" y="-257" width="40" height="40" as="geometry" />
        </mxCell>
        <mxCell id="DTv07IdPpkikq8_U2gNK-124" value="5" style="ellipse;whiteSpace=wrap;html=1;aspect=fixed;labelBackgroundColor=none;fillColor=#B2C9AB;strokeColor=#788AA3;fontColor=#46495D;" parent="hvJsiPCnHU50Am5WqRKu-1" vertex="1">
          <mxGeometry x="520" y="-200" width="40" height="40" as="geometry" />
        </mxCell>
        <mxCell id="DTv07IdPpkikq8_U2gNK-125" value="6,7" style="ellipse;whiteSpace=wrap;html=1;aspect=fixed;labelBackgroundColor=none;fillColor=#ffe6cc;strokeColor=#d79b00;" parent="hvJsiPCnHU50Am5WqRKu-1" vertex="1">
          <mxGeometry x="520" y="-145" width="40" height="40" as="geometry" />
        </mxCell>
        <mxCell id="DTv07IdPpkikq8_U2gNK-126" value="8" style="ellipse;whiteSpace=wrap;html=1;aspect=fixed;labelBackgroundColor=none;fillColor=#B2C9AB;strokeColor=#788AA3;fontColor=#46495D;" parent="hvJsiPCnHU50Am5WqRKu-1" vertex="1">
          <mxGeometry x="480" y="-105" width="40" height="40" as="geometry" />
        </mxCell>
        <mxCell id="DTv07IdPpkikq8_U2gNK-127" value="10,11" style="ellipse;whiteSpace=wrap;html=1;aspect=fixed;labelBackgroundColor=none;fillColor=#ffe6cc;strokeColor=#d79b00;" parent="hvJsiPCnHU50Am5WqRKu-1" vertex="1">
          <mxGeometry x="520" y="-55" width="40" height="40" as="geometry" />
        </mxCell>
        <mxCell id="DTv07IdPpkikq8_U2gNK-128" value="9" style="ellipse;whiteSpace=wrap;html=1;aspect=fixed;labelBackgroundColor=none;fillColor=#B2C9AB;strokeColor=#788AA3;fontColor=#46495D;" parent="hvJsiPCnHU50Am5WqRKu-1" vertex="1">
          <mxGeometry x="560" y="-105" width="40" height="40" as="geometry" />
        </mxCell>
        <mxCell id="DTv07IdPpkikq8_U2gNK-129" value="" style="edgeStyle=none;orthogonalLoop=1;jettySize=auto;html=1;rounded=0;entryX=0.5;entryY=0;entryDx=0;entryDy=0;exitX=0;exitY=0.5;exitDx=0;exitDy=0;labelBackgroundColor=none;strokeColor=#788AA3;fontColor=default;" parent="hvJsiPCnHU50Am5WqRKu-1" source="DTv07IdPpkikq8_U2gNK-120" target="DTv07IdPpkikq8_U2gNK-122" edge="1">
          <mxGeometry width="100" relative="1" as="geometry">
            <mxPoint x="600" y="-210" as="sourcePoint" />
            <mxPoint x="700" y="-210" as="targetPoint" />
            <Array as="points" />
          </mxGeometry>
        </mxCell>
        <mxCell id="DTv07IdPpkikq8_U2gNK-130" value="" style="edgeStyle=none;orthogonalLoop=1;jettySize=auto;html=1;rounded=0;entryX=0.5;entryY=0;entryDx=0;entryDy=0;exitX=1;exitY=0.5;exitDx=0;exitDy=0;labelBackgroundColor=none;strokeColor=#788AA3;fontColor=default;" parent="hvJsiPCnHU50Am5WqRKu-1" source="DTv07IdPpkikq8_U2gNK-120" target="DTv07IdPpkikq8_U2gNK-123" edge="1">
          <mxGeometry width="100" relative="1" as="geometry">
            <mxPoint x="540" y="-240" as="sourcePoint" />
            <mxPoint x="640" y="-240" as="targetPoint" />
            <Array as="points" />
          </mxGeometry>
        </mxCell>
        <mxCell id="DTv07IdPpkikq8_U2gNK-131" value="" style="edgeStyle=none;orthogonalLoop=1;jettySize=auto;html=1;rounded=0;exitX=0.5;exitY=1;exitDx=0;exitDy=0;entryX=0.5;entryY=0;entryDx=0;entryDy=0;labelBackgroundColor=none;strokeColor=#788AA3;fontColor=default;" parent="hvJsiPCnHU50Am5WqRKu-1" target="DTv07IdPpkikq8_U2gNK-124" edge="1">
          <mxGeometry width="100" relative="1" as="geometry">
            <mxPoint x="540" y="-216" as="sourcePoint" />
            <mxPoint x="630" y="-210" as="targetPoint" />
            <Array as="points" />
          </mxGeometry>
        </mxCell>
        <mxCell id="DTv07IdPpkikq8_U2gNK-132" value="" style="edgeStyle=none;orthogonalLoop=1;jettySize=auto;html=1;rounded=0;exitX=0.5;exitY=1;exitDx=0;exitDy=0;entryX=0.5;entryY=0;entryDx=0;entryDy=0;labelBackgroundColor=none;strokeColor=#788AA3;fontColor=default;" parent="hvJsiPCnHU50Am5WqRKu-1" target="DTv07IdPpkikq8_U2gNK-125" edge="1">
          <mxGeometry width="100" relative="1" as="geometry">
            <mxPoint x="540" y="-160" as="sourcePoint" />
            <mxPoint x="750" y="-155" as="targetPoint" />
            <Array as="points" />
          </mxGeometry>
        </mxCell>
        <mxCell id="DTv07IdPpkikq8_U2gNK-133" value="" style="edgeStyle=none;orthogonalLoop=1;jettySize=auto;html=1;rounded=0;exitX=0;exitY=0.5;exitDx=0;exitDy=0;entryX=0.5;entryY=0;entryDx=0;entryDy=0;labelBackgroundColor=none;strokeColor=#788AA3;fontColor=default;" parent="hvJsiPCnHU50Am5WqRKu-1" source="DTv07IdPpkikq8_U2gNK-125" target="DTv07IdPpkikq8_U2gNK-126" edge="1">
          <mxGeometry width="100" relative="1" as="geometry">
            <mxPoint x="690" y="-75" as="sourcePoint" />
            <mxPoint x="790" y="-75" as="targetPoint" />
            <Array as="points" />
          </mxGeometry>
        </mxCell>
        <mxCell id="DTv07IdPpkikq8_U2gNK-134" value="" style="edgeStyle=none;orthogonalLoop=1;jettySize=auto;html=1;rounded=0;exitX=0.5;exitY=1;exitDx=0;exitDy=0;entryX=0;entryY=0;entryDx=0;entryDy=0;labelBackgroundColor=none;strokeColor=#788AA3;fontColor=default;" parent="hvJsiPCnHU50Am5WqRKu-1" source="DTv07IdPpkikq8_U2gNK-126" target="DTv07IdPpkikq8_U2gNK-127" edge="1">
          <mxGeometry width="100" relative="1" as="geometry">
            <mxPoint x="660" y="-15" as="sourcePoint" />
            <mxPoint x="760" y="-15" as="targetPoint" />
            <Array as="points" />
          </mxGeometry>
        </mxCell>
        <mxCell id="DTv07IdPpkikq8_U2gNK-135" value="" style="edgeStyle=none;orthogonalLoop=1;jettySize=auto;html=1;rounded=0;exitX=0.5;exitY=1;exitDx=0;exitDy=0;entryX=0;entryY=0.5;entryDx=0;entryDy=0;labelBackgroundColor=none;strokeColor=#788AA3;fontColor=default;" parent="hvJsiPCnHU50Am5WqRKu-1" source="DTv07IdPpkikq8_U2gNK-122" target="DTv07IdPpkikq8_U2gNK-127" edge="1">
          <mxGeometry width="100" relative="1" as="geometry">
            <mxPoint x="660" y="100" as="sourcePoint" />
            <mxPoint x="520" y="20" as="targetPoint" />
            <Array as="points">
              <mxPoint x="460" y="-35" />
            </Array>
          </mxGeometry>
        </mxCell>
        <mxCell id="DTv07IdPpkikq8_U2gNK-136" value="" style="edgeStyle=none;orthogonalLoop=1;jettySize=auto;html=1;rounded=0;exitX=1;exitY=0.5;exitDx=0;exitDy=0;entryX=0.5;entryY=0;entryDx=0;entryDy=0;labelBackgroundColor=none;strokeColor=#788AA3;fontColor=default;" parent="hvJsiPCnHU50Am5WqRKu-1" source="DTv07IdPpkikq8_U2gNK-125" target="DTv07IdPpkikq8_U2gNK-128" edge="1">
          <mxGeometry width="100" relative="1" as="geometry">
            <mxPoint x="690" y="-125" as="sourcePoint" />
            <mxPoint x="790" y="-125" as="targetPoint" />
            <Array as="points" />
          </mxGeometry>
        </mxCell>
        <mxCell id="DTv07IdPpkikq8_U2gNK-137" value="" style="edgeStyle=none;orthogonalLoop=1;jettySize=auto;html=1;rounded=0;exitX=1;exitY=0.5;exitDx=0;exitDy=0;entryX=1;entryY=0.5;entryDx=0;entryDy=0;labelBackgroundColor=none;strokeColor=#788AA3;fontColor=default;" parent="hvJsiPCnHU50Am5WqRKu-1" source="DTv07IdPpkikq8_U2gNK-128" target="DTv07IdPpkikq8_U2gNK-124" edge="1">
          <mxGeometry width="100" relative="1" as="geometry">
            <mxPoint x="620" y="-90" as="sourcePoint" />
            <mxPoint x="720" y="-90" as="targetPoint" />
            <Array as="points">
              <mxPoint x="620" y="-85" />
              <mxPoint x="620" y="-180" />
            </Array>
          </mxGeometry>
        </mxCell>
        <mxCell id="DTv07IdPpkikq8_U2gNK-138" value="" style="edgeStyle=none;orthogonalLoop=1;jettySize=auto;html=1;rounded=0;exitX=0.5;exitY=1;exitDx=0;exitDy=0;entryX=1;entryY=0;entryDx=0;entryDy=0;labelBackgroundColor=none;strokeColor=#788AA3;fontColor=default;" parent="hvJsiPCnHU50Am5WqRKu-1" source="DTv07IdPpkikq8_U2gNK-128" target="DTv07IdPpkikq8_U2gNK-127" edge="1">
          <mxGeometry width="100" relative="1" as="geometry">
            <mxPoint x="680" y="-95" as="sourcePoint" />
            <mxPoint x="780" y="-95" as="targetPoint" />
            <Array as="points" />
          </mxGeometry>
        </mxCell>
        <mxCell id="DTv07IdPpkikq8_U2gNK-142" value="" style="edgeStyle=none;orthogonalLoop=1;jettySize=auto;html=1;rounded=0;fillColor=#e51400;strokeColor=#B20000;" parent="hvJsiPCnHU50Am5WqRKu-1" edge="1">
          <mxGeometry width="100" relative="1" as="geometry">
            <mxPoint x="480" y="-310" as="sourcePoint" />
            <mxPoint x="510" y="-40" as="targetPoint" />
            <Array as="points">
              <mxPoint x="420" y="-230" />
              <mxPoint x="420" y="-80" />
            </Array>
          </mxGeometry>
        </mxCell>
        <mxCell id="DTv07IdPpkikq8_U2gNK-144" value="" style="shape=waypoint;sketch=0;size=6;pointerEvents=1;points=[];fillColor=#e51400;resizable=0;rotatable=0;perimeter=centerPerimeter;snapToPoint=1;strokeColor=#B20000;fontColor=#ffffff;" parent="hvJsiPCnHU50Am5WqRKu-1" vertex="1">
          <mxGeometry x="619" y="65" width="20" height="20" as="geometry" />
        </mxCell>
        <mxCell id="DTv07IdPpkikq8_U2gNK-145" value="" style="shape=waypoint;sketch=0;size=6;pointerEvents=1;points=[];fillColor=#e51400;resizable=0;rotatable=0;perimeter=centerPerimeter;snapToPoint=1;strokeColor=#B20000;fontColor=#ffffff;" parent="hvJsiPCnHU50Am5WqRKu-1" vertex="1">
          <mxGeometry x="619" y="95" width="20" height="20" as="geometry" />
        </mxCell>
        <mxCell id="DTv07IdPpkikq8_U2gNK-146" value="" style="edgeStyle=none;orthogonalLoop=1;jettySize=auto;html=1;rounded=0;fillColor=#e3c800;strokeColor=#B09500;" parent="hvJsiPCnHU50Am5WqRKu-1" edge="1">
          <mxGeometry width="100" relative="1" as="geometry">
            <mxPoint x="520" y="-310" as="sourcePoint" />
            <mxPoint x="570" y="-190" as="targetPoint" />
            <Array as="points">
              <mxPoint x="580" y="-250" />
              <mxPoint x="580" y="-140" />
              <mxPoint x="620" y="-90" />
              <mxPoint x="690" y="-190" />
            </Array>
          </mxGeometry>
        </mxCell>
        <mxCell id="DTv07IdPpkikq8_U2gNK-147" value="" style="shape=waypoint;sketch=0;size=6;pointerEvents=1;points=[];fillColor=#e3c800;resizable=0;rotatable=0;perimeter=centerPerimeter;snapToPoint=1;strokeColor=#B09500;fontColor=#000000;" parent="hvJsiPCnHU50Am5WqRKu-1" vertex="1">
          <mxGeometry x="619" y="125" width="20" height="20" as="geometry" />
        </mxCell>
        <mxCell id="DTv07IdPpkikq8_U2gNK-148" value="" style="shape=waypoint;sketch=0;size=6;pointerEvents=1;points=[];fillColor=#e3c800;resizable=0;rotatable=0;perimeter=centerPerimeter;snapToPoint=1;strokeColor=#B09500;fontColor=#000000;" parent="hvJsiPCnHU50Am5WqRKu-1" vertex="1">
          <mxGeometry x="619" y="156" width="20" height="20" as="geometry" />
        </mxCell>
        <mxCell id="DTv07IdPpkikq8_U2gNK-149" value="" style="edgeStyle=none;orthogonalLoop=1;jettySize=auto;html=1;rounded=0;fillColor=#6a00ff;strokeColor=#3700CC;" parent="hvJsiPCnHU50Am5WqRKu-1" edge="1">
          <mxGeometry width="100" relative="1" as="geometry">
            <mxPoint x="500" y="-310" as="sourcePoint" />
            <mxPoint x="530" y="-60" as="targetPoint" />
            <Array as="points">
              <mxPoint x="530" y="-150" />
              <mxPoint x="490" y="-110" />
            </Array>
          </mxGeometry>
        </mxCell>
        <mxCell id="DTv07IdPpkikq8_U2gNK-150" value="" style="shape=waypoint;sketch=0;size=6;pointerEvents=1;points=[];fillColor=#6a00ff;resizable=0;rotatable=0;perimeter=centerPerimeter;snapToPoint=1;strokeColor=#3700CC;fontColor=#ffffff;" parent="hvJsiPCnHU50Am5WqRKu-1" vertex="1">
          <mxGeometry x="619" y="186" width="20" height="20" as="geometry" />
        </mxCell>
        <mxCell id="DTv07IdPpkikq8_U2gNK-151" value="" style="shape=waypoint;sketch=0;size=6;pointerEvents=1;points=[];fillColor=#e3c800;resizable=0;rotatable=0;perimeter=centerPerimeter;snapToPoint=1;strokeColor=#B09500;fontColor=#000000;" parent="hvJsiPCnHU50Am5WqRKu-1" vertex="1">
          <mxGeometry x="619" y="215" width="20" height="20" as="geometry" />
        </mxCell>
        <mxCell id="DTv07IdPpkikq8_U2gNK-152" value="" style="shape=waypoint;sketch=0;size=6;pointerEvents=1;points=[];fillColor=#6a00ff;resizable=0;rotatable=0;perimeter=centerPerimeter;snapToPoint=1;strokeColor=#3700CC;fontColor=#ffffff;" parent="hvJsiPCnHU50Am5WqRKu-1" vertex="1">
          <mxGeometry x="618" y="247" width="20" height="20" as="geometry" />
        </mxCell>
        <mxCell id="DTv07IdPpkikq8_U2gNK-153" value="&lt;b&gt;Path of test cases in DD-path graph&lt;/b&gt;" style="text;html=1;align=center;verticalAlign=middle;resizable=0;points=[];autosize=1;strokeColor=none;fillColor=none;" parent="hvJsiPCnHU50Am5WqRKu-1" vertex="1">
          <mxGeometry x="389" y="-350" width="230" height="30" as="geometry" />
        </mxCell>
        <mxCell id="DTv07IdPpkikq8_U2gNK-154" value="" style="edgeStyle=none;orthogonalLoop=1;jettySize=auto;html=1;rounded=0;fillColor=#e3c800;strokeColor=#B09500;" parent="hvJsiPCnHU50Am5WqRKu-1" edge="1">
          <mxGeometry width="100" relative="1" as="geometry">
            <mxPoint x="530" y="-310" as="sourcePoint" />
            <mxPoint x="570" y="-40" as="targetPoint" />
            <Array as="points">
              <mxPoint x="590" y="-250" />
              <mxPoint x="590" y="-140" />
              <mxPoint x="640" y="-80" />
            </Array>
          </mxGeometry>
        </mxCell>
        <mxCell id="DTv07IdPpkikq8_U2gNK-155" value="if no more Rooms to loop through" style="text;html=1;align=center;verticalAlign=middle;resizable=0;points=[];autosize=1;strokeColor=#B09500;fillColor=#e3c800;fontColor=#000000;" parent="hvJsiPCnHU50Am5WqRKu-1" vertex="1">
          <mxGeometry x="642" y="-95" width="200" height="30" as="geometry" />
        </mxCell>
        <mxCell id="zBteYY_6HA9ImE1aR8nf-0" value="1" style="ellipse;whiteSpace=wrap;html=1;aspect=fixed;labelBackgroundColor=none;fillColor=#B2C9AB;strokeColor=#788AA3;fontColor=#46495D;" parent="hvJsiPCnHU50Am5WqRKu-1" vertex="1">
          <mxGeometry x="-420" y="43" width="40" height="40" as="geometry" />
        </mxCell>
        <mxCell id="zBteYY_6HA9ImE1aR8nf-1" value="Source node" style="text;html=1;align=center;verticalAlign=middle;resizable=0;points=[];autosize=1;strokeColor=none;fillColor=none;labelBackgroundColor=none;fontColor=#46495D;" parent="hvJsiPCnHU50Am5WqRKu-1" vertex="1">
          <mxGeometry x="-440" y="20" width="90" height="30" as="geometry" />
        </mxCell>
        <mxCell id="zBteYY_6HA9ImE1aR8nf-2" value="2" style="ellipse;whiteSpace=wrap;html=1;aspect=fixed;labelBackgroundColor=none;fillColor=#B2C9AB;strokeColor=#788AA3;fontColor=#46495D;" parent="hvJsiPCnHU50Am5WqRKu-1" vertex="1">
          <mxGeometry x="-460" y="83" width="40" height="40" as="geometry" />
        </mxCell>
        <mxCell id="zBteYY_6HA9ImE1aR8nf-3" value="3" style="ellipse;whiteSpace=wrap;html=1;aspect=fixed;labelBackgroundColor=none;fillColor=#B2C9AB;strokeColor=#788AA3;fontColor=#46495D;" parent="hvJsiPCnHU50Am5WqRKu-1" vertex="1">
          <mxGeometry x="-380" y="83" width="40" height="40" as="geometry" />
        </mxCell>
        <mxCell id="zBteYY_6HA9ImE1aR8nf-4" value="4" style="ellipse;whiteSpace=wrap;html=1;aspect=fixed;labelBackgroundColor=none;fillColor=#B2C9AB;strokeColor=#788AA3;fontColor=#46495D;" parent="hvJsiPCnHU50Am5WqRKu-1" vertex="1">
          <mxGeometry x="-380" y="144" width="40" height="40" as="geometry" />
        </mxCell>
        <mxCell id="zBteYY_6HA9ImE1aR8nf-5" value="5" style="ellipse;whiteSpace=wrap;html=1;aspect=fixed;labelBackgroundColor=none;fillColor=#B2C9AB;strokeColor=#788AA3;fontColor=#46495D;" parent="hvJsiPCnHU50Am5WqRKu-1" vertex="1">
          <mxGeometry x="-380" y="200" width="40" height="40" as="geometry" />
        </mxCell>
        <mxCell id="zBteYY_6HA9ImE1aR8nf-6" value="6" style="ellipse;whiteSpace=wrap;html=1;aspect=fixed;labelBackgroundColor=none;fillColor=#B2C9AB;strokeColor=#788AA3;fontColor=#46495D;" parent="hvJsiPCnHU50Am5WqRKu-1" vertex="1">
          <mxGeometry x="-300" y="200" width="40" height="40" as="geometry" />
        </mxCell>
        <mxCell id="zBteYY_6HA9ImE1aR8nf-7" value="7" style="ellipse;whiteSpace=wrap;html=1;aspect=fixed;labelBackgroundColor=none;fillColor=#B2C9AB;strokeColor=#788AA3;fontColor=#46495D;" parent="hvJsiPCnHU50Am5WqRKu-1" vertex="1">
          <mxGeometry x="-300" y="256" width="40" height="40" as="geometry" />
        </mxCell>
        <mxCell id="zBteYY_6HA9ImE1aR8nf-8" value="8" style="ellipse;whiteSpace=wrap;html=1;aspect=fixed;labelBackgroundColor=none;fillColor=#B2C9AB;strokeColor=#788AA3;fontColor=#46495D;" parent="hvJsiPCnHU50Am5WqRKu-1" vertex="1">
          <mxGeometry x="-260" y="303" width="40" height="40" as="geometry" />
        </mxCell>
        <mxCell id="zBteYY_6HA9ImE1aR8nf-9" value="10" style="ellipse;whiteSpace=wrap;html=1;aspect=fixed;labelBackgroundColor=none;fillColor=#B2C9AB;strokeColor=#788AA3;fontColor=#46495D;" parent="hvJsiPCnHU50Am5WqRKu-1" vertex="1">
          <mxGeometry x="-220" y="199" width="40" height="40" as="geometry" />
        </mxCell>
        <mxCell id="zBteYY_6HA9ImE1aR8nf-10" value="11" style="ellipse;whiteSpace=wrap;html=1;aspect=fixed;labelBackgroundColor=none;fillColor=#B2C9AB;strokeColor=#788AA3;fontColor=#46495D;" parent="hvJsiPCnHU50Am5WqRKu-1" vertex="1">
          <mxGeometry x="-380" y="260" width="40" height="40" as="geometry" />
        </mxCell>
        <mxCell id="zBteYY_6HA9ImE1aR8nf-11" value="9" style="ellipse;whiteSpace=wrap;html=1;aspect=fixed;labelBackgroundColor=none;fillColor=#B2C9AB;strokeColor=#788AA3;fontColor=#46495D;" parent="hvJsiPCnHU50Am5WqRKu-1" vertex="1">
          <mxGeometry x="-220" y="257" width="40" height="40" as="geometry" />
        </mxCell>
        <mxCell id="zBteYY_6HA9ImE1aR8nf-12" value="" style="edgeStyle=none;orthogonalLoop=1;jettySize=auto;html=1;rounded=0;entryX=0.5;entryY=0;entryDx=0;entryDy=0;exitX=0;exitY=0.5;exitDx=0;exitDy=0;labelBackgroundColor=none;strokeColor=#788AA3;fontColor=default;" parent="hvJsiPCnHU50Am5WqRKu-1" source="zBteYY_6HA9ImE1aR8nf-0" target="zBteYY_6HA9ImE1aR8nf-2" edge="1">
          <mxGeometry width="100" relative="1" as="geometry">
            <mxPoint x="-300" y="130" as="sourcePoint" />
            <mxPoint x="-200" y="130" as="targetPoint" />
            <Array as="points" />
          </mxGeometry>
        </mxCell>
        <mxCell id="zBteYY_6HA9ImE1aR8nf-13" value="" style="edgeStyle=none;orthogonalLoop=1;jettySize=auto;html=1;rounded=0;entryX=0.5;entryY=0;entryDx=0;entryDy=0;exitX=1;exitY=0.5;exitDx=0;exitDy=0;labelBackgroundColor=none;strokeColor=#788AA3;fontColor=default;" parent="hvJsiPCnHU50Am5WqRKu-1" source="zBteYY_6HA9ImE1aR8nf-0" target="zBteYY_6HA9ImE1aR8nf-3" edge="1">
          <mxGeometry width="100" relative="1" as="geometry">
            <mxPoint x="-360" y="100" as="sourcePoint" />
            <mxPoint x="-260" y="100" as="targetPoint" />
            <Array as="points" />
          </mxGeometry>
        </mxCell>
        <mxCell id="zBteYY_6HA9ImE1aR8nf-14" value="" style="edgeStyle=none;orthogonalLoop=1;jettySize=auto;html=1;rounded=0;entryX=0.5;entryY=0;entryDx=0;entryDy=0;exitX=0.5;exitY=1;exitDx=0;exitDy=0;labelBackgroundColor=none;strokeColor=#788AA3;fontColor=default;" parent="hvJsiPCnHU50Am5WqRKu-1" source="zBteYY_6HA9ImE1aR8nf-3" target="zBteYY_6HA9ImE1aR8nf-4" edge="1">
          <mxGeometry width="100" relative="1" as="geometry">
            <mxPoint x="-370" y="150" as="sourcePoint" />
            <mxPoint x="-270" y="150" as="targetPoint" />
            <Array as="points" />
          </mxGeometry>
        </mxCell>
        <mxCell id="zBteYY_6HA9ImE1aR8nf-15" value="" style="edgeStyle=none;orthogonalLoop=1;jettySize=auto;html=1;rounded=0;exitX=0.5;exitY=1;exitDx=0;exitDy=0;entryX=0.5;entryY=0;entryDx=0;entryDy=0;labelBackgroundColor=none;strokeColor=#788AA3;fontColor=default;" parent="hvJsiPCnHU50Am5WqRKu-1" source="zBteYY_6HA9ImE1aR8nf-4" target="zBteYY_6HA9ImE1aR8nf-5" edge="1">
          <mxGeometry width="100" relative="1" as="geometry">
            <mxPoint x="-370" y="190" as="sourcePoint" />
            <mxPoint x="-270" y="190" as="targetPoint" />
            <Array as="points" />
          </mxGeometry>
        </mxCell>
        <mxCell id="zBteYY_6HA9ImE1aR8nf-17" value="" style="edgeStyle=none;orthogonalLoop=1;jettySize=auto;html=1;rounded=0;exitX=0.5;exitY=1;exitDx=0;exitDy=0;entryX=0.5;entryY=0;entryDx=0;entryDy=0;labelBackgroundColor=none;strokeColor=#788AA3;fontColor=default;" parent="hvJsiPCnHU50Am5WqRKu-1" source="zBteYY_6HA9ImE1aR8nf-6" target="zBteYY_6HA9ImE1aR8nf-7" edge="1">
          <mxGeometry width="100" relative="1" as="geometry">
            <mxPoint x="-170" y="246" as="sourcePoint" />
            <mxPoint x="-70" y="246" as="targetPoint" />
            <Array as="points" />
          </mxGeometry>
        </mxCell>
        <mxCell id="zBteYY_6HA9ImE1aR8nf-21" value="" style="edgeStyle=none;orthogonalLoop=1;jettySize=auto;html=1;rounded=0;exitX=0.5;exitY=1;exitDx=0;exitDy=0;labelBackgroundColor=none;strokeColor=#788AA3;fontColor=default;entryX=0;entryY=0.5;entryDx=0;entryDy=0;" parent="hvJsiPCnHU50Am5WqRKu-1" source="zBteYY_6HA9ImE1aR8nf-2" target="zBteYY_6HA9ImE1aR8nf-10" edge="1">
          <mxGeometry width="100" relative="1" as="geometry">
            <mxPoint x="-240" y="440" as="sourcePoint" />
            <mxPoint x="-430" y="320" as="targetPoint" />
            <Array as="points">
              <mxPoint x="-440" y="280" />
            </Array>
          </mxGeometry>
        </mxCell>
        <mxCell id="zBteYY_6HA9ImE1aR8nf-25" value="Sink node" style="text;html=1;align=center;verticalAlign=middle;resizable=0;points=[];autosize=1;strokeColor=none;fillColor=none;labelBackgroundColor=none;fontColor=#46495D;" parent="hvJsiPCnHU50Am5WqRKu-1" vertex="1">
          <mxGeometry x="-400" y="295" width="80" height="30" as="geometry" />
        </mxCell>
        <mxCell id="zBteYY_6HA9ImE1aR8nf-26" value="" style="edgeStyle=none;orthogonalLoop=1;jettySize=auto;html=1;rounded=0;strokeColor=#788AA3;fontColor=#46495D;fillColor=#B2C9AB;exitX=1;exitY=0.5;exitDx=0;exitDy=0;entryX=0;entryY=0.5;entryDx=0;entryDy=0;" parent="hvJsiPCnHU50Am5WqRKu-1" source="zBteYY_6HA9ImE1aR8nf-5" target="zBteYY_6HA9ImE1aR8nf-6" edge="1">
          <mxGeometry width="100" relative="1" as="geometry">
            <mxPoint x="-330" y="110" as="sourcePoint" />
            <mxPoint x="-230" y="110" as="targetPoint" />
            <Array as="points" />
          </mxGeometry>
        </mxCell>
        <mxCell id="zBteYY_6HA9ImE1aR8nf-27" value="" style="edgeStyle=none;orthogonalLoop=1;jettySize=auto;html=1;rounded=0;strokeColor=#788AA3;fontColor=#46495D;fillColor=#B2C9AB;exitX=0.5;exitY=1;exitDx=0;exitDy=0;" parent="hvJsiPCnHU50Am5WqRKu-1" source="zBteYY_6HA9ImE1aR8nf-5" target="zBteYY_6HA9ImE1aR8nf-10" edge="1">
          <mxGeometry width="100" relative="1" as="geometry">
            <mxPoint x="-340" y="380" as="sourcePoint" />
            <mxPoint x="-240" y="380" as="targetPoint" />
            <Array as="points" />
          </mxGeometry>
        </mxCell>
        <mxCell id="zBteYY_6HA9ImE1aR8nf-28" value="" style="edgeStyle=none;orthogonalLoop=1;jettySize=auto;html=1;rounded=0;strokeColor=#788AA3;fontColor=#46495D;fillColor=#B2C9AB;entryX=0;entryY=0;entryDx=0;entryDy=0;exitX=1;exitY=1;exitDx=0;exitDy=0;" parent="hvJsiPCnHU50Am5WqRKu-1" source="zBteYY_6HA9ImE1aR8nf-7" target="zBteYY_6HA9ImE1aR8nf-8" edge="1">
          <mxGeometry width="100" relative="1" as="geometry">
            <mxPoint x="-300" y="399" as="sourcePoint" />
            <mxPoint x="-200" y="399" as="targetPoint" />
            <Array as="points" />
          </mxGeometry>
        </mxCell>
        <mxCell id="zBteYY_6HA9ImE1aR8nf-29" value="" style="edgeStyle=none;orthogonalLoop=1;jettySize=auto;html=1;rounded=0;strokeColor=#788AA3;fontColor=#46495D;fillColor=#B2C9AB;entryX=0;entryY=1;entryDx=0;entryDy=0;exitX=1;exitY=0;exitDx=0;exitDy=0;" parent="hvJsiPCnHU50Am5WqRKu-1" source="zBteYY_6HA9ImE1aR8nf-8" target="zBteYY_6HA9ImE1aR8nf-11" edge="1">
          <mxGeometry width="100" relative="1" as="geometry">
            <mxPoint x="-210" y="369" as="sourcePoint" />
            <mxPoint x="-110" y="369" as="targetPoint" />
            <Array as="points" />
          </mxGeometry>
        </mxCell>
        <mxCell id="zBteYY_6HA9ImE1aR8nf-30" value="" style="edgeStyle=none;orthogonalLoop=1;jettySize=auto;html=1;rounded=0;strokeColor=#788AA3;fontColor=#46495D;fillColor=#B2C9AB;exitX=1;exitY=0.5;exitDx=0;exitDy=0;entryX=0;entryY=0.5;entryDx=0;entryDy=0;" parent="hvJsiPCnHU50Am5WqRKu-1" source="zBteYY_6HA9ImE1aR8nf-7" target="zBteYY_6HA9ImE1aR8nf-11" edge="1">
          <mxGeometry width="100" relative="1" as="geometry">
            <mxPoint x="-230" y="349" as="sourcePoint" />
            <mxPoint x="-130" y="349" as="targetPoint" />
            <Array as="points" />
          </mxGeometry>
        </mxCell>
        <mxCell id="zBteYY_6HA9ImE1aR8nf-32" value="" style="edgeStyle=none;orthogonalLoop=1;jettySize=auto;html=1;rounded=0;strokeColor=#788AA3;fontColor=#46495D;fillColor=#B2C9AB;exitX=0.5;exitY=0;exitDx=0;exitDy=0;entryX=0.5;entryY=1;entryDx=0;entryDy=0;" parent="hvJsiPCnHU50Am5WqRKu-1" source="zBteYY_6HA9ImE1aR8nf-11" target="zBteYY_6HA9ImE1aR8nf-9" edge="1">
          <mxGeometry width="100" relative="1" as="geometry">
            <mxPoint x="-190" y="379" as="sourcePoint" />
            <mxPoint x="-90" y="379" as="targetPoint" />
            <Array as="points" />
          </mxGeometry>
        </mxCell>
        <mxCell id="zBteYY_6HA9ImE1aR8nf-33" value="" style="edgeStyle=none;orthogonalLoop=1;jettySize=auto;html=1;rounded=0;strokeColor=#788AA3;fontColor=#46495D;fillColor=#B2C9AB;exitX=0.5;exitY=0;exitDx=0;exitDy=0;entryX=1;entryY=0;entryDx=0;entryDy=0;" parent="hvJsiPCnHU50Am5WqRKu-1" source="zBteYY_6HA9ImE1aR8nf-9" target="zBteYY_6HA9ImE1aR8nf-5" edge="1">
          <mxGeometry width="100" relative="1" as="geometry">
            <mxPoint x="-220" y="170" as="sourcePoint" />
            <mxPoint x="-120" y="170" as="targetPoint" />
            <Array as="points">
              <mxPoint x="-250" y="170" />
              <mxPoint x="-310" y="170" />
            </Array>
          </mxGeometry>
        </mxCell>
        <mxCell id="m9klxiyxrgKOucGu-5UE-0" value="I think this is the correctly drawn" style="text;html=1;align=center;verticalAlign=middle;resizable=0;points=[];autosize=1;strokeColor=#6c8ebf;fillColor=#dae8fc;" parent="hvJsiPCnHU50Am5WqRKu-1" vertex="1">
          <mxGeometry x="-447.5" y="-15" width="190" height="30" as="geometry" />
        </mxCell>
        <mxCell id="m9klxiyxrgKOucGu-5UE-1" value="ask henrik to validate these two" style="text;html=1;align=center;verticalAlign=middle;resizable=0;points=[];autosize=1;strokeColor=#B20000;fillColor=#e51400;fontColor=#ffffff;" parent="hvJsiPCnHU50Am5WqRKu-1" vertex="1">
          <mxGeometry x="-470" y="-65" width="190" height="30" as="geometry" />
        </mxCell>
        <mxCell id="IAJFFc4CXyYlLtaABmTO-0" value="and as DD" style="text;html=1;align=center;verticalAlign=middle;resizable=0;points=[];autosize=1;strokeColor=#6c8ebf;fillColor=#dae8fc;" parent="hvJsiPCnHU50Am5WqRKu-1" vertex="1">
          <mxGeometry x="-470" y="405" width="80" height="30" as="geometry" />
        </mxCell>
        <mxCell id="IAJFFc4CXyYlLtaABmTO-1" value="1" style="ellipse;whiteSpace=wrap;html=1;aspect=fixed;labelBackgroundColor=none;fillColor=#B2C9AB;strokeColor=#788AA3;fontColor=#46495D;" parent="hvJsiPCnHU50Am5WqRKu-1" vertex="1">
          <mxGeometry x="-407.5" y="459" width="40" height="40" as="geometry" />
        </mxCell>
        <mxCell id="IAJFFc4CXyYlLtaABmTO-2" value="2" style="ellipse;whiteSpace=wrap;html=1;aspect=fixed;labelBackgroundColor=none;fillColor=#B2C9AB;strokeColor=#788AA3;fontColor=#46495D;" parent="hvJsiPCnHU50Am5WqRKu-1" vertex="1">
          <mxGeometry x="-447.5" y="499" width="40" height="40" as="geometry" />
        </mxCell>
        <mxCell id="IAJFFc4CXyYlLtaABmTO-5" value="3-5" style="ellipse;whiteSpace=wrap;html=1;aspect=fixed;labelBackgroundColor=none;fillColor=#ffe6cc;strokeColor=#d79b00;" parent="hvJsiPCnHU50Am5WqRKu-1" vertex="1">
          <mxGeometry x="-367.5" y="499" width="40" height="40" as="geometry" />
        </mxCell>
        <mxCell id="IAJFFc4CXyYlLtaABmTO-7" value="6-7" style="ellipse;whiteSpace=wrap;html=1;aspect=fixed;labelBackgroundColor=none;fillColor=#ffe6cc;strokeColor=#d79b00;" parent="hvJsiPCnHU50Am5WqRKu-1" vertex="1">
          <mxGeometry x="-304.14" y="498" width="40" height="40" as="geometry" />
        </mxCell>
        <mxCell id="IAJFFc4CXyYlLtaABmTO-8" value="8" style="ellipse;whiteSpace=wrap;html=1;aspect=fixed;labelBackgroundColor=none;fillColor=#B2C9AB;strokeColor=#788AA3;fontColor=#46495D;" parent="hvJsiPCnHU50Am5WqRKu-1" vertex="1">
          <mxGeometry x="-264.14" y="545" width="40" height="40" as="geometry" />
        </mxCell>
        <mxCell id="IAJFFc4CXyYlLtaABmTO-10" value="11" style="ellipse;whiteSpace=wrap;html=1;aspect=fixed;labelBackgroundColor=none;fillColor=#B2C9AB;strokeColor=#788AA3;fontColor=#46495D;" parent="hvJsiPCnHU50Am5WqRKu-1" vertex="1">
          <mxGeometry x="-367.5" y="559" width="40" height="40" as="geometry" />
        </mxCell>
        <mxCell id="IAJFFc4CXyYlLtaABmTO-11" value="9-10" style="ellipse;whiteSpace=wrap;html=1;aspect=fixed;labelBackgroundColor=none;fillColor=#ffe6cc;strokeColor=#d79b00;" parent="hvJsiPCnHU50Am5WqRKu-1" vertex="1">
          <mxGeometry x="-224.14" y="499" width="40" height="40" as="geometry" />
        </mxCell>
        <mxCell id="IAJFFc4CXyYlLtaABmTO-12" value="" style="edgeStyle=none;orthogonalLoop=1;jettySize=auto;html=1;rounded=0;entryX=0.5;entryY=0;entryDx=0;entryDy=0;exitX=0;exitY=0.5;exitDx=0;exitDy=0;labelBackgroundColor=none;strokeColor=#788AA3;fontColor=default;" parent="hvJsiPCnHU50Am5WqRKu-1" source="IAJFFc4CXyYlLtaABmTO-1" target="IAJFFc4CXyYlLtaABmTO-2" edge="1">
          <mxGeometry width="100" relative="1" as="geometry">
            <mxPoint x="-287.5" y="546" as="sourcePoint" />
            <mxPoint x="-187.5" y="546" as="targetPoint" />
            <Array as="points" />
          </mxGeometry>
        </mxCell>
        <mxCell id="IAJFFc4CXyYlLtaABmTO-13" value="" style="edgeStyle=none;orthogonalLoop=1;jettySize=auto;html=1;rounded=0;entryX=0.5;entryY=0;entryDx=0;entryDy=0;exitX=1;exitY=0.5;exitDx=0;exitDy=0;labelBackgroundColor=none;strokeColor=#788AA3;fontColor=default;" parent="hvJsiPCnHU50Am5WqRKu-1" source="IAJFFc4CXyYlLtaABmTO-1" target="IAJFFc4CXyYlLtaABmTO-5" edge="1">
          <mxGeometry width="100" relative="1" as="geometry">
            <mxPoint x="-347.5" y="516" as="sourcePoint" />
            <mxPoint x="-347.5" y="499" as="targetPoint" />
            <Array as="points" />
          </mxGeometry>
        </mxCell>
        <mxCell id="IAJFFc4CXyYlLtaABmTO-17" value="" style="edgeStyle=none;orthogonalLoop=1;jettySize=auto;html=1;rounded=0;exitX=0.5;exitY=1;exitDx=0;exitDy=0;labelBackgroundColor=none;strokeColor=#788AA3;fontColor=default;entryX=0;entryY=0.5;entryDx=0;entryDy=0;" parent="hvJsiPCnHU50Am5WqRKu-1" source="IAJFFc4CXyYlLtaABmTO-2" target="IAJFFc4CXyYlLtaABmTO-10" edge="1">
          <mxGeometry width="100" relative="1" as="geometry">
            <mxPoint x="-227.5" y="856" as="sourcePoint" />
            <mxPoint x="-417.5" y="736" as="targetPoint" />
            <Array as="points">
              <mxPoint x="-427" y="579" />
            </Array>
          </mxGeometry>
        </mxCell>
        <mxCell id="IAJFFc4CXyYlLtaABmTO-18" value="Sink node" style="text;html=1;align=center;verticalAlign=middle;resizable=0;points=[];autosize=1;strokeColor=none;fillColor=none;labelBackgroundColor=none;fontColor=#46495D;" parent="hvJsiPCnHU50Am5WqRKu-1" vertex="1">
          <mxGeometry x="-384.14" y="592" width="80" height="30" as="geometry" />
        </mxCell>
        <mxCell id="IAJFFc4CXyYlLtaABmTO-19" value="" style="edgeStyle=none;orthogonalLoop=1;jettySize=auto;html=1;rounded=0;strokeColor=#788AA3;fontColor=#46495D;fillColor=#B2C9AB;exitX=1;exitY=0.5;exitDx=0;exitDy=0;entryX=0;entryY=0.5;entryDx=0;entryDy=0;" parent="hvJsiPCnHU50Am5WqRKu-1" source="IAJFFc4CXyYlLtaABmTO-5" target="IAJFFc4CXyYlLtaABmTO-7" edge="1">
          <mxGeometry width="100" relative="1" as="geometry">
            <mxPoint x="-317.5" y="409" as="sourcePoint" />
            <mxPoint x="-297.5" y="519" as="targetPoint" />
            <Array as="points" />
          </mxGeometry>
        </mxCell>
        <mxCell id="IAJFFc4CXyYlLtaABmTO-20" value="" style="edgeStyle=none;orthogonalLoop=1;jettySize=auto;html=1;rounded=0;strokeColor=#788AA3;fontColor=#46495D;fillColor=#B2C9AB;exitX=0.5;exitY=1;exitDx=0;exitDy=0;" parent="hvJsiPCnHU50Am5WqRKu-1" source="IAJFFc4CXyYlLtaABmTO-5" target="IAJFFc4CXyYlLtaABmTO-10" edge="1">
          <mxGeometry width="100" relative="1" as="geometry">
            <mxPoint x="-327.5" y="679" as="sourcePoint" />
            <mxPoint x="-227.5" y="679" as="targetPoint" />
            <Array as="points" />
          </mxGeometry>
        </mxCell>
        <mxCell id="IAJFFc4CXyYlLtaABmTO-21" value="" style="edgeStyle=none;orthogonalLoop=1;jettySize=auto;html=1;rounded=0;strokeColor=#788AA3;fontColor=#46495D;fillColor=#B2C9AB;entryX=0;entryY=0;entryDx=0;entryDy=0;exitX=1;exitY=1;exitDx=0;exitDy=0;" parent="hvJsiPCnHU50Am5WqRKu-1" source="IAJFFc4CXyYlLtaABmTO-7" target="IAJFFc4CXyYlLtaABmTO-8" edge="1">
          <mxGeometry width="100" relative="1" as="geometry">
            <mxPoint x="-304.14" y="641" as="sourcePoint" />
            <mxPoint x="-204.14" y="641" as="targetPoint" />
            <Array as="points" />
          </mxGeometry>
        </mxCell>
        <mxCell id="IAJFFc4CXyYlLtaABmTO-22" value="" style="edgeStyle=none;orthogonalLoop=1;jettySize=auto;html=1;rounded=0;strokeColor=#788AA3;fontColor=#46495D;fillColor=#B2C9AB;entryX=0;entryY=1;entryDx=0;entryDy=0;exitX=1;exitY=0;exitDx=0;exitDy=0;" parent="hvJsiPCnHU50Am5WqRKu-1" source="IAJFFc4CXyYlLtaABmTO-8" target="IAJFFc4CXyYlLtaABmTO-11" edge="1">
          <mxGeometry width="100" relative="1" as="geometry">
            <mxPoint x="-214.14" y="611" as="sourcePoint" />
            <mxPoint x="-114.14" y="611" as="targetPoint" />
            <Array as="points" />
          </mxGeometry>
        </mxCell>
        <mxCell id="IAJFFc4CXyYlLtaABmTO-23" value="" style="edgeStyle=none;orthogonalLoop=1;jettySize=auto;html=1;rounded=0;strokeColor=#788AA3;fontColor=#46495D;fillColor=#B2C9AB;exitX=1;exitY=0.5;exitDx=0;exitDy=0;entryX=0;entryY=0.5;entryDx=0;entryDy=0;" parent="hvJsiPCnHU50Am5WqRKu-1" source="IAJFFc4CXyYlLtaABmTO-7" target="IAJFFc4CXyYlLtaABmTO-11" edge="1">
          <mxGeometry width="100" relative="1" as="geometry">
            <mxPoint x="-234.14" y="591" as="sourcePoint" />
            <mxPoint x="-134.14" y="591" as="targetPoint" />
            <Array as="points" />
          </mxGeometry>
        </mxCell>
        <mxCell id="IAJFFc4CXyYlLtaABmTO-25" value="" style="edgeStyle=none;orthogonalLoop=1;jettySize=auto;html=1;rounded=0;strokeColor=#788AA3;fontColor=#46495D;fillColor=#B2C9AB;entryX=0.688;entryY=0.075;entryDx=0;entryDy=0;exitX=0.5;exitY=0;exitDx=0;exitDy=0;entryPerimeter=0;" parent="hvJsiPCnHU50Am5WqRKu-1" source="IAJFFc4CXyYlLtaABmTO-11" target="IAJFFc4CXyYlLtaABmTO-5" edge="1">
          <mxGeometry width="100" relative="1" as="geometry">
            <mxPoint x="-210" y="440" as="sourcePoint" />
            <mxPoint x="-339.9978643762689" y="447.85786437626894" as="targetPoint" />
            <Array as="points">
              <mxPoint x="-250" y="450" />
              <mxPoint x="-300" y="450" />
            </Array>
          </mxGeometry>
        </mxCell>
        <mxCell id="IAJFFc4CXyYlLtaABmTO-26" value="update to new draw-layout" style="text;html=1;align=center;verticalAlign=middle;resizable=0;points=[];autosize=1;strokeColor=#B20000;fillColor=#e51400;fontColor=#ffffff;" parent="hvJsiPCnHU50Am5WqRKu-1" vertex="1">
          <mxGeometry x="230" y="-312" width="160" height="30" as="geometry" />
        </mxCell>
        <mxCell id="IAJFFc4CXyYlLtaABmTO-28" value="Source node" style="text;html=1;align=center;verticalAlign=middle;resizable=0;points=[];autosize=1;strokeColor=none;fillColor=none;labelBackgroundColor=none;fontColor=#46495D;" parent="hvJsiPCnHU50Am5WqRKu-1" vertex="1">
          <mxGeometry x="-445" y="435" width="90" height="30" as="geometry" />
        </mxCell>
        <mxCell id="YRjHrx0gJtcb61MbMBCh-0" value="Program path&lt;div&gt;if i and j are nodes in the program graph, an edge exists from node i to node j if and only if the statement fragment corresponding to node j can be executed immediately after the statement fragment corresponding to node i.&lt;br&gt;&lt;/div&gt;" style="text;html=1;align=center;verticalAlign=middle;resizable=0;points=[];autosize=1;strokeColor=none;fillColor=none;fontColor=#46495D;" parent="hvJsiPCnHU50Am5WqRKu-1" vertex="1">
          <mxGeometry x="-884.14" y="-130" width="1200" height="40" as="geometry" />
        </mxCell>
        <mxCell id="zqHygZWgUfZOhrqt6QVY-0" value="MCDC covers edge coverage" style="text;html=1;align=center;verticalAlign=middle;resizable=0;points=[];autosize=1;strokeColor=none;fillColor=none;" vertex="1" parent="hvJsiPCnHU50Am5WqRKu-1">
          <mxGeometry x="770" y="-192" width="180" height="30" as="geometry" />
        </mxCell>
      </root>
    </mxGraphModel>
  </diagram>
  <diagram id="9ViAL8n-cF3U2N7R95r8" name="GetFullyOccupiedDates">
    <mxGraphModel dx="2336" dy="1946" grid="1" gridSize="10" guides="1" tooltips="1" connect="1" arrows="1" fold="1" page="1" pageScale="1" pageWidth="827" pageHeight="1169" math="0" shadow="0">
      <root>
        <mxCell id="0" />
        <mxCell id="1" parent="0" />
        <mxCell id="ka2vdLWiv_SZfFubkRCr-1" value="&lt;div&gt;public List&amp;lt;DateTime&amp;gt; GetFullyOccupiedDates(DateTime startDate, DateTime endDate)&lt;/div&gt;&lt;div&gt;{&lt;/div&gt;&lt;div&gt;&amp;nbsp; &amp;nbsp; if (startDate &amp;gt; endDate)&lt;/div&gt;&lt;div&gt;&amp;nbsp; &amp;nbsp; {&lt;/div&gt;&lt;div&gt;&amp;nbsp; &amp;nbsp; &amp;nbsp; &amp;nbsp; throw new ArgumentException(&quot;The start date cannot be later than the end date.&quot;);&lt;/div&gt;&lt;div&gt;&amp;nbsp; &amp;nbsp; }&lt;/div&gt;&lt;div&gt;&lt;br&gt;&lt;/div&gt;&lt;div&gt;&amp;nbsp; &amp;nbsp; List&amp;lt;DateTime&amp;gt; fullyOccupiedDates = new List&amp;lt;DateTime&amp;gt;();&lt;/div&gt;&lt;div&gt;&amp;nbsp; &amp;nbsp; int noOfRooms = roomRepository.GetAll().Count();&lt;/div&gt;&lt;div&gt;&amp;nbsp; &amp;nbsp; var bookings = bookingRepository.GetAll();&lt;/div&gt;&lt;div&gt;&lt;br&gt;&lt;/div&gt;&lt;div&gt;&amp;nbsp; &amp;nbsp; if (bookings.Any())&lt;/div&gt;&lt;div&gt;&amp;nbsp; &amp;nbsp; {&lt;/div&gt;&lt;div&gt;&amp;nbsp; &amp;nbsp; &amp;nbsp; &amp;nbsp; for (DateTime d = startDate; d &amp;lt;= endDate; d = d.AddDays(1))&lt;/div&gt;&lt;div&gt;&amp;nbsp; &amp;nbsp; &amp;nbsp; &amp;nbsp; {&lt;/div&gt;&lt;div&gt;&amp;nbsp; &amp;nbsp; &amp;nbsp; &amp;nbsp; &amp;nbsp; &amp;nbsp; var noOfBookings = from b in bookings&lt;/div&gt;&lt;div&gt;&amp;nbsp; &amp;nbsp; &amp;nbsp; &amp;nbsp; &amp;nbsp; &amp;nbsp; &amp;nbsp; &amp;nbsp; &amp;nbsp; &amp;nbsp; &amp;nbsp; &amp;nbsp; &amp;nbsp; &amp;nbsp; &amp;nbsp; &amp;nbsp;where b.IsActive &amp;amp;&amp;amp; d &amp;gt;= b.StartDate &amp;amp;&amp;amp; d &amp;lt;= b.EndDate&lt;/div&gt;&lt;div&gt;&amp;nbsp; &amp;nbsp; &amp;nbsp; &amp;nbsp; &amp;nbsp; &amp;nbsp; &amp;nbsp; &amp;nbsp; &amp;nbsp; &amp;nbsp; &amp;nbsp; &amp;nbsp; &amp;nbsp; &amp;nbsp; &amp;nbsp; &amp;nbsp;select b;&lt;/div&gt;&lt;div&gt;&amp;nbsp; &amp;nbsp; &amp;nbsp; &amp;nbsp; &amp;nbsp; &amp;nbsp; if (noOfBookings.Count() &amp;gt;= noOfRooms)&lt;/div&gt;&lt;div&gt;&amp;nbsp; &amp;nbsp; &amp;nbsp; &amp;nbsp; &amp;nbsp; &amp;nbsp; {&lt;/div&gt;&lt;div&gt;&lt;span style=&quot;background-color: initial;&quot;&gt;&amp;nbsp; &amp;nbsp; &amp;nbsp; &amp;nbsp; &amp;nbsp; &amp;nbsp; &amp;nbsp; &amp;nbsp; fullyOccupiedDates.Add(d);&lt;/span&gt;&lt;br&gt;&lt;/div&gt;&lt;div&gt;&lt;span style=&quot;background-color: initial;&quot;&gt;&amp;nbsp; &amp;nbsp; &amp;nbsp; &amp;nbsp; &amp;nbsp; &amp;nbsp;&amp;nbsp;&lt;/span&gt;&lt;span style=&quot;background-color: initial;&quot;&gt;}&lt;/span&gt;&lt;/div&gt;&lt;div&gt;&amp;nbsp; &amp;nbsp; &amp;nbsp; &amp;nbsp; }&lt;/div&gt;&lt;div&gt;&amp;nbsp; &amp;nbsp; }&lt;/div&gt;&lt;div&gt;&amp;nbsp; &amp;nbsp; return fullyOccupiedDates;&lt;/div&gt;&lt;div style=&quot;&quot;&gt;}&lt;/div&gt;" style="text;html=1;align=left;verticalAlign=middle;resizable=0;points=[];autosize=1;strokeColor=none;fillColor=none;labelBackgroundColor=none;fontColor=#46495D;" parent="1" vertex="1">
          <mxGeometry x="-105" y="-32" width="490" height="390" as="geometry" />
        </mxCell>
        <mxCell id="ka2vdLWiv_SZfFubkRCr-2" value="1&lt;div&gt;&lt;br&gt;&lt;div style=&quot;&quot;&gt;&lt;span style=&quot;background-color: initial;&quot;&gt;2&lt;/span&gt;&lt;br&gt;&lt;/div&gt;&lt;div&gt;3&lt;/div&gt;&lt;div&gt;&lt;br&gt;&lt;/div&gt;&lt;div&gt;4&lt;/div&gt;&lt;div&gt;5&lt;/div&gt;&lt;div&gt;6&lt;/div&gt;&lt;div&gt;&lt;br&gt;&lt;/div&gt;&lt;div&gt;7&lt;/div&gt;&lt;div&gt;&lt;br&gt;&lt;/div&gt;&lt;div&gt;8&lt;/div&gt;&lt;div&gt;&lt;br&gt;&lt;/div&gt;&lt;div&gt;9&lt;/div&gt;&lt;div&gt;&lt;br&gt;&lt;/div&gt;&lt;div&gt;&lt;br&gt;&lt;/div&gt;&lt;div&gt;10&lt;/div&gt;&lt;div&gt;&lt;br&gt;&lt;/div&gt;&lt;div&gt;11&lt;/div&gt;&lt;div&gt;12&lt;/div&gt;&lt;div&gt;13&lt;/div&gt;&lt;div&gt;14&lt;/div&gt;&lt;div&gt;15&lt;/div&gt;&lt;div&gt;&lt;br&gt;&lt;/div&gt;&lt;div&gt;&lt;br&gt;&lt;/div&gt;&lt;div&gt;&lt;br&gt;&lt;/div&gt;&lt;/div&gt;" style="text;html=1;align=center;verticalAlign=middle;resizable=0;points=[];autosize=1;strokeColor=none;fillColor=none;labelBackgroundColor=none;fontColor=#46495D;" parent="1" vertex="1">
          <mxGeometry x="-138" y="-3" width="40" height="390" as="geometry" />
        </mxCell>
        <mxCell id="tXCiNAF4_QN-ilxyFQ_z-3" value="&lt;b&gt;Control Flow Graph / Program Graph&lt;/b&gt;" style="text;html=1;align=center;verticalAlign=middle;resizable=0;points=[];autosize=1;strokeColor=#6c8ebf;fillColor=#dae8fc;labelBackgroundColor=none;" parent="1" vertex="1">
          <mxGeometry x="-581.75" y="-120" width="230" height="30" as="geometry" />
        </mxCell>
        <mxCell id="tXCiNAF4_QN-ilxyFQ_z-4" value="&lt;b&gt;DD graph (Decision-to-decision path)&lt;/b&gt;&lt;div&gt;&lt;span style=&quot;font-weight: 700;&quot;&gt;Cyclomatic complexity = 5&lt;/span&gt;&lt;b&gt;&lt;br&gt;&lt;/b&gt;&lt;/div&gt;" style="text;html=1;align=center;verticalAlign=middle;resizable=0;points=[];autosize=1;strokeColor=#6c8ebf;fillColor=#dae8fc;labelBackgroundColor=none;" parent="1" vertex="1">
          <mxGeometry x="-411.75" y="400" width="240" height="40" as="geometry" />
        </mxCell>
        <mxCell id="czjLAEKAMnsclzeexRyh-1" value="&lt;div style=&quot;text-align: left;&quot;&gt;&lt;b style=&quot;background-color: initial;&quot;&gt;Cyclomatic complexity (CC)&lt;/b&gt;&lt;/div&gt;&lt;div&gt;&lt;div style=&quot;text-align: left;&quot;&gt;&lt;span style=&quot;background-color: initial;&quot;&gt;CC =&amp;nbsp; #times yoiu would need to cycle through from the source to the sink node until the structure of the code has been completely covered&lt;/span&gt;&lt;/div&gt;&lt;div style=&quot;text-align: left;&quot;&gt;CC should be &amp;lt;= 10 (implying: easier to&amp;nbsp;&lt;span style=&quot;background-color: initial;&quot;&gt;understand, maintain,&amp;nbsp;&lt;/span&gt;&lt;span style=&quot;background-color: initial;&quot;&gt;test, and reduces required test cases)&lt;/span&gt;&lt;/div&gt;&lt;/div&gt;&lt;div style=&quot;text-align: left;&quot;&gt;&lt;span style=&quot;background-color: initial;&quot;&gt;&lt;br&gt;&lt;/span&gt;&lt;/div&gt;&lt;div style=&quot;text-align: left;&quot;&gt;&lt;span style=&quot;background-color: initial;&quot;&gt;&lt;b&gt;CC formula&lt;/b&gt;&lt;/span&gt;&lt;/div&gt;&lt;div style=&quot;text-align: left;&quot;&gt;1) CC = 1 + #enclosed regions in the DD-path graph&lt;/div&gt;&lt;div style=&quot;text-align: left;&quot;&gt;2) CC = #edges - #nodes + 2&lt;/div&gt;&lt;div style=&quot;text-align: left;&quot;&gt;3) CC = 1 + sum_i=1_to_n(outDegree_node_i - 1) = #branching and looping constructs + 1&lt;/div&gt;&lt;div style=&quot;text-align: left;&quot;&gt;&lt;span style=&quot;background-color: initial;&quot;&gt;&lt;br&gt;&lt;/span&gt;&lt;/div&gt;" style="text;html=1;align=center;verticalAlign=middle;resizable=0;points=[];autosize=1;strokeColor=none;fillColor=none;" parent="1" vertex="1">
          <mxGeometry x="450" y="60" width="760" height="140" as="geometry" />
        </mxCell>
        <mxCell id="KnGwi0gBd4qD_E9scAwx-1" value="1" style="ellipse;whiteSpace=wrap;html=1;aspect=fixed;labelBackgroundColor=none;fillColor=#B2C9AB;strokeColor=#788AA3;fontColor=#46495D;" parent="1" vertex="1">
          <mxGeometry x="-559.75" y="-62" width="40" height="40" as="geometry" />
        </mxCell>
        <mxCell id="KnGwi0gBd4qD_E9scAwx-2" value="2" style="ellipse;whiteSpace=wrap;html=1;aspect=fixed;labelBackgroundColor=none;fillColor=#B2C9AB;strokeColor=#788AA3;fontColor=#46495D;" parent="1" vertex="1">
          <mxGeometry x="-599.75" y="-22" width="40" height="40" as="geometry" />
        </mxCell>
        <mxCell id="KnGwi0gBd4qD_E9scAwx-3" value="3" style="ellipse;whiteSpace=wrap;html=1;aspect=fixed;labelBackgroundColor=none;fillColor=#B2C9AB;strokeColor=#788AA3;fontColor=#46495D;" parent="1" vertex="1">
          <mxGeometry x="-519.75" y="-22" width="40" height="40" as="geometry" />
        </mxCell>
        <mxCell id="KnGwi0gBd4qD_E9scAwx-4" value="4" style="ellipse;whiteSpace=wrap;html=1;aspect=fixed;labelBackgroundColor=none;fillColor=#B2C9AB;strokeColor=#788AA3;fontColor=#46495D;" parent="1" vertex="1">
          <mxGeometry x="-519.75" y="33" width="40" height="40" as="geometry" />
        </mxCell>
        <mxCell id="KnGwi0gBd4qD_E9scAwx-5" value="5" style="ellipse;whiteSpace=wrap;html=1;aspect=fixed;labelBackgroundColor=none;fillColor=#B2C9AB;strokeColor=#788AA3;fontColor=#46495D;" parent="1" vertex="1">
          <mxGeometry x="-519.75" y="90" width="40" height="40" as="geometry" />
        </mxCell>
        <mxCell id="KnGwi0gBd4qD_E9scAwx-6" value="6" style="ellipse;whiteSpace=wrap;html=1;aspect=fixed;labelBackgroundColor=none;fillColor=#B2C9AB;strokeColor=#788AA3;fontColor=#46495D;" parent="1" vertex="1">
          <mxGeometry x="-519.75" y="145" width="40" height="40" as="geometry" />
        </mxCell>
        <mxCell id="KnGwi0gBd4qD_E9scAwx-7" value="7" style="ellipse;whiteSpace=wrap;html=1;aspect=fixed;labelBackgroundColor=none;fillColor=#B2C9AB;strokeColor=#788AA3;fontColor=#46495D;" parent="1" vertex="1">
          <mxGeometry x="-519.75" y="200" width="40" height="40" as="geometry" />
        </mxCell>
        <mxCell id="KnGwi0gBd4qD_E9scAwx-8" value="8" style="ellipse;whiteSpace=wrap;html=1;aspect=fixed;labelBackgroundColor=none;fillColor=#B2C9AB;strokeColor=#788AA3;fontColor=#46495D;" parent="1" vertex="1">
          <mxGeometry x="-459.75" y="230" width="40" height="40" as="geometry" />
        </mxCell>
        <mxCell id="KnGwi0gBd4qD_E9scAwx-9" value="9" style="ellipse;whiteSpace=wrap;html=1;aspect=fixed;labelBackgroundColor=none;fillColor=#B2C9AB;strokeColor=#788AA3;fontColor=#46495D;" parent="1" vertex="1">
          <mxGeometry x="-399.75" y="230" width="40" height="40" as="geometry" />
        </mxCell>
        <mxCell id="KnGwi0gBd4qD_E9scAwx-10" value="10" style="ellipse;whiteSpace=wrap;html=1;aspect=fixed;labelBackgroundColor=none;fillColor=#B2C9AB;strokeColor=#788AA3;fontColor=#46495D;" parent="1" vertex="1">
          <mxGeometry x="-339.75" y="230" width="40" height="40" as="geometry" />
        </mxCell>
        <mxCell id="KnGwi0gBd4qD_E9scAwx-11" value="11" style="ellipse;whiteSpace=wrap;html=1;aspect=fixed;labelBackgroundColor=none;fillColor=#B2C9AB;strokeColor=#788AA3;fontColor=#46495D;" parent="1" vertex="1">
          <mxGeometry x="-299.75" y="280" width="40" height="40" as="geometry" />
        </mxCell>
        <mxCell id="KnGwi0gBd4qD_E9scAwx-12" value="12" style="ellipse;whiteSpace=wrap;html=1;aspect=fixed;labelBackgroundColor=none;fillColor=#B2C9AB;strokeColor=#788AA3;fontColor=#46495D;" parent="1" vertex="1">
          <mxGeometry x="-258.75" y="230" width="40" height="40" as="geometry" />
        </mxCell>
        <mxCell id="KnGwi0gBd4qD_E9scAwx-13" value="14" style="ellipse;whiteSpace=wrap;html=1;aspect=fixed;labelBackgroundColor=none;fillColor=#B2C9AB;strokeColor=#788AA3;fontColor=#46495D;" parent="1" vertex="1">
          <mxGeometry x="-519.75" y="280" width="40" height="40" as="geometry" />
        </mxCell>
        <mxCell id="KnGwi0gBd4qD_E9scAwx-14" value="15" style="ellipse;whiteSpace=wrap;html=1;aspect=fixed;labelBackgroundColor=none;fillColor=#B2C9AB;strokeColor=#788AA3;fontColor=#46495D;" parent="1" vertex="1">
          <mxGeometry x="-519.75" y="333" width="40" height="40" as="geometry" />
        </mxCell>
        <mxCell id="KnGwi0gBd4qD_E9scAwx-16" value="" style="edgeStyle=none;orthogonalLoop=1;jettySize=auto;html=1;rounded=0;exitX=0.5;exitY=1;exitDx=0;exitDy=0;entryX=0;entryY=0.5;entryDx=0;entryDy=0;labelBackgroundColor=none;strokeColor=#788AA3;fontColor=default;" parent="1" source="KnGwi0gBd4qD_E9scAwx-2" target="KnGwi0gBd4qD_E9scAwx-14" edge="1">
          <mxGeometry width="100" relative="1" as="geometry">
            <mxPoint x="-639.75" y="80" as="sourcePoint" />
            <mxPoint x="-489.75" y="430" as="targetPoint" />
            <Array as="points">
              <mxPoint x="-579.75" y="353" />
            </Array>
          </mxGeometry>
        </mxCell>
        <mxCell id="KnGwi0gBd4qD_E9scAwx-17" value="" style="edgeStyle=none;orthogonalLoop=1;jettySize=auto;html=1;rounded=0;exitX=0;exitY=1;exitDx=0;exitDy=0;entryX=1;entryY=0;entryDx=0;entryDy=0;labelBackgroundColor=none;strokeColor=#788AA3;fontColor=default;" parent="1" source="KnGwi0gBd4qD_E9scAwx-1" target="KnGwi0gBd4qD_E9scAwx-2" edge="1">
          <mxGeometry width="100" relative="1" as="geometry">
            <mxPoint x="-389.75" y="70" as="sourcePoint" />
            <mxPoint x="-289.75" y="70" as="targetPoint" />
            <Array as="points" />
          </mxGeometry>
        </mxCell>
        <mxCell id="KnGwi0gBd4qD_E9scAwx-18" value="" style="edgeStyle=none;orthogonalLoop=1;jettySize=auto;html=1;rounded=0;entryX=0;entryY=0;entryDx=0;entryDy=0;exitX=1;exitY=1;exitDx=0;exitDy=0;labelBackgroundColor=none;strokeColor=#788AA3;fontColor=default;" parent="1" source="KnGwi0gBd4qD_E9scAwx-1" target="KnGwi0gBd4qD_E9scAwx-3" edge="1">
          <mxGeometry width="100" relative="1" as="geometry">
            <mxPoint x="-379.75" as="sourcePoint" />
            <mxPoint x="-279.75" as="targetPoint" />
            <Array as="points" />
          </mxGeometry>
        </mxCell>
        <mxCell id="KnGwi0gBd4qD_E9scAwx-19" value="" style="edgeStyle=none;orthogonalLoop=1;jettySize=auto;html=1;rounded=0;exitX=0.5;exitY=1;exitDx=0;exitDy=0;labelBackgroundColor=none;strokeColor=#788AA3;fontColor=default;" parent="1" source="KnGwi0gBd4qD_E9scAwx-3" target="KnGwi0gBd4qD_E9scAwx-4" edge="1">
          <mxGeometry width="100" relative="1" as="geometry">
            <mxPoint x="-439.75" y="30" as="sourcePoint" />
            <mxPoint x="-339.75" y="30" as="targetPoint" />
            <Array as="points" />
          </mxGeometry>
        </mxCell>
        <mxCell id="KnGwi0gBd4qD_E9scAwx-20" value="" style="edgeStyle=none;orthogonalLoop=1;jettySize=auto;html=1;rounded=0;exitX=0.5;exitY=1;exitDx=0;exitDy=0;entryX=0.5;entryY=0;entryDx=0;entryDy=0;labelBackgroundColor=none;strokeColor=#788AA3;fontColor=default;" parent="1" source="KnGwi0gBd4qD_E9scAwx-4" target="KnGwi0gBd4qD_E9scAwx-5" edge="1">
          <mxGeometry width="100" relative="1" as="geometry">
            <mxPoint x="-409.75" y="100" as="sourcePoint" />
            <mxPoint x="-309.75" y="100" as="targetPoint" />
            <Array as="points" />
          </mxGeometry>
        </mxCell>
        <mxCell id="KnGwi0gBd4qD_E9scAwx-21" value="" style="edgeStyle=none;orthogonalLoop=1;jettySize=auto;html=1;rounded=0;exitX=0.5;exitY=1;exitDx=0;exitDy=0;entryX=0.5;entryY=0;entryDx=0;entryDy=0;labelBackgroundColor=none;strokeColor=#788AA3;fontColor=default;" parent="1" source="KnGwi0gBd4qD_E9scAwx-5" target="KnGwi0gBd4qD_E9scAwx-6" edge="1">
          <mxGeometry width="100" relative="1" as="geometry">
            <mxPoint x="-409.75" y="140" as="sourcePoint" />
            <mxPoint x="-309.75" y="140" as="targetPoint" />
            <Array as="points" />
          </mxGeometry>
        </mxCell>
        <mxCell id="KnGwi0gBd4qD_E9scAwx-22" value="" style="edgeStyle=none;orthogonalLoop=1;jettySize=auto;html=1;rounded=0;exitX=0.5;exitY=1;exitDx=0;exitDy=0;entryX=0.5;entryY=0;entryDx=0;entryDy=0;labelBackgroundColor=none;strokeColor=#788AA3;fontColor=default;" parent="1" source="KnGwi0gBd4qD_E9scAwx-6" target="KnGwi0gBd4qD_E9scAwx-7" edge="1">
          <mxGeometry width="100" relative="1" as="geometry">
            <mxPoint x="-429.75" y="150" as="sourcePoint" />
            <mxPoint x="-329.75" y="150" as="targetPoint" />
            <Array as="points" />
          </mxGeometry>
        </mxCell>
        <mxCell id="KnGwi0gBd4qD_E9scAwx-23" value="" style="edgeStyle=none;orthogonalLoop=1;jettySize=auto;html=1;rounded=0;exitX=1;exitY=0.5;exitDx=0;exitDy=0;entryX=0;entryY=0;entryDx=0;entryDy=0;labelBackgroundColor=none;strokeColor=#788AA3;fontColor=default;" parent="1" source="KnGwi0gBd4qD_E9scAwx-7" target="KnGwi0gBd4qD_E9scAwx-8" edge="1">
          <mxGeometry width="100" relative="1" as="geometry">
            <mxPoint x="-399.75" y="140" as="sourcePoint" />
            <mxPoint x="-299.75" y="140" as="targetPoint" />
            <Array as="points" />
          </mxGeometry>
        </mxCell>
        <mxCell id="KnGwi0gBd4qD_E9scAwx-24" value="" style="edgeStyle=none;orthogonalLoop=1;jettySize=auto;html=1;rounded=0;entryX=0;entryY=0.5;entryDx=0;entryDy=0;labelBackgroundColor=none;strokeColor=#788AA3;fontColor=default;exitX=1;exitY=0.5;exitDx=0;exitDy=0;" parent="1" source="KnGwi0gBd4qD_E9scAwx-8" target="KnGwi0gBd4qD_E9scAwx-9" edge="1">
          <mxGeometry width="100" relative="1" as="geometry">
            <mxPoint x="-409.75" y="160" as="sourcePoint" />
            <mxPoint x="-239.75" y="110" as="targetPoint" />
            <Array as="points" />
          </mxGeometry>
        </mxCell>
        <mxCell id="KnGwi0gBd4qD_E9scAwx-25" value="" style="edgeStyle=none;orthogonalLoop=1;jettySize=auto;html=1;rounded=0;exitX=1;exitY=0.5;exitDx=0;exitDy=0;entryX=0;entryY=0.5;entryDx=0;entryDy=0;labelBackgroundColor=none;strokeColor=#788AA3;fontColor=default;" parent="1" source="KnGwi0gBd4qD_E9scAwx-9" target="KnGwi0gBd4qD_E9scAwx-10" edge="1">
          <mxGeometry width="100" relative="1" as="geometry">
            <mxPoint x="-229.75" y="190" as="sourcePoint" />
            <mxPoint x="-129.75" y="190" as="targetPoint" />
            <Array as="points" />
          </mxGeometry>
        </mxCell>
        <mxCell id="KnGwi0gBd4qD_E9scAwx-30" value="13" style="ellipse;whiteSpace=wrap;html=1;aspect=fixed;labelBackgroundColor=none;fillColor=#B2C9AB;strokeColor=#788AA3;fontColor=#46495D;" parent="1" vertex="1">
          <mxGeometry x="-198.75" y="230" width="40" height="40" as="geometry" />
        </mxCell>
        <mxCell id="KnGwi0gBd4qD_E9scAwx-33" value="" style="edgeStyle=none;orthogonalLoop=1;jettySize=auto;html=1;rounded=0;entryX=1;entryY=0;entryDx=0;entryDy=0;labelBackgroundColor=none;strokeColor=#788AA3;fontColor=default;" parent="1" target="KnGwi0gBd4qD_E9scAwx-8" edge="1">
          <mxGeometry width="100" relative="1" as="geometry">
            <mxPoint x="-191.75" y="238" as="sourcePoint" />
            <mxPoint x="-399.75" y="240" as="targetPoint" />
            <Array as="points">
              <mxPoint x="-211.75" y="168" />
              <mxPoint x="-389.75" y="168" />
            </Array>
          </mxGeometry>
        </mxCell>
        <mxCell id="KnGwi0gBd4qD_E9scAwx-34" value="Sink node" style="text;html=1;align=center;verticalAlign=middle;resizable=0;points=[];autosize=1;strokeColor=none;fillColor=none;fontColor=#46495D;" parent="1" vertex="1">
          <mxGeometry x="-532.75" y="367" width="80" height="30" as="geometry" />
        </mxCell>
        <mxCell id="KnGwi0gBd4qD_E9scAwx-36" value="" style="edgeStyle=none;orthogonalLoop=1;jettySize=auto;html=1;rounded=0;strokeColor=#788AA3;fontColor=#46495D;fillColor=#B2C9AB;exitX=0.5;exitY=1;exitDx=0;exitDy=0;entryX=0.5;entryY=0;entryDx=0;entryDy=0;" parent="1" source="KnGwi0gBd4qD_E9scAwx-7" target="KnGwi0gBd4qD_E9scAwx-13" edge="1">
          <mxGeometry width="100" relative="1" as="geometry">
            <mxPoint x="-499.75" y="280" as="sourcePoint" />
            <mxPoint x="-399.75" y="280" as="targetPoint" />
            <Array as="points" />
          </mxGeometry>
        </mxCell>
        <mxCell id="KnGwi0gBd4qD_E9scAwx-37" value="" style="edgeStyle=none;orthogonalLoop=1;jettySize=auto;html=1;rounded=0;strokeColor=#788AA3;fontColor=#46495D;fillColor=#B2C9AB;exitX=0.5;exitY=1;exitDx=0;exitDy=0;entryX=0.5;entryY=0;entryDx=0;entryDy=0;" parent="1" source="KnGwi0gBd4qD_E9scAwx-13" target="KnGwi0gBd4qD_E9scAwx-14" edge="1">
          <mxGeometry width="100" relative="1" as="geometry">
            <mxPoint x="-459.75" y="350" as="sourcePoint" />
            <mxPoint x="-359.75" y="350" as="targetPoint" />
            <Array as="points" />
          </mxGeometry>
        </mxCell>
        <mxCell id="KnGwi0gBd4qD_E9scAwx-38" value="" style="edgeStyle=none;orthogonalLoop=1;jettySize=auto;html=1;rounded=0;strokeColor=#788AA3;fontColor=#46495D;fillColor=#B2C9AB;exitX=0;exitY=1;exitDx=0;exitDy=0;entryX=0.95;entryY=0.325;entryDx=0;entryDy=0;entryPerimeter=0;" parent="1" source="KnGwi0gBd4qD_E9scAwx-8" target="KnGwi0gBd4qD_E9scAwx-13" edge="1">
          <mxGeometry width="100" relative="1" as="geometry">
            <mxPoint x="-449.75" y="300" as="sourcePoint" />
            <mxPoint x="-349.75" y="300" as="targetPoint" />
            <Array as="points" />
          </mxGeometry>
        </mxCell>
        <mxCell id="KnGwi0gBd4qD_E9scAwx-39" value="" style="edgeStyle=none;orthogonalLoop=1;jettySize=auto;html=1;rounded=0;strokeColor=#788AA3;fontColor=#46495D;fillColor=#B2C9AB;exitX=1;exitY=0.5;exitDx=0;exitDy=0;entryX=0;entryY=0.5;entryDx=0;entryDy=0;" parent="1" source="KnGwi0gBd4qD_E9scAwx-10" target="KnGwi0gBd4qD_E9scAwx-12" edge="1">
          <mxGeometry width="100" relative="1" as="geometry">
            <mxPoint x="-299.75" y="340" as="sourcePoint" />
            <mxPoint x="-199.75" y="340" as="targetPoint" />
            <Array as="points" />
          </mxGeometry>
        </mxCell>
        <mxCell id="KnGwi0gBd4qD_E9scAwx-40" value="" style="edgeStyle=none;orthogonalLoop=1;jettySize=auto;html=1;rounded=0;strokeColor=#788AA3;fontColor=#46495D;fillColor=#B2C9AB;exitX=1;exitY=0.5;exitDx=0;exitDy=0;entryX=0;entryY=0.5;entryDx=0;entryDy=0;" parent="1" source="KnGwi0gBd4qD_E9scAwx-12" target="KnGwi0gBd4qD_E9scAwx-30" edge="1">
          <mxGeometry width="100" relative="1" as="geometry">
            <mxPoint x="-238.75" y="330" as="sourcePoint" />
            <mxPoint x="-138.75" y="330" as="targetPoint" />
            <Array as="points" />
          </mxGeometry>
        </mxCell>
        <mxCell id="KnGwi0gBd4qD_E9scAwx-41" value="" style="edgeStyle=none;orthogonalLoop=1;jettySize=auto;html=1;rounded=0;strokeColor=#788AA3;fontColor=#46495D;fillColor=#B2C9AB;exitX=0.7;exitY=0.975;exitDx=0;exitDy=0;exitPerimeter=0;entryX=0;entryY=0;entryDx=0;entryDy=0;" parent="1" source="KnGwi0gBd4qD_E9scAwx-10" target="KnGwi0gBd4qD_E9scAwx-11" edge="1">
          <mxGeometry width="100" relative="1" as="geometry">
            <mxPoint x="-289.75" y="360" as="sourcePoint" />
            <mxPoint x="-189.75" y="360" as="targetPoint" />
            <Array as="points" />
          </mxGeometry>
        </mxCell>
        <mxCell id="KnGwi0gBd4qD_E9scAwx-42" value="" style="edgeStyle=none;orthogonalLoop=1;jettySize=auto;html=1;rounded=0;strokeColor=#788AA3;fontColor=#46495D;fillColor=#B2C9AB;exitX=1;exitY=0;exitDx=0;exitDy=0;entryX=0;entryY=1;entryDx=0;entryDy=0;" parent="1" source="KnGwi0gBd4qD_E9scAwx-11" target="KnGwi0gBd4qD_E9scAwx-12" edge="1">
          <mxGeometry width="100" relative="1" as="geometry">
            <mxPoint x="-249.75" y="360" as="sourcePoint" />
            <mxPoint x="-209.75" y="310" as="targetPoint" />
            <Array as="points" />
          </mxGeometry>
        </mxCell>
        <mxCell id="KnGwi0gBd4qD_E9scAwx-45" value="&lt;div style=&quot;text-align: left;&quot;&gt;&lt;b style=&quot;background-color: initial;&quot;&gt;Program path&lt;/b&gt;&lt;/div&gt;&lt;div style=&quot;text-align: left;&quot;&gt;if i and j are nodes in the program graph, an edge exists from node i to node j if and only if&amp;nbsp;&lt;/div&gt;&lt;div style=&quot;text-align: left;&quot;&gt;the statement fragment corresponding to node j can be executed immediately after the&lt;/div&gt;&lt;div style=&quot;text-align: left;&quot;&gt;statement fragment corresponding to node i.&lt;br&gt;&lt;/div&gt;" style="text;html=1;align=center;verticalAlign=middle;resizable=0;points=[];autosize=1;strokeColor=none;fillColor=none;fontColor=#46495D;" parent="1" vertex="1">
          <mxGeometry x="450" y="-40" width="500" height="70" as="geometry" />
        </mxCell>
        <mxCell id="KnGwi0gBd4qD_E9scAwx-46" value="1" style="ellipse;whiteSpace=wrap;html=1;aspect=fixed;labelBackgroundColor=none;fillColor=#B2C9AB;strokeColor=#788AA3;fontColor=#46495D;" parent="1" vertex="1">
          <mxGeometry x="-390" y="450" width="40" height="40" as="geometry" />
        </mxCell>
        <mxCell id="KnGwi0gBd4qD_E9scAwx-47" value="2" style="ellipse;whiteSpace=wrap;html=1;aspect=fixed;labelBackgroundColor=none;fillColor=#B2C9AB;strokeColor=#788AA3;fontColor=#46495D;" parent="1" vertex="1">
          <mxGeometry x="-430" y="490" width="40" height="40" as="geometry" />
        </mxCell>
        <mxCell id="KnGwi0gBd4qD_E9scAwx-48" value="3-7" style="ellipse;whiteSpace=wrap;html=1;aspect=fixed;labelBackgroundColor=none;fillColor=#ffe6cc;strokeColor=#d79b00;" parent="1" vertex="1">
          <mxGeometry x="-350" y="490" width="40" height="40" as="geometry" />
        </mxCell>
        <mxCell id="KnGwi0gBd4qD_E9scAwx-53" value="8-10" style="ellipse;whiteSpace=wrap;html=1;aspect=fixed;labelBackgroundColor=none;fillColor=#ffe6cc;strokeColor=#d79b00;" parent="1" vertex="1">
          <mxGeometry x="-290" y="527" width="40" height="40" as="geometry" />
        </mxCell>
        <mxCell id="KnGwi0gBd4qD_E9scAwx-56" value="11" style="ellipse;whiteSpace=wrap;html=1;aspect=fixed;labelBackgroundColor=none;fillColor=#B2C9AB;strokeColor=#788AA3;fontColor=#46495D;" parent="1" vertex="1">
          <mxGeometry x="-246" y="577" width="40" height="40" as="geometry" />
        </mxCell>
        <mxCell id="KnGwi0gBd4qD_E9scAwx-57" value="12-13" style="ellipse;whiteSpace=wrap;html=1;aspect=fixed;labelBackgroundColor=none;fillColor=#ffe6cc;strokeColor=#d79b00;" parent="1" vertex="1">
          <mxGeometry x="-205" y="530" width="37" height="37" as="geometry" />
        </mxCell>
        <mxCell id="KnGwi0gBd4qD_E9scAwx-58" value="14-15" style="ellipse;whiteSpace=wrap;html=1;aspect=fixed;labelBackgroundColor=none;fillColor=#ffe6cc;strokeColor=#d79b00;" parent="1" vertex="1">
          <mxGeometry x="-350" y="577" width="40" height="40" as="geometry" />
        </mxCell>
        <mxCell id="KnGwi0gBd4qD_E9scAwx-60" value="" style="edgeStyle=none;orthogonalLoop=1;jettySize=auto;html=1;rounded=0;exitX=0.5;exitY=1;exitDx=0;exitDy=0;entryX=0;entryY=0.5;entryDx=0;entryDy=0;labelBackgroundColor=none;strokeColor=#788AA3;fontColor=default;" parent="1" source="KnGwi0gBd4qD_E9scAwx-47" target="KnGwi0gBd4qD_E9scAwx-58" edge="1">
          <mxGeometry width="100" relative="1" as="geometry">
            <mxPoint x="-470" y="536" as="sourcePoint" />
            <mxPoint x="-350" y="650" as="targetPoint" />
            <Array as="points">
              <mxPoint x="-407.5" y="597" />
            </Array>
          </mxGeometry>
        </mxCell>
        <mxCell id="KnGwi0gBd4qD_E9scAwx-61" value="" style="edgeStyle=none;orthogonalLoop=1;jettySize=auto;html=1;rounded=0;exitX=0;exitY=1;exitDx=0;exitDy=0;entryX=1;entryY=0;entryDx=0;entryDy=0;labelBackgroundColor=none;strokeColor=#788AA3;fontColor=default;" parent="1" source="KnGwi0gBd4qD_E9scAwx-46" target="KnGwi0gBd4qD_E9scAwx-47" edge="1">
          <mxGeometry width="100" relative="1" as="geometry">
            <mxPoint x="-220" y="582" as="sourcePoint" />
            <mxPoint x="-120" y="582" as="targetPoint" />
            <Array as="points" />
          </mxGeometry>
        </mxCell>
        <mxCell id="KnGwi0gBd4qD_E9scAwx-62" value="" style="edgeStyle=none;orthogonalLoop=1;jettySize=auto;html=1;rounded=0;entryX=0;entryY=0;entryDx=0;entryDy=0;exitX=1;exitY=1;exitDx=0;exitDy=0;labelBackgroundColor=none;strokeColor=#788AA3;fontColor=default;" parent="1" source="KnGwi0gBd4qD_E9scAwx-46" target="KnGwi0gBd4qD_E9scAwx-48" edge="1">
          <mxGeometry width="100" relative="1" as="geometry">
            <mxPoint x="-210" y="512" as="sourcePoint" />
            <mxPoint x="-110" y="512" as="targetPoint" />
            <Array as="points" />
          </mxGeometry>
        </mxCell>
        <mxCell id="KnGwi0gBd4qD_E9scAwx-66" value="" style="edgeStyle=none;orthogonalLoop=1;jettySize=auto;html=1;rounded=0;exitX=0.5;exitY=1;exitDx=0;exitDy=0;entryX=0.5;entryY=0;entryDx=0;entryDy=0;labelBackgroundColor=none;strokeColor=#788AA3;fontColor=default;" parent="1" source="KnGwi0gBd4qD_E9scAwx-48" target="KnGwi0gBd4qD_E9scAwx-58" edge="1">
          <mxGeometry width="100" relative="1" as="geometry">
            <mxPoint x="-330" y="641" as="sourcePoint" />
            <mxPoint x="-330" y="497" as="targetPoint" />
            <Array as="points" />
          </mxGeometry>
        </mxCell>
        <mxCell id="KnGwi0gBd4qD_E9scAwx-67" value="" style="edgeStyle=none;orthogonalLoop=1;jettySize=auto;html=1;rounded=0;exitX=1;exitY=0.5;exitDx=0;exitDy=0;entryX=0;entryY=0;entryDx=0;entryDy=0;labelBackgroundColor=none;strokeColor=#788AA3;fontColor=default;" parent="1" source="KnGwi0gBd4qD_E9scAwx-48" target="KnGwi0gBd4qD_E9scAwx-53" edge="1">
          <mxGeometry width="100" relative="1" as="geometry">
            <mxPoint x="-310" y="517" as="sourcePoint" />
            <mxPoint x="-130" y="437" as="targetPoint" />
            <Array as="points" />
          </mxGeometry>
        </mxCell>
        <mxCell id="KnGwi0gBd4qD_E9scAwx-71" value="" style="edgeStyle=none;orthogonalLoop=1;jettySize=auto;html=1;rounded=0;entryX=1;entryY=0;entryDx=0;entryDy=0;labelBackgroundColor=none;strokeColor=#788AA3;fontColor=default;exitX=0.5;exitY=0;exitDx=0;exitDy=0;" parent="1" source="KnGwi0gBd4qD_E9scAwx-57" target="KnGwi0gBd4qD_E9scAwx-53" edge="1">
          <mxGeometry width="100" relative="1" as="geometry">
            <mxPoint x="-22" y="535" as="sourcePoint" />
            <mxPoint x="-230" y="537" as="targetPoint" />
            <Array as="points">
              <mxPoint x="-210" y="491" />
              <mxPoint x="-240" y="491" />
            </Array>
          </mxGeometry>
        </mxCell>
        <mxCell id="KnGwi0gBd4qD_E9scAwx-75" value="" style="edgeStyle=none;orthogonalLoop=1;jettySize=auto;html=1;rounded=0;strokeColor=#788AA3;fontColor=#46495D;fillColor=#B2C9AB;exitX=0;exitY=1;exitDx=0;exitDy=0;entryX=0.95;entryY=0.325;entryDx=0;entryDy=0;entryPerimeter=0;" parent="1" source="KnGwi0gBd4qD_E9scAwx-53" target="KnGwi0gBd4qD_E9scAwx-58" edge="1">
          <mxGeometry width="100" relative="1" as="geometry">
            <mxPoint x="-280" y="597" as="sourcePoint" />
            <mxPoint x="-180" y="597" as="targetPoint" />
            <Array as="points" />
          </mxGeometry>
        </mxCell>
        <mxCell id="KnGwi0gBd4qD_E9scAwx-76" value="" style="edgeStyle=none;orthogonalLoop=1;jettySize=auto;html=1;rounded=0;strokeColor=#788AA3;fontColor=#46495D;fillColor=#B2C9AB;exitX=1;exitY=0.5;exitDx=0;exitDy=0;entryX=0;entryY=0.5;entryDx=0;entryDy=0;" parent="1" source="KnGwi0gBd4qD_E9scAwx-53" target="KnGwi0gBd4qD_E9scAwx-57" edge="1">
          <mxGeometry width="100" relative="1" as="geometry">
            <mxPoint x="-189" y="547" as="sourcePoint" />
            <mxPoint x="-89" y="637" as="targetPoint" />
            <Array as="points" />
          </mxGeometry>
        </mxCell>
        <mxCell id="KnGwi0gBd4qD_E9scAwx-78" value="" style="edgeStyle=none;orthogonalLoop=1;jettySize=auto;html=1;rounded=0;strokeColor=#788AA3;fontColor=#46495D;fillColor=#B2C9AB;exitX=1;exitY=1;exitDx=0;exitDy=0;entryX=0;entryY=0;entryDx=0;entryDy=0;" parent="1" source="KnGwi0gBd4qD_E9scAwx-53" target="KnGwi0gBd4qD_E9scAwx-56" edge="1">
          <mxGeometry width="100" relative="1" as="geometry">
            <mxPoint x="-201" y="566" as="sourcePoint" />
            <mxPoint x="-79" y="657" as="targetPoint" />
            <Array as="points" />
          </mxGeometry>
        </mxCell>
        <mxCell id="KnGwi0gBd4qD_E9scAwx-79" value="" style="edgeStyle=none;orthogonalLoop=1;jettySize=auto;html=1;rounded=0;strokeColor=#788AA3;fontColor=#46495D;fillColor=#B2C9AB;exitX=1;exitY=0;exitDx=0;exitDy=0;entryX=0;entryY=1;entryDx=0;entryDy=0;" parent="1" source="KnGwi0gBd4qD_E9scAwx-56" target="KnGwi0gBd4qD_E9scAwx-57" edge="1">
          <mxGeometry width="100" relative="1" as="geometry">
            <mxPoint x="-196" y="657" as="sourcePoint" />
            <mxPoint x="-156" y="607" as="targetPoint" />
            <Array as="points" />
          </mxGeometry>
        </mxCell>
        <mxCell id="smiQ2lnSORJ_IU0Bsje--1" value="&lt;div style=&quot;text-align: left;&quot;&gt;A DD-path is a sequence of statements that&amp;nbsp;&lt;/div&gt;&lt;div style=&quot;text-align: left;&quot;&gt;- begins with the outway of a decision statement&amp;nbsp;&lt;span style=&quot;background-color: initial;&quot;&gt;and&lt;/span&gt;&lt;/div&gt;&lt;div style=&quot;text-align: left;&quot;&gt;&lt;span style=&quot;background-color: initial;&quot;&gt;- ends with an inway of the next decision statement&lt;/span&gt;&lt;/div&gt;" style="text;html=1;align=center;verticalAlign=middle;resizable=0;points=[];autosize=1;strokeColor=none;fillColor=none;fontColor=#46495D;" parent="1" vertex="1">
          <mxGeometry x="-40" y="640" width="300" height="60" as="geometry" />
        </mxCell>
        <mxCell id="qkng_vWbMAKyaGdU1wZv-37" value="" style="edgeStyle=none;orthogonalLoop=1;jettySize=auto;html=1;rounded=0;strokeColor=#B20000;fontColor=#46495D;fillColor=#e51400;" parent="1" edge="1">
          <mxGeometry width="100" relative="1" as="geometry">
            <mxPoint x="10" y="445" as="sourcePoint" />
            <mxPoint x="40" y="613" as="targetPoint" />
            <Array as="points">
              <mxPoint x="-40" y="475" />
              <mxPoint x="-40" y="613" />
            </Array>
          </mxGeometry>
        </mxCell>
        <mxCell id="qkng_vWbMAKyaGdU1wZv-38" value="" style="ellipse;whiteSpace=wrap;html=1;strokeColor=#B20000;fontColor=#ffffff;fillColor=#e51400;" parent="1" vertex="1">
          <mxGeometry x="271" y="470" width="10" height="10" as="geometry" />
        </mxCell>
        <mxCell id="qkng_vWbMAKyaGdU1wZv-40" value="" style="ellipse;whiteSpace=wrap;html=1;strokeColor=#B09500;fontColor=#000000;fillColor=#e3c800;" parent="1" vertex="1">
          <mxGeometry x="271" y="500" width="10" height="10" as="geometry" />
        </mxCell>
        <mxCell id="qkng_vWbMAKyaGdU1wZv-42" value="" style="ellipse;whiteSpace=wrap;html=1;strokeColor=#001DBC;fontColor=#ffffff;fillColor=#0050ef;" parent="1" vertex="1">
          <mxGeometry x="270" y="537" width="10" height="10" as="geometry" />
        </mxCell>
        <mxCell id="qkng_vWbMAKyaGdU1wZv-44" value="" style="ellipse;whiteSpace=wrap;html=1;strokeColor=#005700;fontColor=#ffffff;fillColor=#008a00;" parent="1" vertex="1">
          <mxGeometry x="271" y="604" width="10" height="10" as="geometry" />
        </mxCell>
        <mxCell id="iutHzt9VFipQ10h0tGfE-1" value="1" style="ellipse;whiteSpace=wrap;html=1;aspect=fixed;labelBackgroundColor=none;fillColor=#B2C9AB;strokeColor=#788AA3;fontColor=#46495D;" vertex="1" parent="1">
          <mxGeometry x="10" y="455" width="40" height="40" as="geometry" />
        </mxCell>
        <mxCell id="iutHzt9VFipQ10h0tGfE-2" value="2" style="ellipse;whiteSpace=wrap;html=1;aspect=fixed;labelBackgroundColor=none;fillColor=#B2C9AB;strokeColor=#788AA3;fontColor=#46495D;" vertex="1" parent="1">
          <mxGeometry x="-30" y="495" width="40" height="40" as="geometry" />
        </mxCell>
        <mxCell id="iutHzt9VFipQ10h0tGfE-3" value="3-7" style="ellipse;whiteSpace=wrap;html=1;aspect=fixed;labelBackgroundColor=none;fillColor=#ffe6cc;strokeColor=#d79b00;" vertex="1" parent="1">
          <mxGeometry x="50" y="495" width="40" height="40" as="geometry" />
        </mxCell>
        <mxCell id="iutHzt9VFipQ10h0tGfE-4" value="8-10" style="ellipse;whiteSpace=wrap;html=1;aspect=fixed;labelBackgroundColor=none;fillColor=#ffe6cc;strokeColor=#d79b00;" vertex="1" parent="1">
          <mxGeometry x="110" y="532" width="40" height="40" as="geometry" />
        </mxCell>
        <mxCell id="iutHzt9VFipQ10h0tGfE-5" value="11" style="ellipse;whiteSpace=wrap;html=1;aspect=fixed;labelBackgroundColor=none;fillColor=#B2C9AB;strokeColor=#788AA3;fontColor=#46495D;" vertex="1" parent="1">
          <mxGeometry x="154" y="582" width="40" height="40" as="geometry" />
        </mxCell>
        <mxCell id="iutHzt9VFipQ10h0tGfE-6" value="12-13" style="ellipse;whiteSpace=wrap;html=1;aspect=fixed;labelBackgroundColor=none;fillColor=#ffe6cc;strokeColor=#d79b00;" vertex="1" parent="1">
          <mxGeometry x="195" y="535" width="37" height="37" as="geometry" />
        </mxCell>
        <mxCell id="iutHzt9VFipQ10h0tGfE-7" value="14-15" style="ellipse;whiteSpace=wrap;html=1;aspect=fixed;labelBackgroundColor=none;fillColor=#ffe6cc;strokeColor=#d79b00;" vertex="1" parent="1">
          <mxGeometry x="50" y="582" width="40" height="40" as="geometry" />
        </mxCell>
        <mxCell id="iutHzt9VFipQ10h0tGfE-8" value="" style="edgeStyle=none;orthogonalLoop=1;jettySize=auto;html=1;rounded=0;exitX=0.5;exitY=1;exitDx=0;exitDy=0;entryX=0;entryY=0.5;entryDx=0;entryDy=0;labelBackgroundColor=none;strokeColor=#788AA3;fontColor=default;" edge="1" parent="1" source="iutHzt9VFipQ10h0tGfE-2" target="iutHzt9VFipQ10h0tGfE-7">
          <mxGeometry width="100" relative="1" as="geometry">
            <mxPoint x="-70" y="541" as="sourcePoint" />
            <mxPoint x="50" y="655" as="targetPoint" />
            <Array as="points">
              <mxPoint x="-7.5" y="602" />
            </Array>
          </mxGeometry>
        </mxCell>
        <mxCell id="iutHzt9VFipQ10h0tGfE-9" value="" style="edgeStyle=none;orthogonalLoop=1;jettySize=auto;html=1;rounded=0;exitX=0;exitY=1;exitDx=0;exitDy=0;entryX=1;entryY=0;entryDx=0;entryDy=0;labelBackgroundColor=none;strokeColor=#788AA3;fontColor=default;" edge="1" parent="1" source="iutHzt9VFipQ10h0tGfE-1" target="iutHzt9VFipQ10h0tGfE-2">
          <mxGeometry width="100" relative="1" as="geometry">
            <mxPoint x="180" y="587" as="sourcePoint" />
            <mxPoint x="280" y="587" as="targetPoint" />
            <Array as="points" />
          </mxGeometry>
        </mxCell>
        <mxCell id="iutHzt9VFipQ10h0tGfE-10" value="" style="edgeStyle=none;orthogonalLoop=1;jettySize=auto;html=1;rounded=0;entryX=0;entryY=0;entryDx=0;entryDy=0;exitX=1;exitY=1;exitDx=0;exitDy=0;labelBackgroundColor=none;strokeColor=#788AA3;fontColor=default;" edge="1" parent="1" source="iutHzt9VFipQ10h0tGfE-1" target="iutHzt9VFipQ10h0tGfE-3">
          <mxGeometry width="100" relative="1" as="geometry">
            <mxPoint x="190" y="517" as="sourcePoint" />
            <mxPoint x="290" y="517" as="targetPoint" />
            <Array as="points" />
          </mxGeometry>
        </mxCell>
        <mxCell id="iutHzt9VFipQ10h0tGfE-11" value="" style="edgeStyle=none;orthogonalLoop=1;jettySize=auto;html=1;rounded=0;exitX=0.5;exitY=1;exitDx=0;exitDy=0;entryX=0.5;entryY=0;entryDx=0;entryDy=0;labelBackgroundColor=none;strokeColor=#788AA3;fontColor=default;" edge="1" parent="1" source="iutHzt9VFipQ10h0tGfE-3" target="iutHzt9VFipQ10h0tGfE-7">
          <mxGeometry width="100" relative="1" as="geometry">
            <mxPoint x="70" y="646" as="sourcePoint" />
            <mxPoint x="70" y="502" as="targetPoint" />
            <Array as="points" />
          </mxGeometry>
        </mxCell>
        <mxCell id="iutHzt9VFipQ10h0tGfE-12" value="" style="edgeStyle=none;orthogonalLoop=1;jettySize=auto;html=1;rounded=0;exitX=1;exitY=0.5;exitDx=0;exitDy=0;entryX=0;entryY=0;entryDx=0;entryDy=0;labelBackgroundColor=none;strokeColor=#788AA3;fontColor=default;" edge="1" parent="1" source="iutHzt9VFipQ10h0tGfE-3" target="iutHzt9VFipQ10h0tGfE-4">
          <mxGeometry width="100" relative="1" as="geometry">
            <mxPoint x="90" y="522" as="sourcePoint" />
            <mxPoint x="270" y="442" as="targetPoint" />
            <Array as="points" />
          </mxGeometry>
        </mxCell>
        <mxCell id="iutHzt9VFipQ10h0tGfE-13" value="" style="edgeStyle=none;orthogonalLoop=1;jettySize=auto;html=1;rounded=0;entryX=1;entryY=0;entryDx=0;entryDy=0;labelBackgroundColor=none;strokeColor=#788AA3;fontColor=default;exitX=0.5;exitY=0;exitDx=0;exitDy=0;" edge="1" parent="1" source="iutHzt9VFipQ10h0tGfE-6" target="iutHzt9VFipQ10h0tGfE-4">
          <mxGeometry width="100" relative="1" as="geometry">
            <mxPoint x="378" y="540" as="sourcePoint" />
            <mxPoint x="170" y="542" as="targetPoint" />
            <Array as="points">
              <mxPoint x="190" y="496" />
              <mxPoint x="160" y="496" />
            </Array>
          </mxGeometry>
        </mxCell>
        <mxCell id="iutHzt9VFipQ10h0tGfE-14" value="" style="edgeStyle=none;orthogonalLoop=1;jettySize=auto;html=1;rounded=0;strokeColor=#788AA3;fontColor=#46495D;fillColor=#B2C9AB;exitX=0;exitY=1;exitDx=0;exitDy=0;entryX=0.95;entryY=0.325;entryDx=0;entryDy=0;entryPerimeter=0;" edge="1" parent="1" source="iutHzt9VFipQ10h0tGfE-4" target="iutHzt9VFipQ10h0tGfE-7">
          <mxGeometry width="100" relative="1" as="geometry">
            <mxPoint x="120" y="602" as="sourcePoint" />
            <mxPoint x="220" y="602" as="targetPoint" />
            <Array as="points" />
          </mxGeometry>
        </mxCell>
        <mxCell id="iutHzt9VFipQ10h0tGfE-15" value="" style="edgeStyle=none;orthogonalLoop=1;jettySize=auto;html=1;rounded=0;strokeColor=#788AA3;fontColor=#46495D;fillColor=#B2C9AB;exitX=1;exitY=0.5;exitDx=0;exitDy=0;entryX=0;entryY=0.5;entryDx=0;entryDy=0;" edge="1" parent="1" source="iutHzt9VFipQ10h0tGfE-4" target="iutHzt9VFipQ10h0tGfE-6">
          <mxGeometry width="100" relative="1" as="geometry">
            <mxPoint x="211" y="552" as="sourcePoint" />
            <mxPoint x="311" y="642" as="targetPoint" />
            <Array as="points" />
          </mxGeometry>
        </mxCell>
        <mxCell id="iutHzt9VFipQ10h0tGfE-16" value="" style="edgeStyle=none;orthogonalLoop=1;jettySize=auto;html=1;rounded=0;strokeColor=#788AA3;fontColor=#46495D;fillColor=#B2C9AB;exitX=1;exitY=1;exitDx=0;exitDy=0;entryX=0;entryY=0;entryDx=0;entryDy=0;" edge="1" parent="1" source="iutHzt9VFipQ10h0tGfE-4" target="iutHzt9VFipQ10h0tGfE-5">
          <mxGeometry width="100" relative="1" as="geometry">
            <mxPoint x="199" y="571" as="sourcePoint" />
            <mxPoint x="321" y="662" as="targetPoint" />
            <Array as="points" />
          </mxGeometry>
        </mxCell>
        <mxCell id="iutHzt9VFipQ10h0tGfE-17" value="" style="edgeStyle=none;orthogonalLoop=1;jettySize=auto;html=1;rounded=0;strokeColor=#788AA3;fontColor=#46495D;fillColor=#B2C9AB;exitX=1;exitY=0;exitDx=0;exitDy=0;entryX=0;entryY=1;entryDx=0;entryDy=0;" edge="1" parent="1" source="iutHzt9VFipQ10h0tGfE-5" target="iutHzt9VFipQ10h0tGfE-6">
          <mxGeometry width="100" relative="1" as="geometry">
            <mxPoint x="204" y="662" as="sourcePoint" />
            <mxPoint x="244" y="612" as="targetPoint" />
            <Array as="points" />
          </mxGeometry>
        </mxCell>
        <mxCell id="iutHzt9VFipQ10h0tGfE-18" value="" style="edgeStyle=none;orthogonalLoop=1;jettySize=auto;html=1;rounded=0;strokeColor=#B09500;fontColor=#46495D;fillColor=#e3c800;" edge="1" parent="1">
          <mxGeometry width="100" relative="1" as="geometry">
            <mxPoint x="40.25" y="440" as="sourcePoint" />
            <mxPoint x="60" y="593" as="targetPoint" />
            <Array as="points">
              <mxPoint x="60.25" y="460" />
            </Array>
          </mxGeometry>
        </mxCell>
        <mxCell id="iutHzt9VFipQ10h0tGfE-19" value="" style="edgeStyle=none;orthogonalLoop=1;jettySize=auto;html=1;rounded=0;strokeColor=#001DBC;fontColor=#46495D;fillColor=#0050ef;entryX=0.563;entryY=0.463;entryDx=0;entryDy=0;entryPerimeter=0;" edge="1" parent="1">
          <mxGeometry width="100" relative="1" as="geometry">
            <mxPoint x="50" y="433" as="sourcePoint" />
            <mxPoint x="70.5" y="602" as="targetPoint" />
            <Array as="points">
              <mxPoint x="70" y="460" />
              <mxPoint x="70" y="503" />
              <mxPoint x="130.5" y="542" />
              <mxPoint x="230.5" y="542" />
              <mxPoint x="210.5" y="482" />
              <mxPoint x="140.5" y="482" />
              <mxPoint x="120.5" y="552" />
            </Array>
          </mxGeometry>
        </mxCell>
        <mxCell id="iutHzt9VFipQ10h0tGfE-21" value="" style="edgeStyle=none;orthogonalLoop=1;jettySize=auto;html=1;rounded=0;strokeColor=#005700;fontColor=#46495D;fillColor=#008a00;entryX=1;entryY=1;entryDx=0;entryDy=0;" edge="1" parent="1" target="iutHzt9VFipQ10h0tGfE-7">
          <mxGeometry width="100" relative="1" as="geometry">
            <mxPoint x="50.5" y="420" as="sourcePoint" />
            <mxPoint x="110" y="593" as="targetPoint" />
            <Array as="points">
              <mxPoint x="81.5" y="460" />
              <mxPoint x="81.5" y="527" />
              <mxPoint x="170" y="603" />
              <mxPoint x="210" y="567" />
              <mxPoint x="192" y="473" />
              <mxPoint x="150" y="473" />
              <mxPoint x="130" y="563" />
            </Array>
          </mxGeometry>
        </mxCell>
        <mxCell id="iutHzt9VFipQ10h0tGfE-22" value="Source node" style="text;html=1;align=center;verticalAlign=middle;resizable=0;points=[];autosize=1;strokeColor=none;fillColor=none;fontColor=#46495D;" vertex="1" parent="1">
          <mxGeometry x="-581.75" y="-84" width="90" height="30" as="geometry" />
        </mxCell>
        <mxCell id="qkng_vWbMAKyaGdU1wZv-2" value="Edge coverage relevant test cases" style="shape=table;startSize=30;container=1;collapsible=0;childLayout=tableLayout;fillColor=#d5e8d4;strokeColor=#82b366;fontStyle=1;swimlaneFillColor=#FFFFFF;fontColor=#000000;whiteSpace=wrap;html=1;" parent="1" vertex="1">
          <mxGeometry x="290" y="400" width="640" height="257" as="geometry" />
        </mxCell>
        <mxCell id="qkng_vWbMAKyaGdU1wZv-3" value="" style="shape=tableRow;horizontal=0;startSize=0;swimlaneHead=0;swimlaneBody=0;strokeColor=inherit;top=0;left=0;bottom=0;right=0;collapsible=0;dropTarget=0;fillColor=inherit;points=[[0,0.5],[1,0.5]];portConstraint=eastwest;fontSize=16;fontColor=#000000;" parent="qkng_vWbMAKyaGdU1wZv-2" vertex="1">
          <mxGeometry y="30" width="640" height="30" as="geometry" />
        </mxCell>
        <mxCell id="qkng_vWbMAKyaGdU1wZv-4" value="startDate, endDate" style="html=1;whiteSpace=wrap;connectable=0;strokeColor=inherit;overflow=hidden;fillColor=none;pointerEvents=1;fontColor=#000000;fontStyle=1" parent="qkng_vWbMAKyaGdU1wZv-3" vertex="1">
          <mxGeometry width="230" height="30" as="geometry">
            <mxRectangle width="230" height="30" as="alternateBounds" />
          </mxGeometry>
        </mxCell>
        <mxCell id="qkng_vWbMAKyaGdU1wZv-5" value="Setup" style="html=1;whiteSpace=wrap;connectable=0;strokeColor=inherit;overflow=hidden;fillColor=none;pointerEvents=1;fontColor=#000000;fontStyle=1" parent="qkng_vWbMAKyaGdU1wZv-3" vertex="1">
          <mxGeometry x="230" width="410" height="30" as="geometry">
            <mxRectangle width="410" height="30" as="alternateBounds" />
          </mxGeometry>
        </mxCell>
        <mxCell id="qkng_vWbMAKyaGdU1wZv-6" value="" style="shape=tableRow;horizontal=0;startSize=0;swimlaneHead=0;swimlaneBody=0;strokeColor=inherit;top=0;left=0;bottom=0;right=0;collapsible=0;dropTarget=0;fillColor=none;points=[[0,0.5],[1,0.5]];portConstraint=eastwest;fontSize=16;fontColor=#000000;" parent="qkng_vWbMAKyaGdU1wZv-2" vertex="1">
          <mxGeometry y="60" width="640" height="30" as="geometry" />
        </mxCell>
        <mxCell id="qkng_vWbMAKyaGdU1wZv-7" value="startDate = endDate + 1" style="html=1;whiteSpace=wrap;connectable=0;strokeColor=inherit;overflow=hidden;fillColor=none;pointerEvents=1;fontColor=#000000;fontStyle=1" parent="qkng_vWbMAKyaGdU1wZv-6" vertex="1">
          <mxGeometry width="230" height="30" as="geometry">
            <mxRectangle width="230" height="30" as="alternateBounds" />
          </mxGeometry>
        </mxCell>
        <mxCell id="qkng_vWbMAKyaGdU1wZv-8" value="" style="html=1;whiteSpace=wrap;connectable=0;strokeColor=inherit;overflow=hidden;fillColor=none;pointerEvents=1;fontColor=#000000;fontStyle=1" parent="qkng_vWbMAKyaGdU1wZv-6" vertex="1">
          <mxGeometry x="230" width="410" height="30" as="geometry">
            <mxRectangle width="410" height="30" as="alternateBounds" />
          </mxGeometry>
        </mxCell>
        <mxCell id="qkng_vWbMAKyaGdU1wZv-9" value="" style="shape=tableRow;horizontal=0;startSize=0;swimlaneHead=0;swimlaneBody=0;strokeColor=inherit;top=0;left=0;bottom=0;right=0;collapsible=0;dropTarget=0;fillColor=none;points=[[0,0.5],[1,0.5]];portConstraint=eastwest;fontSize=16;fontColor=#000000;" parent="qkng_vWbMAKyaGdU1wZv-2" vertex="1">
          <mxGeometry y="90" width="640" height="30" as="geometry" />
        </mxCell>
        <mxCell id="qkng_vWbMAKyaGdU1wZv-10" value="startDate &amp;lt; endDate" style="html=1;whiteSpace=wrap;connectable=0;strokeColor=inherit;overflow=hidden;fillColor=none;pointerEvents=1;fontColor=#000000;fontStyle=1" parent="qkng_vWbMAKyaGdU1wZv-9" vertex="1">
          <mxGeometry width="230" height="30" as="geometry">
            <mxRectangle width="230" height="30" as="alternateBounds" />
          </mxGeometry>
        </mxCell>
        <mxCell id="qkng_vWbMAKyaGdU1wZv-11" value="given there are no existing bookings" style="html=1;whiteSpace=wrap;connectable=0;strokeColor=inherit;overflow=hidden;fillColor=none;pointerEvents=1;fontColor=#000000;fontStyle=1" parent="qkng_vWbMAKyaGdU1wZv-9" vertex="1">
          <mxGeometry x="230" width="410" height="30" as="geometry">
            <mxRectangle width="410" height="30" as="alternateBounds" />
          </mxGeometry>
        </mxCell>
        <mxCell id="qkng_vWbMAKyaGdU1wZv-12" value="" style="shape=tableRow;horizontal=0;startSize=0;swimlaneHead=0;swimlaneBody=0;strokeColor=inherit;top=0;left=0;bottom=0;right=0;collapsible=0;dropTarget=0;fillColor=none;points=[[0,0.5],[1,0.5]];portConstraint=eastwest;fontSize=16;fontColor=#000000;" parent="qkng_vWbMAKyaGdU1wZv-2" vertex="1">
          <mxGeometry y="120" width="640" height="47" as="geometry" />
        </mxCell>
        <mxCell id="qkng_vWbMAKyaGdU1wZv-13" value="startDate = max_b(b.EndDate) + 1&lt;div&gt;endDate = startDate + 1&lt;/div&gt;" style="html=1;whiteSpace=wrap;connectable=0;strokeColor=inherit;overflow=hidden;fillColor=none;pointerEvents=1;fontColor=#000000;fontStyle=1" parent="qkng_vWbMAKyaGdU1wZv-12" vertex="1">
          <mxGeometry width="230" height="47" as="geometry">
            <mxRectangle width="230" height="47" as="alternateBounds" />
          </mxGeometry>
        </mxCell>
        <mxCell id="qkng_vWbMAKyaGdU1wZv-14" value="max_b is the maximum over all bookings b" style="html=1;whiteSpace=wrap;connectable=0;strokeColor=inherit;overflow=hidden;fillColor=none;pointerEvents=1;fontColor=#000000;fontStyle=1" parent="qkng_vWbMAKyaGdU1wZv-12" vertex="1">
          <mxGeometry x="230" width="410" height="47" as="geometry">
            <mxRectangle width="410" height="47" as="alternateBounds" />
          </mxGeometry>
        </mxCell>
        <mxCell id="qkng_vWbMAKyaGdU1wZv-15" value="" style="shape=tableRow;horizontal=0;startSize=0;swimlaneHead=0;swimlaneBody=0;strokeColor=inherit;top=0;left=0;bottom=0;right=0;collapsible=0;dropTarget=0;fillColor=none;points=[[0,0.5],[1,0.5]];portConstraint=eastwest;fontSize=16;fontColor=#000000;" parent="qkng_vWbMAKyaGdU1wZv-2" vertex="1">
          <mxGeometry y="167" width="640" height="90" as="geometry" />
        </mxCell>
        <mxCell id="qkng_vWbMAKyaGdU1wZv-16" value="startDate = b.SD&lt;div&gt;endDate = b.ED&lt;/div&gt;" style="html=1;whiteSpace=wrap;connectable=0;strokeColor=inherit;overflow=hidden;fillColor=none;pointerEvents=1;fontColor=#000000;fontStyle=1" parent="qkng_vWbMAKyaGdU1wZv-15" vertex="1">
          <mxGeometry width="230" height="90" as="geometry">
            <mxRectangle width="230" height="90" as="alternateBounds" />
          </mxGeometry>
        </mxCell>
        <mxCell id="qkng_vWbMAKyaGdU1wZv-17" value="given all rooms are booked on successive overlapping days. Set&lt;div&gt;b.SD = first date of the overlappings days with all rooms occupied&lt;/div&gt;&lt;div&gt;b.ED = last date of the overlapping days with all rooms occupied&lt;/div&gt;" style="html=1;whiteSpace=wrap;connectable=0;strokeColor=inherit;overflow=hidden;fillColor=none;pointerEvents=1;fontColor=#000000;fontStyle=1;align=center;" parent="qkng_vWbMAKyaGdU1wZv-15" vertex="1">
          <mxGeometry x="230" width="410" height="90" as="geometry">
            <mxRectangle width="410" height="90" as="alternateBounds" />
          </mxGeometry>
        </mxCell>
        <mxCell id="iutHzt9VFipQ10h0tGfE-24" value="&lt;b&gt;Edge coverage of test cases&lt;/b&gt;" style="text;html=1;align=center;verticalAlign=middle;resizable=0;points=[];autosize=1;strokeColor=#6c8ebf;fillColor=#dae8fc;" vertex="1" parent="1">
          <mxGeometry x="-40" y="387" width="180" height="30" as="geometry" />
        </mxCell>
      </root>
    </mxGraphModel>
  </diagram>
</mxfile>
